<svg width="348" height="172" viewBox="0 0 348 172" fill="none" xmlns="http://www.w3.org/2000/svg">
<path d="M18.76 123.8V112.39H4.97V108.05H18.76V103.22H4.97V98.88H16.73L0 72.77H9.52L17.01 86.28C17.85 87.8667 18.55 89.2433 19.11 90.41C19.7167 91.53 20.2767 92.6033 20.79 93.63C21.35 94.61 22.0033 95.7533 22.75 97.06H23.1C23.8467 95.7533 24.4767 94.5867 24.99 93.56C25.55 92.5333 26.1333 91.46 26.74 90.34C27.3467 89.1733 28.0467 87.82 28.84 86.28L36.19 72.77H45.57L28.84 98.88H40.6V103.22H26.88V108.05H40.6V112.39H26.88V123.8H18.76Z" fill="white"/>
<path d="M66.946 117.101C68.4043 117.124 69.7829 117.032 71.0817 116.827C72.4033 116.599 73.6224 116.28 74.7389 115.87C76.1745 115.346 77.4733 114.651 78.6354 113.785C79.7975 112.897 80.8343 111.86 81.7458 110.675C82.5205 109.695 83.2155 108.59 83.8307 107.36C84.4688 106.106 85.027 104.762 85.5055 103.326C84.8675 103.942 84.1953 104.511 83.4889 105.035C82.7826 105.537 82.0534 105.958 81.3014 106.3C80.4583 106.687 79.5583 106.984 78.6012 107.189C77.6442 107.371 76.6416 107.451 75.5934 107.428C73.3376 107.405 71.4121 106.915 69.8171 105.958C68.2448 104.978 66.9688 103.714 65.9889 102.164C65.0091 100.615 64.3369 98.8716 63.9723 96.9348C63.6078 94.9979 63.5166 93.0269 63.6989 91.0217C63.8356 89.4722 64.1318 87.9683 64.5876 86.51C65.0433 85.0516 65.6358 83.673 66.3649 82.3742C67.1169 80.9842 68.0283 79.7196 69.0993 78.5803C70.1703 77.4182 71.3779 76.427 72.7223 75.6066C73.9756 74.8775 75.3314 74.3078 76.7897 73.8977C78.2481 73.4875 79.8089 73.3052 81.4723 73.3508C83.2953 73.3964 84.9131 73.704 86.3259 74.2736C87.7386 74.8433 88.9691 75.618 90.0173 76.5979C91.0654 77.5777 91.9313 78.7284 92.6149 80.05C93.2985 81.3488 93.834 82.7388 94.2214 84.2199C94.586 85.701 94.8024 87.2505 94.8708 88.8684C94.9391 90.4634 94.8936 92.0357 94.7341 93.5852L94.3581 96.4563C93.7884 100.581 92.7516 104.409 91.2477 107.941C89.7666 111.45 87.7842 114.435 85.3005 116.896C83.0218 119.152 80.3216 120.918 77.1999 122.194C74.0781 123.447 70.5348 124.073 66.57 124.073H65.7155L66.3991 117.067L66.946 117.101ZM77.6784 101.002C78.681 101.048 79.6266 100.922 80.5153 100.626C81.404 100.307 82.2243 99.8628 82.9762 99.2932C83.7282 98.7691 84.4118 98.1425 85.027 97.4133C85.6423 96.6613 86.1777 95.8752 86.6335 95.0549L87.0095 92.218C87.0778 91.5344 87.112 90.7824 87.112 89.9621C87.1348 89.1418 87.1006 88.3101 87.0095 87.467C86.9183 86.4188 86.7018 85.3934 86.36 84.3908C86.0182 83.3654 85.5283 82.4995 84.8903 81.7932C84.4346 81.2691 83.8877 80.8475 83.2497 80.5285C82.6117 80.2095 81.8483 80.0272 80.9596 79.9816C79.5241 79.9589 78.2595 80.2779 77.1657 80.9387C76.072 81.5767 75.1377 82.4198 74.363 83.468C73.5882 84.5389 72.973 85.7238 72.5173 87.0227C72.0843 88.2987 71.7995 89.552 71.6628 90.7824C71.5488 91.8762 71.5488 93.0155 71.6628 94.2004C71.7767 95.3853 72.0729 96.4676 72.5514 97.4475C72.9844 98.4501 73.611 99.2932 74.4313 99.9768C75.2744 100.638 76.3568 100.979 77.6784 101.002Z" fill="white"/>
<path d="M134.861 104.762C134.588 106.516 134.2 108.248 133.699 109.957C133.198 111.643 132.571 113.227 131.819 114.708C131.021 116.303 130.053 117.762 128.914 119.083C127.774 120.405 126.464 121.499 124.983 122.364C123.798 123.071 122.477 123.618 121.018 124.005C119.583 124.392 118.01 124.563 116.301 124.518C113.932 124.449 111.926 123.96 110.286 123.048C108.645 122.137 107.335 120.952 106.355 119.493C105.603 118.514 104.999 117.431 104.544 116.246C104.088 115.039 103.757 113.774 103.552 112.452C103.347 111.245 103.233 110.003 103.211 108.727C103.211 107.428 103.302 106.129 103.484 104.83L105.33 93.0383C105.649 90.8508 106.161 88.7203 106.868 86.6467C107.597 84.5503 108.554 82.6591 109.739 80.9729C110.4 79.9247 111.14 78.9676 111.961 78.1018C112.781 77.2131 113.692 76.427 114.695 75.7434C115.948 74.9458 117.338 74.3306 118.865 73.8977C120.392 73.4647 122.066 73.271 123.889 73.3166C126.008 73.3622 127.831 73.7495 129.358 74.4787C130.885 75.2079 132.149 76.1763 133.152 77.384C134.109 78.455 134.861 79.6968 135.408 81.1096C135.978 82.5223 136.376 83.9807 136.604 85.4846C136.809 86.6239 136.912 87.8544 136.912 89.176C136.935 90.4748 136.866 91.7622 136.707 93.0383L134.861 104.762ZM123.308 79.9475C122.215 79.9019 121.235 80.0272 120.369 80.3234C119.503 80.6197 118.74 81.0298 118.079 81.5539C117.555 81.9869 117.076 82.4882 116.643 83.0578C116.233 83.6047 115.869 84.1971 115.549 84.8352C115.003 85.8605 114.57 86.9543 114.251 88.1164C113.954 89.2785 113.727 90.4178 113.567 91.5344L112.268 99.4641C112.154 100.239 112.075 100.74 112.029 100.968C112.006 101.173 111.972 101.378 111.926 101.583L129.153 89.7912C129.221 88.6975 129.21 87.5809 129.119 86.4416C129.028 85.2795 128.788 84.2199 128.401 83.2629C127.968 82.3286 127.353 81.5539 126.555 80.9387C125.758 80.3234 124.675 79.993 123.308 79.9475ZM116.848 117.921C117.805 117.967 118.671 117.887 119.446 117.682C120.244 117.477 120.961 117.135 121.599 116.656C122.42 116.087 123.126 115.38 123.718 114.537C124.334 113.671 124.824 112.76 125.188 111.803C125.53 110.914 125.815 109.991 126.043 109.034C126.271 108.077 126.464 107.143 126.624 106.232L127.717 99.3957C127.809 98.8488 127.877 98.3931 127.923 98.0285C127.991 97.6639 128.082 97.1626 128.196 96.5246L110.969 108.282C110.901 109.376 110.912 110.493 111.004 111.632C111.118 112.749 111.391 113.763 111.824 114.674C112.234 115.608 112.838 116.372 113.635 116.964C114.433 117.557 115.504 117.876 116.848 117.921Z" fill="white"/>
<path d="M159.334 122.706C159.083 124.142 158.696 125.52 158.172 126.842C157.67 128.186 157.044 129.451 156.292 130.636C155.585 131.798 154.776 132.88 153.865 133.883C152.953 134.908 151.974 135.843 150.925 136.686L146.55 134.191C147.713 132.459 148.715 130.693 149.558 128.893C150.401 127.093 151.005 125.144 151.37 123.048L152.6 115.836H160.496L159.334 122.706Z" fill="white"/>
<path d="M217.029 104.762C216.756 106.516 216.368 108.248 215.867 109.957C215.366 111.643 214.739 113.227 213.987 114.708C213.189 116.303 212.221 117.762 211.082 119.083C209.942 120.405 208.632 121.499 207.151 122.364C205.966 123.071 204.645 123.618 203.186 124.005C201.751 124.392 200.178 124.563 198.469 124.518C196.1 124.449 194.094 123.96 192.454 123.048C190.813 122.137 189.503 120.952 188.523 119.493C187.771 118.514 187.167 117.431 186.712 116.246C186.256 115.039 185.925 113.774 185.72 112.452C185.515 111.245 185.401 110.003 185.379 108.727C185.379 107.428 185.47 106.129 185.652 104.83L187.498 93.0383C187.817 90.8508 188.329 88.7203 189.036 86.6467C189.765 84.5503 190.722 82.6591 191.907 80.9729C192.568 79.9247 193.308 78.9676 194.129 78.1018C194.949 77.2131 195.86 76.427 196.863 75.7434C198.116 74.9458 199.506 74.3306 201.033 73.8977C202.56 73.4647 204.234 73.271 206.057 73.3166C208.176 73.3622 209.999 73.7495 211.526 74.4787C213.053 75.2079 214.317 76.1763 215.32 77.384C216.277 78.455 217.029 79.6968 217.576 81.1096C218.146 82.5223 218.544 83.9807 218.772 85.4846C218.977 86.6239 219.08 87.8544 219.08 89.176C219.103 90.4748 219.034 91.7622 218.875 93.0383L217.029 104.762ZM205.476 79.9475C204.382 79.9019 203.403 80.0272 202.537 80.3234C201.671 80.6197 200.908 81.0298 200.247 81.5539C199.723 81.9869 199.244 82.4882 198.811 83.0578C198.401 83.6047 198.036 84.1971 197.717 84.8352C197.171 85.8605 196.738 86.9543 196.419 88.1164C196.122 89.2785 195.895 90.4178 195.735 91.5344L194.436 99.4641C194.322 100.239 194.243 100.74 194.197 100.968C194.174 101.173 194.14 101.378 194.094 101.583L211.321 89.7912C211.389 88.6975 211.378 87.5809 211.287 86.4416C211.196 85.2795 210.956 84.2199 210.569 83.2629C210.136 82.3286 209.521 81.5539 208.723 80.9387C207.926 80.3234 206.843 79.993 205.476 79.9475ZM199.016 117.921C199.973 117.967 200.839 117.887 201.614 117.682C202.411 117.477 203.129 117.135 203.767 116.656C204.588 116.087 205.294 115.38 205.886 114.537C206.502 113.671 206.992 112.76 207.356 111.803C207.698 110.914 207.983 109.991 208.211 109.034C208.438 108.077 208.632 107.143 208.792 106.232L209.885 99.3957C209.977 98.8488 210.045 98.3931 210.09 98.0285C210.159 97.6639 210.25 97.1626 210.364 96.5246L193.137 108.282C193.069 109.376 193.08 110.493 193.172 111.632C193.285 112.749 193.559 113.763 193.992 114.674C194.402 115.608 195.006 116.372 195.803 116.964C196.601 117.557 197.672 117.876 199.016 117.921Z" fill="white"/>
<path d="M258.113 104.762C257.84 106.516 257.452 108.248 256.951 109.957C256.45 111.643 255.823 113.227 255.071 114.708C254.273 116.303 253.305 117.762 252.166 119.083C251.026 120.405 249.716 121.499 248.235 122.364C247.05 123.071 245.729 123.618 244.27 124.005C242.835 124.392 241.262 124.563 239.553 124.518C237.184 124.449 235.178 123.96 233.538 123.048C231.897 122.137 230.587 120.952 229.607 119.493C228.855 118.514 228.251 117.431 227.796 116.246C227.34 115.039 227.009 113.774 226.804 112.452C226.599 111.245 226.485 110.003 226.463 108.727C226.463 107.428 226.554 106.129 226.736 104.83L228.582 93.0383C228.901 90.8508 229.413 88.7203 230.12 86.6467C230.849 84.5503 231.806 82.6591 232.991 80.9729C233.652 79.9247 234.392 78.9676 235.213 78.1018C236.033 77.2131 236.944 76.427 237.947 75.7434C239.2 74.9458 240.59 74.3306 242.117 73.8977C243.644 73.4647 245.318 73.271 247.141 73.3166C249.26 73.3622 251.083 73.7495 252.61 74.4787C254.137 75.2079 255.401 76.1763 256.404 77.384C257.361 78.455 258.113 79.6968 258.66 81.1096C259.23 82.5223 259.628 83.9807 259.856 85.4846C260.061 86.6239 260.164 87.8544 260.164 89.176C260.187 90.4748 260.118 91.7622 259.959 93.0383L258.113 104.762ZM246.56 79.9475C245.466 79.9019 244.487 80.0272 243.621 80.3234C242.755 80.6197 241.992 81.0298 241.331 81.5539C240.807 81.9869 240.328 82.4882 239.895 83.0578C239.485 83.6047 239.12 84.1971 238.801 84.8352C238.255 85.8605 237.822 86.9543 237.503 88.1164C237.206 89.2785 236.979 90.4178 236.819 91.5344L235.52 99.4641C235.406 100.239 235.327 100.74 235.281 100.968C235.258 101.173 235.224 101.378 235.178 101.583L252.405 89.7912C252.473 88.6975 252.462 87.5809 252.371 86.4416C252.28 85.2795 252.04 84.2199 251.653 83.2629C251.22 82.3286 250.605 81.5539 249.807 80.9387C249.01 80.3234 247.927 79.993 246.56 79.9475ZM240.1 117.921C241.057 117.967 241.923 117.887 242.698 117.682C243.495 117.477 244.213 117.135 244.851 116.656C245.672 116.087 246.378 115.38 246.97 114.537C247.586 113.671 248.076 112.76 248.44 111.803C248.782 110.914 249.067 109.991 249.295 109.034C249.522 108.077 249.716 107.143 249.876 106.232L250.969 99.3957C251.061 98.8488 251.129 98.3931 251.174 98.0285C251.243 97.6639 251.334 97.1626 251.448 96.5246L234.221 108.282C234.153 109.376 234.164 110.493 234.256 111.632C234.369 112.749 234.643 113.763 235.076 114.674C235.486 115.608 236.09 116.372 236.887 116.964C237.685 117.557 238.756 117.876 240.1 117.921Z" fill="white"/>
<path d="M299.197 104.762C298.924 106.516 298.536 108.248 298.035 109.957C297.534 111.643 296.907 113.227 296.155 114.708C295.357 116.303 294.389 117.762 293.25 119.083C292.11 120.405 290.8 121.499 289.319 122.364C288.134 123.071 286.813 123.618 285.354 124.005C283.919 124.392 282.346 124.563 280.637 124.518C278.268 124.449 276.262 123.96 274.622 123.048C272.981 122.137 271.671 120.952 270.691 119.493C269.939 118.514 269.335 117.431 268.88 116.246C268.424 115.039 268.093 113.774 267.888 112.452C267.683 111.245 267.569 110.003 267.547 108.727C267.547 107.428 267.638 106.129 267.82 104.83L269.666 93.0383C269.985 90.8508 270.497 88.7203 271.204 86.6467C271.933 84.5503 272.89 82.6591 274.075 80.9729C274.736 79.9247 275.476 78.9676 276.297 78.1018C277.117 77.2131 278.028 76.427 279.031 75.7434C280.284 74.9458 281.674 74.3306 283.201 73.8977C284.728 73.4647 286.402 73.271 288.225 73.3166C290.344 73.3622 292.167 73.7495 293.694 74.4787C295.221 75.2079 296.485 76.1763 297.488 77.384C298.445 78.455 299.197 79.6968 299.744 81.1096C300.313 82.5223 300.712 83.9807 300.94 85.4846C301.145 86.6239 301.248 87.8544 301.248 89.176C301.271 90.4748 301.202 91.7622 301.043 93.0383L299.197 104.762ZM287.644 79.9475C286.55 79.9019 285.571 80.0272 284.705 80.3234C283.839 80.6197 283.076 81.0298 282.415 81.5539C281.891 81.9869 281.412 82.4882 280.979 83.0578C280.569 83.6047 280.204 84.1971 279.885 84.8352C279.339 85.8605 278.906 86.9543 278.587 88.1164C278.29 89.2785 278.063 90.4178 277.903 91.5344L276.604 99.4641C276.49 100.239 276.411 100.74 276.365 100.968C276.342 101.173 276.308 101.378 276.262 101.583L293.489 89.7912C293.557 88.6975 293.546 87.5809 293.455 86.4416C293.364 85.2795 293.124 84.2199 292.737 83.2629C292.304 82.3286 291.689 81.5539 290.891 80.9387C290.094 80.3234 289.011 79.993 287.644 79.9475ZM281.184 117.921C282.141 117.967 283.007 117.887 283.782 117.682C284.579 117.477 285.297 117.135 285.935 116.656C286.756 116.087 287.462 115.38 288.054 114.537C288.67 113.671 289.16 112.76 289.524 111.803C289.866 110.914 290.151 109.991 290.379 109.034C290.606 108.077 290.8 107.143 290.96 106.232L292.053 99.3957C292.145 98.8488 292.213 98.3931 292.258 98.0285C292.327 97.6639 292.418 97.1626 292.532 96.5246L275.305 108.282C275.237 109.376 275.248 110.493 275.34 111.632C275.453 112.749 275.727 113.763 276.16 114.674C276.57 115.608 277.174 116.372 277.971 116.964C278.769 117.557 279.84 117.876 281.184 117.921Z" fill="white"/>
<path d="M335.588 70.312L337.1 69.664C337.548 70.304 337.972 71.008 338.372 71.776C338.788 72.528 339.084 73.176 339.26 73.72L337.676 74.464C337.516 73.904 337.236 73.232 336.836 72.448C336.452 71.664 336.036 70.952 335.588 70.312ZM344.516 69.616L346.316 70.288C345.932 70.992 345.516 71.72 345.068 72.472C344.636 73.224 344.228 73.872 343.844 74.416L342.332 73.816C342.588 73.432 342.852 73 343.124 72.52C343.396 72.024 343.652 71.528 343.892 71.032C344.148 70.52 344.356 70.048 344.516 69.616ZM337.82 81.928H339.62C339.524 82.984 339.364 84 339.14 84.976C338.916 85.952 338.588 86.864 338.156 87.712C337.74 88.56 337.18 89.32 336.476 89.992C335.772 90.68 334.876 91.264 333.788 91.744C333.676 91.536 333.508 91.296 333.284 91.024C333.076 90.752 332.876 90.536 332.684 90.376C333.676 89.96 334.484 89.464 335.108 88.888C335.732 88.296 336.228 87.632 336.596 86.896C336.964 86.16 337.236 85.376 337.412 84.544C337.604 83.696 337.74 82.824 337.82 81.928ZM341.612 81.712H343.364V89.08C343.364 89.384 343.396 89.584 343.46 89.68C343.524 89.76 343.684 89.8 343.94 89.8C344.02 89.8 344.172 89.8 344.396 89.8C344.62 89.8 344.844 89.8 345.068 89.8C345.292 89.8 345.452 89.8 345.548 89.8C345.724 89.8 345.852 89.736 345.932 89.608C346.028 89.464 346.092 89.176 346.124 88.744C346.172 88.312 346.204 87.664 346.22 86.8C346.332 86.896 346.476 86.992 346.652 87.088C346.844 87.168 347.044 87.248 347.252 87.328C347.46 87.392 347.636 87.448 347.78 87.496C347.732 88.536 347.636 89.336 347.492 89.896C347.364 90.472 347.156 90.872 346.868 91.096C346.596 91.32 346.22 91.432 345.74 91.432C345.66 91.432 345.524 91.432 345.332 91.432C345.14 91.432 344.932 91.432 344.708 91.432C344.484 91.432 344.276 91.432 344.084 91.432C343.908 91.432 343.772 91.432 343.676 91.432C343.132 91.432 342.708 91.36 342.404 91.216C342.1 91.072 341.892 90.824 341.78 90.472C341.668 90.136 341.612 89.672 341.612 89.08V81.712ZM337.052 76.096V80.776H344.636V76.096H337.052ZM335.324 74.488H346.412V82.36H335.324V74.488ZM329.66 71.632H331.436V91.672H329.66V71.632ZM325.748 76.408H334.436V78.088H325.748V76.408ZM329.756 77.056L330.884 77.536C330.644 78.384 330.348 79.264 329.996 80.176C329.644 81.072 329.26 81.968 328.844 82.864C328.444 83.744 328.012 84.576 327.548 85.36C327.1 86.128 326.644 86.784 326.18 87.328C326.084 87.088 325.94 86.808 325.748 86.488C325.572 86.168 325.404 85.896 325.244 85.672C325.692 85.192 326.132 84.616 326.564 83.944C326.996 83.272 327.412 82.544 327.812 81.76C328.228 80.976 328.604 80.184 328.94 79.384C329.276 78.568 329.548 77.792 329.756 77.056ZM333.236 69.976L334.484 71.368C333.748 71.656 332.908 71.928 331.964 72.184C331.02 72.44 330.044 72.664 329.036 72.856C328.044 73.032 327.076 73.184 326.132 73.312C326.1 73.12 326.028 72.896 325.916 72.64C325.804 72.368 325.7 72.136 325.604 71.944C326.5 71.784 327.42 71.608 328.364 71.416C329.324 71.224 330.228 71.008 331.076 70.768C331.924 70.512 332.644 70.248 333.236 69.976ZM331.34 79.48C331.5 79.624 331.732 79.856 332.036 80.176C332.356 80.48 332.7 80.816 333.068 81.184C333.436 81.536 333.764 81.872 334.052 82.192C334.356 82.512 334.572 82.744 334.7 82.888L333.62 84.304C333.476 84.064 333.268 83.76 332.996 83.392C332.74 83.024 332.452 82.632 332.132 82.216C331.812 81.8 331.508 81.416 331.22 81.064C330.932 80.712 330.692 80.432 330.5 80.224L331.34 79.48Z" fill="#FFFDFD"/>
<path d="M334.292 110.864H339.332V112.568H334.292V110.864ZM338.228 110.864H340.196C340.356 112.688 340.596 114.416 340.916 116.048C341.236 117.664 341.676 119.144 342.236 120.488C342.812 121.816 343.524 122.984 344.372 123.992C345.236 125 346.268 125.816 347.468 126.44C347.324 126.52 347.164 126.64 346.988 126.8C346.812 126.96 346.636 127.128 346.46 127.304C346.3 127.48 346.164 127.64 346.052 127.784C344.836 127.08 343.788 126.2 342.908 125.144C342.044 124.072 341.324 122.856 340.748 121.496C340.172 120.12 339.716 118.616 339.38 116.984C339.044 115.336 338.788 113.584 338.612 111.728H338.228V110.864ZM338.324 115.496L340.172 115.784C339.612 118.504 338.756 120.864 337.604 122.864C336.468 124.864 335.004 126.504 333.212 127.784C333.132 127.672 333.004 127.536 332.828 127.376C332.668 127.2 332.492 127.032 332.3 126.872C332.108 126.696 331.94 126.552 331.796 126.44C333.572 125.32 334.98 123.832 336.02 121.976C337.076 120.12 337.844 117.96 338.324 115.496ZM330.86 119.12V127.616H329.108V120.8H325.748V119.12H330.86ZM330.86 126.824C331.436 127.704 332.236 128.36 333.26 128.792C334.284 129.224 335.492 129.464 336.884 129.512C337.54 129.544 338.332 129.568 339.26 129.584C340.204 129.584 341.188 129.576 342.212 129.56C343.252 129.544 344.252 129.52 345.212 129.488C346.172 129.456 347.012 129.416 347.732 129.368C347.652 129.496 347.572 129.672 347.492 129.896C347.412 130.12 347.34 130.344 347.276 130.568C347.212 130.808 347.164 131.016 347.132 131.192C346.476 131.224 345.7 131.248 344.804 131.264C343.908 131.28 342.98 131.288 342.02 131.288C341.06 131.304 340.124 131.304 339.212 131.288C338.316 131.288 337.54 131.28 336.884 131.264C335.316 131.2 333.972 130.944 332.852 130.496C331.748 130.048 330.812 129.344 330.044 128.384C329.468 128.896 328.876 129.408 328.268 129.92C327.66 130.448 327.028 130.984 326.372 131.528L325.436 129.68C326.012 129.296 326.628 128.856 327.284 128.36C327.956 127.848 328.604 127.336 329.228 126.824H330.86ZM326.012 111.296L327.332 110.216C327.86 110.552 328.396 110.944 328.94 111.392C329.484 111.824 329.98 112.264 330.428 112.712C330.892 113.16 331.268 113.576 331.556 113.96L330.116 115.16C329.876 114.776 329.524 114.352 329.06 113.888C328.612 113.424 328.116 112.968 327.572 112.52C327.044 112.056 326.524 111.648 326.012 111.296Z" fill="#FFFDFD"/>
<path d="M16.712 15.72V30.16H13.072V19.24H7.59195V15.72H16.712ZM16.712 28.64C17.592 30.0533 18.8186 31.0933 20.392 31.76C21.9653 32.4267 23.8586 32.8133 26.072 32.92C27.2186 32.9467 28.6053 32.9733 30.232 33C31.8853 33 33.6053 33 35.392 33C37.2053 32.9733 38.952 32.9333 40.632 32.88C42.3386 32.8 43.8453 32.72 45.152 32.64C45.0186 32.9067 44.8586 33.2667 44.672 33.72C44.512 34.1467 44.3653 34.5867 44.232 35.04C44.0986 35.52 43.992 35.9467 43.912 36.32C42.7653 36.3733 41.4053 36.4133 39.832 36.44C38.2853 36.4933 36.672 36.52 34.992 36.52C33.312 36.5467 31.6986 36.5467 30.152 36.52C28.6053 36.4933 27.2453 36.4667 26.072 36.44C23.5653 36.3333 21.4186 35.92 19.632 35.2C17.8453 34.48 16.3386 33.3333 15.112 31.76C14.152 32.6133 13.152 33.4533 12.112 34.28C11.072 35.1067 9.99195 35.96 8.87195 36.84L7.07195 33.08C8.03195 32.4667 9.07195 31.7733 10.192 31C11.3386 30.2267 12.4186 29.44 13.432 28.64H16.712ZM8.19195 3.28L10.832 0.92C11.6853 1.48 12.552 2.13333 13.432 2.88C14.3386 3.62667 15.1653 4.38667 15.912 5.16C16.6853 5.90667 17.2986 6.61333 17.752 7.28L14.912 9.92C14.4853 9.28 13.8986 8.57333 13.152 7.8C12.432 7 11.632 6.21333 10.752 5.44C9.89862 4.64 9.04529 3.92 8.19195 3.28ZM24.272 7.2L26.712 5.12C27.9386 5.57333 29.2586 6.09333 30.672 6.68C32.112 7.24 33.4853 7.82667 34.792 8.44C36.0986 9.05333 37.2053 9.62667 38.112 10.16L35.512 12.48C34.712 11.9733 33.672 11.4133 32.392 10.8C31.112 10.16 29.752 9.52 28.312 8.88C26.8986 8.24 25.552 7.68 24.272 7.2ZM20.552 10.08H41.112V12.88H24.112V30.8H20.552V10.08ZM39.312 10.08H42.952V27.32C42.952 28.1467 42.8453 28.8 42.632 29.28C42.4186 29.7333 42.032 30.0933 41.472 30.36C40.912 30.6 40.1786 30.76 39.272 30.84C38.392 30.8933 37.312 30.92 36.032 30.92C35.952 30.44 35.8186 29.92 35.632 29.36C35.4453 28.7733 35.2453 28.28 35.032 27.88C35.832 27.9067 36.5786 27.92 37.272 27.92C37.992 27.92 38.4586 27.92 38.672 27.92C38.9386 27.8933 39.112 27.84 39.192 27.76C39.272 27.6533 39.312 27.48 39.312 27.24V10.08ZM20.712 1.56H40.272V4.48H20.712V1.56ZM22.512 15.84H40.632V18.56H22.512V15.84ZM22.512 21.6H40.632V24.44H22.512V21.6ZM29.912 11.32H33.312V30.64H29.912V11.32ZM38.992 1.56H39.832L40.592 1.36L42.872 3.16C41.9653 4.01333 40.9386 4.86667 39.792 5.72C38.6453 6.57333 37.4453 7.37333 36.192 8.12C34.9386 8.84 33.6986 9.48 32.472 10.04C32.232 9.69333 31.912 9.30667 31.512 8.88C31.1386 8.45333 30.8053 8.12 30.512 7.88C31.5786 7.4 32.6453 6.84 33.712 6.2C34.8053 5.56 35.8186 4.89333 36.752 4.2C37.6853 3.50667 38.432 2.85333 38.992 2.24V1.56Z" fill="#FFFDFD"/>
<path d="M64.592 19.64H68.472V37.16H64.592V19.64ZM59.192 14.4V17.72H72.952V14.4H59.192ZM55.552 11.64H76.832V20.48H55.552V11.64ZM51.872 23.4H78.712V26.8H55.712V35.36H51.872V23.4ZM76.912 23.4H80.792V31.72C80.792 32.6267 80.672 33.3467 80.432 33.88C80.192 34.4133 79.712 34.8267 78.992 35.12C78.272 35.3867 77.3786 35.5467 76.312 35.6C75.2719 35.6533 73.992 35.68 72.472 35.68C72.392 35.1733 72.2186 34.5867 71.952 33.92C71.7119 33.28 71.472 32.72 71.232 32.24C71.952 32.2667 72.6453 32.2933 73.312 32.32C73.9786 32.32 74.552 32.32 75.032 32.32C75.5386 32.2933 75.8986 32.28 76.112 32.28C76.4053 32.28 76.6053 32.24 76.712 32.16C76.8453 32.0533 76.912 31.8933 76.912 31.68V23.4ZM64.232 0H68.152V7.32H64.232V0ZM49.232 5.92H83.152V15H79.392V9.2H52.872V15H49.232V5.92ZM52.472 1.72L55.912 0.36C56.5253 1.02667 57.1253 1.78667 57.712 2.64C58.3253 3.46667 58.7786 4.21333 59.072 4.88L55.472 6.48C55.2053 5.81333 54.7786 5.04 54.192 4.16C53.632 3.25333 53.0586 2.44 52.472 1.72ZM76.112 0.320001L80.112 1.6C79.4186 2.48 78.712 3.33333 77.992 4.16C77.2986 4.96 76.672 5.64 76.112 6.2L72.952 5.04C73.2986 4.58667 73.672 4.09333 74.072 3.56C74.472 3 74.8453 2.44 75.192 1.88C75.5653 1.29333 75.872 0.773333 76.112 0.320001Z" fill="#FFFDFD"/>
<path d="M98.632 4.04H124.192V7.44H98.632V4.04ZM99.112 13.32H123.912V36.2H120.232V16.64H102.632V36.4H99.112V13.32ZM105.912 4.52H109.472V15.76H105.912V4.52ZM113.232 4.48H116.792V15.76H113.232V4.48ZM100.712 30.64H122.912V33.92H100.712V30.64ZM106.232 15.72H109.432V33.16H106.232V15.72ZM113.232 15.68H116.432V33.16H113.232V15.68ZM95.792 0.119998L99.232 1.2C98.432 3.41333 97.472 5.61333 96.352 7.8C95.232 9.96 94.0186 12.0133 92.712 13.96C91.432 15.88 90.0986 17.5733 88.712 19.04C88.6053 18.7467 88.432 18.3733 88.192 17.92C87.952 17.44 87.6986 16.96 87.432 16.48C87.1653 16 86.9253 15.6133 86.712 15.32C87.9386 14.0933 89.1119 12.6667 90.2319 11.04C91.3519 9.41333 92.392 7.66667 93.352 5.8C94.312 3.93333 95.1253 2.04 95.792 0.119998ZM91.9119 10.84L95.432 7.32L95.472 7.36V37.16H91.9119V10.84Z" fill="#FFFDFD"/>
<path d="M148.352 4.32H159.312V7.56H148.352V4.32ZM144.472 22.36H161.592V37.04H157.952V25.56H147.992V37.2H144.472V22.36ZM145.952 32.32H159.912V35.6H145.952V32.32ZM149.192 0L152.792 0.96C152.072 2.77333 151.205 4.53333 150.192 6.24C149.205 7.92 148.125 9.48 146.952 10.92C145.805 12.36 144.619 13.6267 143.392 14.72C143.179 14.48 142.899 14.2 142.552 13.88C142.205 13.56 141.832 13.24 141.432 12.92C141.059 12.6 140.725 12.3467 140.432 12.16C142.272 10.7467 143.965 8.96 145.512 6.8C147.059 4.64 148.285 2.37333 149.192 0ZM158.312 4.32H158.952L159.632 4.16L161.992 5.28C161.139 7.78667 160.019 10.08 158.632 12.16C157.272 14.2133 155.699 16.0533 153.912 17.68C152.152 19.3067 150.232 20.7333 148.152 21.96C146.099 23.16 143.979 24.1467 141.792 24.92C141.579 24.4667 141.259 23.9333 140.832 23.32C140.432 22.7067 140.045 22.2267 139.672 21.88C141.699 21.24 143.672 20.3867 145.592 19.32C147.539 18.2533 149.339 17 150.992 15.56C152.672 14.0933 154.139 12.48 155.392 10.72C156.645 8.93333 157.619 7 158.312 4.92V4.32ZM148.272 6.68C149.125 8.52 150.325 10.3733 151.872 12.24C153.445 14.08 155.352 15.7733 157.592 17.32C159.832 18.84 162.392 20.0267 165.272 20.88C165.032 21.12 164.752 21.4267 164.432 21.8C164.139 22.1733 163.859 22.56 163.592 22.96C163.352 23.36 163.139 23.72 162.952 24.04C160.045 23 157.445 21.64 155.152 19.96C152.859 18.2533 150.899 16.3867 149.272 14.36C147.672 12.3067 146.405 10.28 145.472 8.28L148.272 6.68ZM128.032 8.48H142.192V12H128.032V8.48ZM133.712 0.0399995H137.312V37.12H133.712V0.0399995ZM133.632 10.8L135.912 11.56C135.592 13.16 135.179 14.8267 134.672 16.56C134.192 18.2667 133.645 19.9467 133.032 21.6C132.445 23.2533 131.792 24.7867 131.072 26.2C130.379 27.6133 129.659 28.8267 128.912 29.84C128.752 29.3333 128.485 28.76 128.112 28.12C127.739 27.4533 127.392 26.8933 127.072 26.44C127.765 25.56 128.445 24.52 129.112 23.32C129.779 22.0933 130.392 20.7733 130.952 19.36C131.539 17.9467 132.059 16.52 132.512 15.08C132.965 13.6133 133.339 12.1867 133.632 10.8ZM137.112 13.24C137.352 13.48 137.712 13.88 138.192 14.44C138.699 15 139.219 15.6133 139.752 16.28C140.312 16.9467 140.819 17.56 141.272 18.12C141.752 18.68 142.072 19.0933 142.232 19.36L140.112 22.24C139.872 21.76 139.539 21.1867 139.112 20.52C138.712 19.8533 138.272 19.16 137.792 18.44C137.312 17.72 136.859 17.04 136.432 16.4C136.005 15.76 135.645 15.2533 135.352 14.88L137.112 13.24Z" fill="#FFFDFD"/>
<path d="M23.278 151.704H36.238V153.072H23.278V151.704ZM22.63 157.536H36.574V158.976H22.63V157.536ZM22.606 166.44H36.622V167.928H22.606V166.44ZM24.886 163.488H34.606V164.712H24.886V163.488ZM23.758 154.56H35.758V155.928H23.758V154.56ZM26.134 149.64H27.766V158.184H26.134V149.64ZM31.606 149.64H33.262V158.184H31.606V149.64ZM28.798 158.208H30.334V167.304H28.798V158.208ZM33.622 160.344H35.278V169.896C35.278 170.344 35.222 170.68 35.11 170.904C34.998 171.144 34.782 171.336 34.462 171.48C34.142 171.592 33.71 171.656 33.166 171.672C32.622 171.704 31.942 171.72 31.126 171.72C31.094 171.496 31.03 171.248 30.934 170.976C30.854 170.704 30.758 170.464 30.646 170.256C31.238 170.272 31.774 170.28 32.254 170.28C32.734 170.296 33.054 170.296 33.214 170.28C33.374 170.264 33.478 170.224 33.526 170.16C33.59 170.112 33.622 170.016 33.622 169.872V160.344ZM24.07 160.344H34.246V161.688H25.63V171.72H24.07V160.344ZM15.454 157.032H21.838V158.472H15.454V157.032ZM15.574 150.48H21.742V151.92H15.574V150.48ZM15.454 160.32H21.838V161.736H15.454V160.32ZM14.398 153.696H22.462V155.184H14.398V153.696ZM16.294 163.608H21.934V170.592H16.294V169.128H20.374V165.096H16.294V163.608ZM15.406 163.608H16.942V171.696H15.406V163.608Z" fill="#FFFDFD"/>
<path d="M41.926 161.784H57.286V171.792H55.414V163.224H43.726V171.792H41.926V161.784ZM42.862 165.552H55.99V166.992H42.862V165.552ZM42.934 169.416H55.99V170.832H42.934V169.416ZM48.526 159.528L50.422 159.888C50.15 160.416 49.862 160.936 49.558 161.448C49.27 161.96 49.006 162.392 48.766 162.744L47.302 162.36C47.51 161.96 47.734 161.496 47.974 160.968C48.214 160.424 48.398 159.944 48.526 159.528ZM39.214 150.864H47.23V152.328H39.214V150.864ZM46.75 150.864H48.382V158.808C48.382 159.208 48.326 159.52 48.214 159.744C48.118 159.968 47.918 160.144 47.614 160.272C47.31 160.384 46.91 160.448 46.414 160.464C45.918 160.48 45.286 160.488 44.518 160.488C44.486 160.28 44.422 160.056 44.326 159.816C44.23 159.56 44.126 159.336 44.014 159.144C44.558 159.16 45.046 159.168 45.478 159.168C45.91 159.168 46.198 159.168 46.342 159.168C46.502 159.168 46.606 159.144 46.654 159.096C46.718 159.032 46.75 158.936 46.75 158.808V150.864ZM49.918 150.864H58.294V152.328H49.918V150.864ZM57.454 150.864H59.158V158.832C59.158 159.248 59.094 159.568 58.966 159.792C58.854 160.016 58.646 160.2 58.342 160.344C58.022 160.456 57.598 160.528 57.07 160.56C56.542 160.576 55.878 160.584 55.078 160.584C55.046 160.376 54.974 160.136 54.862 159.864C54.766 159.592 54.662 159.352 54.55 159.144C55.126 159.16 55.646 159.176 56.11 159.192C56.59 159.192 56.902 159.184 57.046 159.168C57.222 159.152 57.334 159.128 57.382 159.096C57.43 159.048 57.454 158.952 57.454 158.808V150.864ZM49.366 157.968C50.246 157.68 51.286 157.328 52.486 156.912C53.686 156.496 54.91 156.064 56.158 155.616L56.446 156.96C55.326 157.376 54.206 157.8 53.086 158.232C51.966 158.648 50.942 159.016 50.014 159.336L49.366 157.968ZM50.59 153.624L51.502 152.568C52.078 152.84 52.678 153.184 53.302 153.6C53.926 154 54.414 154.376 54.766 154.728L53.782 155.928C53.462 155.56 52.99 155.16 52.366 154.728C51.758 154.296 51.166 153.928 50.59 153.624ZM38.638 158.424C39.47 158.168 40.454 157.832 41.59 157.416C42.742 157 43.918 156.56 45.118 156.096L45.382 157.44C44.326 157.872 43.27 158.312 42.214 158.76C41.174 159.192 40.214 159.584 39.334 159.936L38.638 158.424ZM40.222 153.624L41.182 152.568C41.758 152.872 42.35 153.232 42.958 153.648C43.582 154.064 44.046 154.456 44.35 154.824L43.39 155.976C43.07 155.608 42.606 155.208 41.998 154.776C41.39 154.328 40.798 153.944 40.222 153.624Z" fill="#FFFDFD"/>
<path d="M66.361 160.226L67.7555 160.249C68.2321 160.249 68.6891 160.183 69.1266 160.05C69.572 159.917 69.9704 159.722 70.322 159.464C70.6735 159.214 70.9626 158.902 71.1891 158.527C71.4235 158.144 71.572 157.698 71.6345 157.191C71.6813 156.769 71.6696 156.382 71.5993 156.03C71.529 155.671 71.3962 155.363 71.2009 155.105C70.9977 154.847 70.736 154.648 70.4157 154.507C70.1032 154.359 69.7243 154.277 69.279 154.261C68.818 154.253 68.3923 154.32 68.0016 154.46C67.611 154.601 67.2673 154.8 66.9704 155.058C66.6657 155.316 66.4157 155.628 66.2204 155.995C66.0251 156.355 65.8884 156.757 65.8102 157.202L63.7126 157.214C63.7907 156.488 63.9938 155.831 64.322 155.245C64.6579 154.659 65.0837 154.159 65.5993 153.745C66.1071 153.339 66.6852 153.027 67.3337 152.808C67.9899 152.589 68.6735 152.484 69.3845 152.491C70.0876 152.507 70.7204 152.632 71.2829 152.866C71.8532 153.093 72.3337 153.409 72.7243 153.816C73.1071 154.23 73.3884 154.726 73.568 155.304C73.7555 155.882 73.818 156.527 73.7555 157.238C73.7165 157.706 73.6032 158.14 73.4157 158.538C73.2282 158.929 72.9899 159.284 72.7009 159.605C72.404 159.925 72.072 160.21 71.7048 160.46C71.3376 160.71 70.9509 160.925 70.5446 161.105C70.943 161.277 71.2829 161.495 71.5641 161.761C71.8532 162.019 72.0837 162.316 72.2555 162.652C72.4196 162.988 72.5329 163.351 72.5954 163.741C72.6579 164.124 72.6735 164.527 72.6423 164.948C72.572 165.738 72.3688 166.448 72.0329 167.081C71.7048 167.714 71.279 168.253 70.7555 168.698C70.2243 169.144 69.6149 169.484 68.9274 169.718C68.2399 169.945 67.5095 170.05 66.736 170.034C66.0329 170.019 65.3884 169.898 64.8024 169.671C64.2165 169.445 63.7204 169.124 63.3141 168.71C62.9001 168.304 62.5837 167.812 62.3649 167.234C62.1462 166.655 62.0563 166.007 62.0954 165.288L64.2048 165.3C64.1735 165.738 64.2087 166.136 64.3102 166.495C64.4196 166.855 64.5876 167.163 64.8141 167.421C65.0329 167.679 65.3141 167.882 65.6579 168.03C66.0016 168.179 66.3962 168.257 66.8415 168.265C67.3493 168.28 67.8141 168.214 68.236 168.066C68.6657 167.909 69.0407 167.687 69.361 167.398C69.6813 167.116 69.943 166.773 70.1462 166.366C70.3493 165.952 70.4782 165.495 70.5329 164.995C70.5876 164.511 70.5563 164.085 70.4391 163.718C70.322 163.351 70.1384 163.042 69.8884 162.792C69.6384 162.542 69.3259 162.351 68.9509 162.218C68.5759 162.085 68.154 162.011 67.6852 161.995L66.0446 161.984L66.361 160.226Z" fill="#FFFDFD"/>
<path d="M85.892 155.568C85.812 155.792 85.732 156.008 85.652 156.216C85.572 156.408 85.5 156.608 85.436 156.816C85.324 157.152 85.18 157.536 85.004 157.968C84.828 158.384 84.644 158.8 84.452 159.216C84.26 159.616 84.076 159.968 83.9 160.272C83.612 160.8 83.252 161.36 82.82 161.952C82.404 162.528 81.98 163.072 81.548 163.584C81.116 164.08 80.708 164.488 80.324 164.808L78.572 163.776C79.068 163.408 79.54 162.984 79.988 162.504C80.452 162.008 80.868 161.504 81.236 160.992C81.62 160.48 81.94 160.016 82.196 159.6C82.516 159.072 82.78 158.544 82.988 158.016C83.196 157.488 83.364 156.992 83.492 156.528C83.556 156.304 83.612 156.072 83.66 155.832C83.708 155.576 83.74 155.336 83.756 155.112L85.892 155.568ZM83.492 158.928C83.7 158.928 84.084 158.928 84.644 158.928C85.204 158.928 85.86 158.928 86.612 158.928C87.38 158.928 88.172 158.928 88.988 158.928C89.804 158.928 90.58 158.928 91.316 158.928C92.052 158.928 92.676 158.928 93.188 158.928C93.716 158.928 94.052 158.928 94.196 158.928C94.452 158.928 94.756 158.92 95.108 158.904C95.46 158.888 95.78 158.856 96.068 158.808V160.704C95.748 160.672 95.412 160.656 95.06 160.656C94.724 160.64 94.436 160.632 94.196 160.632C94.052 160.632 93.716 160.632 93.188 160.632C92.676 160.632 92.044 160.632 91.292 160.632C90.556 160.632 89.772 160.632 88.94 160.632C88.124 160.632 87.3319 160.632 86.5639 160.632C85.7959 160.632 85.116 160.632 84.524 160.632C83.948 160.632 83.548 160.632 83.324 160.632L83.492 158.928ZM90.716 159.888C90.636 161.888 90.348 163.64 89.852 165.144C89.356 166.632 88.66 167.92 87.764 169.008C86.884 170.08 85.82 170.992 84.572 171.744L82.6759 170.496C82.9319 170.384 83.252 170.216 83.636 169.992C84.02 169.768 84.332 169.568 84.572 169.392C85.068 168.992 85.5559 168.52 86.0359 167.976C86.5319 167.416 86.98 166.76 87.38 166.008C87.796 165.256 88.132 164.376 88.388 163.368C88.66 162.36 88.812 161.2 88.844 159.888H90.716Z" fill="#FFFDFD"/>
<path d="M105.668 150.912H118.172V152.664H105.668V150.912ZM105.668 156.696H118.292V158.4H105.668V156.696ZM105.476 162.48H118.172V164.232H105.476V162.48ZM104.54 150.912H106.364V158.304C106.364 159.344 106.308 160.456 106.196 161.64C106.1 162.824 105.892 164.024 105.572 165.24C105.252 166.44 104.772 167.6 104.132 168.72C103.508 169.84 102.676 170.848 101.636 171.744C101.556 171.616 101.428 171.464 101.252 171.288C101.092 171.112 100.924 170.944 100.748 170.784C100.572 170.64 100.412 170.528 100.268 170.448C101.244 169.584 102.012 168.656 102.572 167.664C103.148 166.656 103.572 165.616 103.844 164.544C104.132 163.472 104.316 162.408 104.396 161.352C104.492 160.28 104.54 159.264 104.54 158.304V150.912ZM117.38 150.912H119.276V169.056C119.276 169.696 119.18 170.184 118.988 170.52C118.796 170.856 118.476 171.104 118.028 171.264C117.564 171.424 116.916 171.52 116.084 171.552C115.252 171.6 114.196 171.624 112.916 171.624C112.884 171.432 112.82 171.224 112.724 171C112.644 170.776 112.548 170.544 112.436 170.304C112.34 170.08 112.244 169.888 112.148 169.728C112.82 169.744 113.46 169.76 114.068 169.776C114.692 169.776 115.228 169.776 115.676 169.776C116.14 169.76 116.46 169.752 116.636 169.752C116.924 169.736 117.116 169.68 117.212 169.584C117.324 169.472 117.38 169.288 117.38 169.032V150.912Z" fill="#FFFDFD"/>
<path d="M128.06 158.712H141.812V160.464H128.06V158.712ZM141.188 158.712H143.06C143.06 158.712 143.06 158.768 143.06 158.88C143.06 158.992 143.06 159.12 143.06 159.264C143.06 159.392 143.052 159.496 143.036 159.576C142.94 161.448 142.844 163.04 142.748 164.352C142.668 165.648 142.564 166.728 142.436 167.592C142.324 168.456 142.196 169.136 142.052 169.632C141.908 170.128 141.724 170.488 141.5 170.712C141.26 171.016 140.996 171.224 140.708 171.336C140.42 171.464 140.068 171.544 139.652 171.576C139.252 171.608 138.7 171.616 137.996 171.6C137.308 171.6 136.588 171.576 135.836 171.528C135.82 171.256 135.756 170.952 135.644 170.616C135.548 170.28 135.412 169.984 135.236 169.728C136.02 169.792 136.748 169.832 137.42 169.848C138.092 169.88 138.572 169.896 138.86 169.896C139.1 169.896 139.3 169.872 139.46 169.824C139.62 169.776 139.756 169.696 139.868 169.584C140.108 169.36 140.3 168.88 140.444 168.144C140.604 167.392 140.74 166.288 140.852 164.832C140.98 163.36 141.092 161.44 141.188 159.072V158.712ZM131.348 150.12L133.268 150.672C132.676 152.016 131.98 153.304 131.18 154.536C130.396 155.768 129.532 156.896 128.588 157.92C127.66 158.944 126.692 159.84 125.684 160.608C125.572 160.48 125.42 160.328 125.228 160.152C125.036 159.976 124.836 159.8 124.628 159.624C124.436 159.448 124.268 159.304 124.124 159.192C125.148 158.52 126.116 157.712 127.028 156.768C127.94 155.824 128.764 154.792 129.5 153.672C130.236 152.536 130.852 151.352 131.348 150.12ZM139.724 150.072C140.108 150.872 140.58 151.696 141.14 152.544C141.7 153.376 142.308 154.184 142.964 154.968C143.62 155.736 144.292 156.456 144.98 157.128C145.684 157.784 146.364 158.344 147.02 158.808C146.86 158.936 146.676 159.096 146.468 159.288C146.276 159.464 146.092 159.648 145.916 159.84C145.756 160.032 145.62 160.216 145.508 160.392C144.836 159.848 144.156 159.216 143.468 158.496C142.78 157.76 142.1 156.968 141.428 156.12C140.772 155.272 140.148 154.392 139.556 153.48C138.98 152.568 138.46 151.664 137.996 150.768L139.724 150.072ZM133.124 159.216H135.068C134.94 160.528 134.732 161.808 134.444 163.056C134.156 164.304 133.716 165.48 133.124 166.584C132.532 167.688 131.708 168.688 130.652 169.584C129.612 170.48 128.252 171.232 126.572 171.84C126.492 171.68 126.388 171.496 126.26 171.288C126.132 171.096 125.988 170.904 125.828 170.712C125.684 170.536 125.54 170.384 125.396 170.256C126.964 169.744 128.228 169.096 129.188 168.312C130.164 167.512 130.916 166.624 131.444 165.648C131.972 164.672 132.356 163.64 132.596 162.552C132.836 161.464 133.012 160.352 133.124 159.216Z" fill="#FFFDFD"/>
<path d="M150.912 171.265H148.908L159.033 152.738H161.025L150.912 171.265Z" fill="#FFFDFD"/>
<path d="M162.714 159.456H184.698V161.424H162.714V159.456Z" fill="#FFFDFD"/>
<path d="M206.418 149.808L207.642 151.248C206.602 151.568 205.41 151.864 204.066 152.136C202.722 152.408 201.33 152.648 199.89 152.856C198.45 153.048 197.058 153.208 195.714 153.336C195.682 153.128 195.61 152.88 195.498 152.592C195.402 152.304 195.306 152.064 195.21 151.872C196.186 151.76 197.194 151.632 198.234 151.488C199.29 151.344 200.314 151.184 201.306 151.008C202.314 150.832 203.25 150.64 204.114 150.432C204.994 150.224 205.762 150.016 206.418 149.808ZM194.874 156.912H208.722V158.616H194.874V156.912ZM195.666 162.768H207.402V171.624H205.602V164.424H197.418V171.72H195.666V162.768ZM196.77 169.104H206.322V170.736H196.77V169.104ZM200.634 151.776H202.386V163.704H200.634V151.776ZM186.474 162.336C187.146 162.16 187.906 161.96 188.754 161.736C189.618 161.496 190.53 161.24 191.49 160.968C192.45 160.696 193.402 160.416 194.346 160.128L194.562 161.784C193.25 162.2 191.922 162.608 190.578 163.008C189.25 163.408 188.05 163.768 186.978 164.088L186.474 162.336ZM186.762 154.488H194.298V156.192H186.762V154.488ZM189.786 149.64H191.514V169.512C191.514 170.04 191.442 170.44 191.298 170.712C191.17 170.984 190.954 171.192 190.65 171.336C190.346 171.48 189.938 171.568 189.426 171.6C188.914 171.632 188.25 171.648 187.434 171.648C187.418 171.424 187.354 171.144 187.242 170.808C187.13 170.488 187.01 170.216 186.882 169.992C187.442 170.008 187.954 170.016 188.418 170.016C188.882 170.016 189.186 170.008 189.33 169.992C189.49 169.976 189.602 169.936 189.666 169.872C189.746 169.808 189.786 169.688 189.786 169.512V149.64Z" fill="#FFFDFD"/>
<path d="M224.154 150.312L226.122 150.648C225.834 152.216 225.506 153.864 225.138 155.592C224.77 157.32 224.37 159.056 223.938 160.8C223.522 162.528 223.098 164.184 222.666 165.768C222.25 167.336 221.834 168.768 221.418 170.064L219.714 169.656C220.13 168.392 220.546 166.96 220.962 165.36C221.378 163.76 221.786 162.088 222.186 160.344C222.586 158.6 222.954 156.872 223.29 155.16C223.626 153.432 223.914 151.816 224.154 150.312ZM217.434 169.344C218.522 169.248 219.794 169.12 221.25 168.96C222.722 168.784 224.298 168.6 225.978 168.408C227.658 168.216 229.33 168.024 230.994 167.832L231.042 169.488C229.474 169.712 227.89 169.928 226.29 170.136C224.706 170.344 223.186 170.544 221.73 170.736C220.29 170.928 218.994 171.096 217.842 171.24L217.434 169.344ZM226.698 161.424L228.258 160.824C228.914 161.912 229.554 163.072 230.178 164.304C230.802 165.536 231.362 166.736 231.858 167.904C232.354 169.072 232.722 170.112 232.962 171.024L231.234 171.72C231.058 171.064 230.818 170.312 230.514 169.464C230.21 168.616 229.85 167.728 229.434 166.8C229.018 165.872 228.578 164.952 228.114 164.04C227.65 163.112 227.178 162.24 226.698 161.424ZM210.762 154.56H219.882V156.264H210.762V154.56ZM214.602 149.616H216.378V169.488C216.378 170.064 216.298 170.488 216.138 170.76C215.994 171.048 215.754 171.264 215.418 171.408C215.066 171.536 214.594 171.624 214.002 171.672C213.41 171.72 212.658 171.744 211.746 171.744C211.698 171.52 211.626 171.232 211.53 170.88C211.434 170.544 211.322 170.256 211.194 170.016C211.834 170.032 212.434 170.04 212.994 170.04C213.554 170.04 213.922 170.04 214.098 170.04C214.29 170.024 214.418 169.976 214.482 169.896C214.562 169.832 214.602 169.704 214.602 169.512V149.616ZM210.45 162.312C211.234 162.136 212.146 161.928 213.186 161.688C214.242 161.448 215.354 161.184 216.522 160.896C217.706 160.608 218.89 160.32 220.074 160.032L220.218 161.64C219.13 161.944 218.026 162.24 216.906 162.528C215.802 162.816 214.73 163.096 213.69 163.368C212.666 163.64 211.73 163.88 210.882 164.088L210.45 162.312Z" fill="#FFFDFD"/>
<path d="M239.01 153.048C238.978 153.24 238.946 153.48 238.914 153.768C238.898 154.056 238.874 154.344 238.842 154.632C238.826 154.92 238.818 155.168 238.818 155.376C238.802 155.872 238.794 156.44 238.794 157.08C238.81 157.704 238.826 158.36 238.842 159.048C238.874 159.72 238.922 160.392 238.986 161.064C239.114 162.392 239.33 163.56 239.634 164.568C239.938 165.56 240.306 166.336 240.738 166.896C241.186 167.456 241.69 167.736 242.25 167.736C242.554 167.736 242.85 167.6 243.138 167.328C243.426 167.04 243.698 166.664 243.954 166.2C244.226 165.72 244.466 165.192 244.674 164.616C244.898 164.024 245.082 163.432 245.226 162.84L246.738 164.544C246.258 165.904 245.77 166.984 245.274 167.784C244.794 168.568 244.298 169.136 243.786 169.488C243.29 169.84 242.77 170.016 242.226 170.016C241.474 170.016 240.746 169.744 240.042 169.2C239.338 168.64 238.73 167.744 238.218 166.512C237.706 165.264 237.338 163.608 237.114 161.544C237.034 160.84 236.97 160.08 236.922 159.264C236.89 158.448 236.866 157.672 236.85 156.936C236.85 156.2 236.85 155.6 236.85 155.136C236.85 154.864 236.842 154.512 236.826 154.08C236.81 153.648 236.762 153.288 236.682 153L239.01 153.048ZM251.514 153.72C251.946 154.264 252.354 154.904 252.738 155.64C253.138 156.36 253.498 157.136 253.818 157.968C254.154 158.784 254.45 159.632 254.706 160.512C254.978 161.392 255.194 162.272 255.354 163.152C255.53 164.016 255.658 164.848 255.738 165.648L253.818 166.44C253.722 165.352 253.554 164.248 253.314 163.128C253.074 161.992 252.778 160.896 252.426 159.84C252.074 158.768 251.666 157.76 251.202 156.816C250.738 155.872 250.218 155.056 249.642 154.368L251.514 153.72Z" fill="#FFFDFD"/>
</svg>
