<svg width="70" height="71" viewBox="0 0 70 71" fill="none" xmlns="http://www.w3.org/2000/svg">
<path d="M0 0H70V71H0V0Z" fill="white"/>
<path d="M39.4062 50.9375L49.7188 60.7188L44.375 64.9062L34.25 55.2188L39.4062 50.9375ZM54.5312 32.9375L54.1875 35.4062C53.7917 38.2812 53.0312 41.0625 51.9062 43.75C50.8021 46.4375 49.3438 48.8333 47.5312 50.9375C45.7188 53.0417 43.5625 54.6979 41.0625 55.9062C38.5625 57.1146 35.7292 57.6875 32.5625 57.625C29.5 57.5625 26.9271 56.8854 24.8438 55.5938C22.7604 54.3021 21.125 52.5938 19.9375 50.4688C18.7708 48.3438 17.9896 45.9896 17.5938 43.4062C17.2188 40.8021 17.1979 38.1667 17.5312 35.5L17.8438 33C18.2604 30.1667 19.0312 27.4167 20.1562 24.75C21.2812 22.0833 22.75 19.6979 24.5625 17.5938C26.375 15.4688 28.5312 13.8021 31.0312 12.5938C33.5521 11.3854 36.3854 10.8125 39.5312 10.875C42.5938 10.9375 45.1562 11.6146 47.2188 12.9062C49.3021 14.1771 50.9375 15.875 52.125 18C53.3125 20.1042 54.0938 22.4583 54.4688 25.0625C54.8438 27.6458 54.8646 30.2708 54.5312 32.9375ZM46.5 35.5L46.8438 32.9062C47.0312 31.3438 47.1146 29.6771 47.0938 27.9062C47.0938 26.1146 46.8542 24.4271 46.375 22.8438C45.8958 21.2396 45.0833 19.9271 43.9375 18.9062C42.7917 17.8854 41.1875 17.3333 39.125 17.25C36.9583 17.1667 35.0833 17.5938 33.5 18.5312C31.9167 19.4479 30.5833 20.6875 29.5 22.25C28.4167 23.8125 27.5521 25.5312 26.9062 27.4062C26.2604 29.2812 25.8125 31.125 25.5625 32.9375L25.2188 35.5312C25.0312 37.0729 24.9479 38.7396 24.9688 40.5312C24.9896 42.3229 25.2396 44.0208 25.7188 45.625C26.1979 47.2292 27.0104 48.5625 28.1562 49.625C29.3021 50.6667 30.9062 51.2188 32.9688 51.2812C35.1354 51.3646 37.0104 50.9375 38.5938 50C40.1979 49.0625 41.5312 47.8125 42.5938 46.25C43.6771 44.6875 44.5312 42.9688 45.1562 41.0938C45.7812 39.2188 46.2292 37.3542 46.5 35.5Z" fill="#1A2A6C"/>
</svg>
