<svg width="272" height="258" viewBox="0 0 272 258" fill="none" xmlns="http://www.w3.org/2000/svg">
<path d="M0 90.3977C0 140.323 60.891 180.795 136.004 180.795C211.117 180.795 272.008 140.323 272.008 90.3977C272.008 40.4724 211.117 0 136.004 0C60.891 0 0 40.4724 0 90.3977Z" fill="#525C87"/>
<path d="M43.1629 229.252C43.1629 244.769 59.753 257.348 80.2178 257.348C100.683 257.348 117.273 244.769 117.273 229.252C117.273 213.735 100.683 201.155 80.2178 201.155C59.753 201.155 43.1629 213.735 43.1629 229.252Z" fill="#525C87"/>
<path d="M202.674 106.282C202.583 106.646 202.51 106.983 202.455 107.292C202.419 107.583 202.373 107.883 202.319 108.193C202.246 108.702 202.155 109.339 202.046 110.103C201.955 110.867 201.846 111.704 201.718 112.614C201.609 113.523 201.491 114.46 201.364 115.425C201.255 116.389 201.145 117.326 201.036 118.235C200.945 119.145 200.872 119.973 200.818 120.719C200.763 121.465 200.736 122.083 200.736 122.575C200.736 123.903 201.109 124.949 201.855 125.713C202.619 126.477 203.774 126.859 205.321 126.859C206.722 126.859 207.922 126.668 208.923 126.286C209.942 125.904 210.724 125.367 211.27 124.676C211.834 123.966 212.116 123.148 212.116 122.22C212.116 121.31 211.87 120.373 211.379 119.409C210.888 118.426 210.142 117.508 209.141 116.653L211.543 116.161C212.471 117.198 213.162 118.217 213.617 119.218C214.09 120.2 214.326 121.283 214.326 122.465C214.326 123.812 213.944 124.976 213.18 125.959C212.434 126.941 211.388 127.687 210.042 128.196C208.696 128.724 207.122 128.988 205.321 128.988C204.084 128.988 202.956 128.788 201.937 128.387C200.936 128.005 200.136 127.368 199.535 126.477C198.935 125.586 198.635 124.394 198.635 122.902C198.635 122.32 198.671 121.556 198.744 120.61C198.835 119.664 198.944 118.636 199.071 117.526C199.217 116.398 199.362 115.252 199.508 114.087C199.672 112.905 199.808 111.795 199.917 110.758C200.045 109.721 200.136 108.82 200.19 108.056C200.245 107.583 200.272 107.21 200.272 106.937C200.272 106.646 200.254 106.373 200.217 106.119L202.674 106.282ZM193.913 109.912C194.696 110.148 195.551 110.349 196.479 110.512C197.407 110.676 198.344 110.803 199.29 110.894C200.236 110.967 201.109 111.004 201.909 111.004C202.965 111.004 203.956 110.976 204.884 110.922C205.83 110.867 206.694 110.776 207.477 110.649L207.422 112.696C206.549 112.768 205.685 112.832 204.829 112.887C203.974 112.923 202.992 112.941 201.882 112.941C201.082 112.941 200.208 112.905 199.262 112.832C198.316 112.741 197.37 112.614 196.424 112.45C195.478 112.286 194.605 112.104 193.804 111.904L193.913 109.912ZM193.258 116.68C194.132 116.989 195.051 117.235 196.015 117.417C196.997 117.58 197.962 117.699 198.908 117.771C199.854 117.844 200.754 117.881 201.609 117.881C202.537 117.881 203.474 117.862 204.42 117.826C205.384 117.771 206.34 117.671 207.286 117.526L207.231 119.6C206.34 119.709 205.457 119.782 204.584 119.818C203.711 119.855 202.81 119.873 201.882 119.873C200.408 119.873 198.889 119.782 197.325 119.6C195.778 119.418 194.386 119.145 193.149 118.781L193.258 116.68Z" fill="white"/>
<path d="M175.247 106.446C175.192 106.683 175.138 106.946 175.083 107.237C175.029 107.51 174.974 107.783 174.92 108.056C174.865 108.384 174.783 108.829 174.674 109.393C174.583 109.957 174.483 110.558 174.374 111.195C174.265 111.813 174.137 112.404 173.992 112.968C173.81 113.751 173.582 114.633 173.309 115.616C173.036 116.58 172.727 117.608 172.382 118.699C172.036 119.791 171.645 120.91 171.208 122.056C170.771 123.184 170.289 124.312 169.762 125.44C169.234 126.55 168.661 127.596 168.042 128.578L165.805 127.705C166.441 126.868 167.024 125.931 167.551 124.894C168.097 123.857 168.597 122.784 169.052 121.674C169.507 120.546 169.916 119.436 170.28 118.345C170.662 117.253 170.981 116.243 171.235 115.315C171.49 114.388 171.69 113.587 171.836 112.914C172.09 111.822 172.3 110.694 172.463 109.53C172.627 108.347 172.709 107.228 172.709 106.173L175.247 106.446ZM184.635 109.339C185.071 109.903 185.526 110.603 185.999 111.44C186.491 112.277 186.964 113.169 187.418 114.115C187.891 115.061 188.319 115.97 188.701 116.844C189.083 117.717 189.392 118.472 189.629 119.109L187.5 120.118C187.3 119.427 187.027 118.636 186.682 117.744C186.336 116.835 185.936 115.916 185.481 114.988C185.044 114.042 184.58 113.159 184.089 112.341C183.616 111.504 183.134 110.803 182.643 110.239L184.635 109.339ZM165.423 112.423C165.841 112.459 166.241 112.477 166.623 112.477C167.005 112.459 167.415 112.441 167.851 112.423C168.27 112.404 168.797 112.377 169.434 112.341C170.071 112.286 170.762 112.232 171.508 112.177C172.272 112.122 173.018 112.068 173.746 112.013C174.492 111.94 175.174 111.886 175.793 111.85C176.43 111.795 176.93 111.768 177.294 111.768C178.112 111.768 178.849 111.895 179.504 112.15C180.177 112.404 180.714 112.868 181.114 113.542C181.515 114.215 181.715 115.161 181.715 116.38C181.715 117.453 181.66 118.617 181.551 119.873C181.46 121.11 181.296 122.293 181.06 123.421C180.823 124.549 180.514 125.485 180.132 126.231C179.713 127.159 179.168 127.769 178.495 128.06C177.821 128.369 177.039 128.524 176.148 128.524C175.638 128.524 175.083 128.478 174.483 128.387C173.882 128.315 173.364 128.224 172.927 128.114L172.573 125.849C172.973 125.959 173.373 126.059 173.773 126.15C174.192 126.241 174.592 126.304 174.974 126.341C175.356 126.377 175.675 126.395 175.929 126.395C176.42 126.395 176.866 126.313 177.266 126.15C177.685 125.968 178.031 125.586 178.303 125.003C178.595 124.385 178.831 123.612 179.013 122.684C179.213 121.738 179.359 120.737 179.45 119.682C179.559 118.627 179.613 117.617 179.613 116.653C179.613 115.798 179.495 115.17 179.259 114.77C179.022 114.351 178.686 114.069 178.249 113.924C177.812 113.76 177.303 113.678 176.721 113.678C176.248 113.678 175.62 113.714 174.838 113.787C174.055 113.842 173.218 113.914 172.327 114.005C171.454 114.096 170.635 114.187 169.871 114.278C169.107 114.351 168.515 114.415 168.097 114.469C167.788 114.506 167.387 114.56 166.896 114.633C166.423 114.688 166.005 114.742 165.641 114.797L165.423 112.423Z" fill="white"/>
<path d="M142.09 108.684C142.053 108.902 142.017 109.175 141.98 109.503C141.962 109.83 141.935 110.158 141.899 110.485C141.88 110.813 141.871 111.094 141.871 111.331C141.853 111.895 141.844 112.541 141.844 113.269C141.862 113.978 141.88 114.724 141.899 115.506C141.935 116.271 141.989 117.035 142.062 117.799C142.208 119.309 142.453 120.637 142.799 121.783C143.145 122.911 143.563 123.793 144.054 124.43C144.564 125.067 145.137 125.385 145.774 125.385C146.119 125.385 146.456 125.231 146.783 124.921C147.111 124.594 147.42 124.166 147.711 123.639C148.021 123.093 148.293 122.493 148.53 121.838C148.785 121.165 148.994 120.491 149.158 119.818L150.877 121.756C150.331 123.302 149.776 124.53 149.212 125.44C148.666 126.331 148.102 126.977 147.52 127.378C146.956 127.778 146.365 127.978 145.746 127.978C144.891 127.978 144.064 127.669 143.263 127.05C142.463 126.413 141.771 125.395 141.189 123.994C140.607 122.575 140.188 120.692 139.934 118.345C139.843 117.544 139.77 116.68 139.715 115.752C139.679 114.824 139.652 113.942 139.633 113.105C139.633 112.268 139.633 111.586 139.633 111.058C139.633 110.749 139.624 110.349 139.606 109.857C139.588 109.366 139.533 108.957 139.442 108.629L142.09 108.684ZM156.308 109.448C156.799 110.067 157.263 110.794 157.699 111.631C158.154 112.45 158.564 113.332 158.928 114.278C159.31 115.206 159.646 116.17 159.937 117.171C160.247 118.172 160.492 119.172 160.674 120.173C160.874 121.155 161.02 122.102 161.111 123.011L158.928 123.912C158.818 122.675 158.627 121.419 158.354 120.146C158.082 118.854 157.745 117.608 157.345 116.407C156.944 115.188 156.481 114.042 155.953 112.968C155.425 111.895 154.834 110.967 154.179 110.185L156.308 109.448Z" fill="white"/>
<path d="M111.361 110.512C111.87 110.585 112.407 110.64 112.971 110.676C113.535 110.694 114.108 110.703 114.69 110.703C115.691 110.703 116.719 110.658 117.774 110.567C118.847 110.476 119.93 110.33 121.022 110.13C122.113 109.912 123.187 109.63 124.242 109.284L124.296 111.331C123.405 111.568 122.422 111.786 121.349 111.986C120.294 112.186 119.193 112.35 118.047 112.477C116.919 112.586 115.8 112.641 114.69 112.641C114.199 112.641 113.671 112.641 113.107 112.641C112.562 112.623 112.025 112.595 111.497 112.559L111.361 110.512ZM121.022 106.064C120.912 106.501 120.776 107.056 120.612 107.729C120.448 108.402 120.267 109.111 120.066 109.857C119.884 110.585 119.684 111.276 119.466 111.931C119.029 113.241 118.475 114.624 117.801 116.079C117.128 117.517 116.41 118.918 115.645 120.282C114.881 121.647 114.126 122.838 113.38 123.857L111.279 122.766C111.879 122.056 112.48 121.246 113.08 120.337C113.699 119.427 114.272 118.472 114.799 117.471C115.345 116.471 115.836 115.488 116.273 114.524C116.71 113.56 117.074 112.677 117.365 111.877C117.656 111.004 117.929 110.021 118.183 108.929C118.438 107.82 118.584 106.792 118.62 105.846L121.022 106.064ZM127.462 114.497C127.444 115.061 127.426 115.57 127.407 116.025C127.407 116.462 127.417 116.935 127.435 117.444C127.453 117.881 127.471 118.445 127.489 119.136C127.526 119.809 127.562 120.528 127.599 121.292C127.635 122.038 127.662 122.756 127.68 123.448C127.717 124.139 127.735 124.712 127.735 125.167C127.735 125.895 127.571 126.559 127.244 127.159C126.916 127.76 126.398 128.233 125.688 128.578C124.997 128.942 124.087 129.124 122.959 129.124C121.959 129.124 121.049 128.979 120.23 128.688C119.411 128.415 118.747 127.987 118.238 127.405C117.747 126.823 117.501 126.086 117.501 125.194C117.501 124.339 117.738 123.612 118.211 123.011C118.702 122.393 119.357 121.92 120.176 121.592C121.012 121.265 121.94 121.101 122.959 121.101C124.487 121.101 125.888 121.319 127.162 121.756C128.454 122.174 129.609 122.711 130.628 123.366C131.665 124.021 132.556 124.667 133.302 125.304L132.129 127.159C131.601 126.686 131.01 126.195 130.355 125.686C129.718 125.176 129.008 124.712 128.226 124.294C127.444 123.857 126.607 123.502 125.715 123.229C124.824 122.957 123.878 122.82 122.877 122.82C121.877 122.82 121.067 123.029 120.448 123.448C119.83 123.866 119.521 124.385 119.521 125.003C119.521 125.64 119.784 126.159 120.312 126.559C120.84 126.959 121.631 127.159 122.686 127.159C123.45 127.159 124.051 127.041 124.487 126.804C124.924 126.55 125.233 126.222 125.415 125.822C125.615 125.404 125.715 124.949 125.715 124.458C125.715 123.948 125.697 123.284 125.661 122.465C125.643 121.647 125.606 120.773 125.552 119.846C125.515 118.899 125.47 117.963 125.415 117.035C125.379 116.089 125.352 115.243 125.333 114.497H127.462ZM132.92 115.233C132.429 114.797 131.81 114.342 131.064 113.869C130.318 113.396 129.545 112.95 128.745 112.532C127.962 112.095 127.271 111.74 126.671 111.467L127.79 109.803C128.281 110.021 128.827 110.285 129.427 110.594C130.027 110.903 130.628 111.231 131.228 111.577C131.828 111.922 132.383 112.259 132.893 112.586C133.42 112.896 133.839 113.178 134.148 113.432L132.92 115.233Z" fill="white"/>
<path d="M108.004 125.658C107.276 126.386 106.494 126.95 105.657 127.35C104.82 127.732 103.929 127.923 102.983 127.923C102.091 127.923 101.364 127.632 100.8 127.05C100.236 126.468 99.9536 125.613 99.9536 124.485C99.9536 123.721 100.008 122.893 100.117 122.001C100.226 121.11 100.345 120.2 100.472 119.272C100.599 118.326 100.718 117.435 100.827 116.598C100.936 115.743 100.991 114.979 100.991 114.306C100.991 113.523 100.8 112.959 100.418 112.614C100.035 112.25 99.4896 112.068 98.7801 112.068C98.1433 112.068 97.4338 112.259 96.6515 112.641C95.8692 113.005 95.0686 113.505 94.2499 114.142C93.4312 114.76 92.6307 115.461 91.8484 116.243C91.0661 117.007 90.3475 117.771 89.6925 118.536L89.7471 115.834C90.0928 115.47 90.5294 115.042 91.057 114.551C91.6028 114.06 92.2032 113.551 92.8582 113.023C93.5313 112.495 94.2409 112.004 94.9868 111.549C95.7327 111.094 96.4695 110.731 97.1973 110.458C97.9432 110.185 98.6527 110.048 99.3259 110.048C100.181 110.048 100.891 110.203 101.455 110.512C102.019 110.803 102.437 111.231 102.71 111.795C102.983 112.341 103.119 112.978 103.119 113.705C103.119 114.378 103.065 115.161 102.955 116.052C102.865 116.925 102.746 117.835 102.601 118.781C102.473 119.727 102.355 120.646 102.246 121.538C102.155 122.429 102.109 123.22 102.109 123.912C102.109 124.367 102.219 124.758 102.437 125.085C102.673 125.413 103.037 125.576 103.529 125.576C104.184 125.576 104.857 125.385 105.548 125.003C106.258 124.603 106.958 124.039 107.649 123.311L108.004 125.658ZM89.6652 112.614C89.4469 112.632 89.1103 112.677 88.6555 112.75C88.2188 112.805 87.7185 112.868 87.1545 112.941C86.5905 113.014 86.0174 113.096 85.4352 113.187C84.8531 113.26 84.3073 113.332 83.7978 113.405L83.5795 111.167C83.8706 111.185 84.1526 111.195 84.4255 111.195C84.7166 111.176 85.0259 111.158 85.3534 111.14C85.7354 111.122 86.1994 111.085 86.7452 111.031C87.3092 110.958 87.8913 110.885 88.4917 110.812C89.1103 110.722 89.6834 110.631 90.211 110.54C90.7568 110.43 91.1844 110.321 91.4937 110.212L92.2851 111.167C92.1213 111.386 91.9394 111.658 91.7393 111.986C91.5391 112.295 91.339 112.614 91.1389 112.941C90.9388 113.269 90.7659 113.56 90.6204 113.814L89.7744 117.526C89.4651 118.017 89.083 118.599 88.6282 119.272C88.1733 119.946 87.6912 120.655 87.1818 121.401C86.6906 122.129 86.1903 122.857 85.6809 123.584C85.1714 124.294 84.7075 124.949 84.2891 125.549L82.8973 123.666C83.2429 123.248 83.6432 122.738 84.098 122.138C84.5711 121.519 85.0623 120.855 85.5717 120.146C86.0993 119.436 86.6087 118.745 87.0999 118.072C87.6094 117.38 88.0551 116.744 88.4372 116.161C88.8374 115.579 89.1376 115.106 89.3377 114.742L89.4469 113.35L89.6652 112.614ZM89.4196 108.083C89.4196 107.774 89.4105 107.447 89.3923 107.101C89.3923 106.755 89.365 106.41 89.3104 106.064L91.8757 106.146C91.8029 106.51 91.712 107.083 91.6028 107.865C91.4936 108.629 91.3845 109.539 91.2753 110.594C91.1844 111.649 91.0843 112.759 90.9751 113.924C90.8842 115.088 90.8114 116.243 90.7568 117.389C90.7022 118.517 90.6749 119.564 90.6749 120.528C90.6749 121.346 90.6749 122.111 90.6749 122.82C90.6749 123.511 90.684 124.203 90.7022 124.894C90.7204 125.567 90.7477 126.304 90.7841 127.105C90.8023 127.341 90.8205 127.614 90.8387 127.923C90.8569 128.233 90.8842 128.515 90.9206 128.769H88.5463C88.5827 128.515 88.6009 128.233 88.6009 127.923C88.6191 127.632 88.6282 127.378 88.6282 127.159C88.6464 126.286 88.6555 125.513 88.6555 124.84C88.6555 124.166 88.6555 123.475 88.6555 122.766C88.6737 122.038 88.6919 121.174 88.7101 120.173C88.7101 119.773 88.7282 119.227 88.7646 118.536C88.801 117.826 88.8465 117.053 88.9011 116.216C88.9557 115.361 89.0102 114.497 89.0648 113.623C89.1194 112.75 89.174 111.931 89.2286 111.167C89.2831 110.385 89.3286 109.721 89.365 109.175C89.4014 108.629 89.4196 108.265 89.4196 108.083Z" fill="white"/>
<path d="M56.7807 110.512C57.2901 110.585 57.8268 110.64 58.3908 110.676C58.9548 110.694 59.5279 110.703 60.1101 110.703C61.1107 110.703 62.1386 110.658 63.1939 110.567C64.2673 110.476 65.3498 110.33 66.4414 110.13C67.533 109.912 68.6064 109.63 69.6616 109.284L69.7162 111.331C68.8247 111.568 67.8423 111.786 66.7689 111.986C65.7136 112.186 64.6129 112.35 63.4668 112.477C62.3388 112.586 61.2199 112.641 60.1101 112.641C59.6189 112.641 59.0912 112.641 58.5272 112.641C57.9814 112.623 57.4447 112.595 56.9171 112.559L56.7807 110.512ZM66.4414 106.064C66.3322 106.501 66.1958 107.056 66.032 107.729C65.8683 108.402 65.6863 109.111 65.4862 109.857C65.3043 110.585 65.1042 111.276 64.8858 111.931C64.4492 113.241 63.8943 114.624 63.2211 116.079C62.548 117.517 61.8293 118.918 61.0652 120.282C60.3011 121.647 59.5461 122.838 58.8001 123.857L56.6988 122.766C57.2992 122.056 57.8996 121.246 58.5 120.337C59.1185 119.427 59.6916 118.472 60.2192 117.471C60.765 116.471 61.2563 115.488 61.6929 114.524C62.1295 113.56 62.4934 112.677 62.7845 111.877C63.0756 111.004 63.3485 110.021 63.6032 108.929C63.8579 107.82 64.0035 106.792 64.0398 105.846L66.4414 106.064ZM72.8818 114.497C72.8636 115.061 72.8455 115.57 72.8273 116.025C72.8273 116.462 72.8364 116.935 72.8546 117.444C72.8727 117.881 72.8909 118.445 72.9091 119.136C72.9455 119.809 72.9819 120.528 73.0183 121.292C73.0547 122.038 73.082 122.756 73.1002 123.448C73.1366 124.139 73.1547 124.712 73.1547 125.167C73.1547 125.895 72.991 126.559 72.6635 127.159C72.336 127.76 71.8175 128.233 71.108 128.578C70.4166 128.942 69.507 129.124 68.379 129.124C67.3783 129.124 66.4687 128.979 65.65 128.688C64.8313 128.415 64.1672 127.987 63.6578 127.405C63.1666 126.823 62.921 126.086 62.921 125.194C62.921 124.339 63.1575 123.612 63.6305 123.011C64.1217 122.393 64.7767 121.92 65.5954 121.592C66.4323 121.265 67.3601 121.101 68.379 121.101C69.9072 121.101 71.3081 121.319 72.5816 121.756C73.8734 122.174 75.0287 122.711 76.0475 123.366C77.0845 124.021 77.976 124.667 78.7219 125.304L77.5484 127.159C77.0208 126.686 76.4296 126.195 75.7746 125.686C75.1378 125.176 74.4283 124.712 73.646 124.294C72.8636 123.857 72.0267 123.502 71.1353 123.229C70.2438 122.957 69.2977 122.82 68.2971 122.82C67.2965 122.82 66.4869 123.029 65.8683 123.448C65.2497 123.866 64.9404 124.385 64.9404 125.003C64.9404 125.64 65.2042 126.159 65.7318 126.559C66.2594 126.959 67.0509 127.159 68.1061 127.159C68.8702 127.159 69.4706 127.041 69.9072 126.804C70.3439 126.55 70.6532 126.222 70.8351 125.822C71.0352 125.404 71.1353 124.949 71.1353 124.458C71.1353 123.948 71.1171 123.284 71.0807 122.465C71.0625 121.647 71.0261 120.773 70.9715 119.846C70.9351 118.899 70.8897 117.963 70.8351 117.035C70.7987 116.089 70.7714 115.243 70.7532 114.497H72.8818ZM78.3399 115.233C77.8486 114.797 77.2301 114.342 76.4841 113.869C75.7382 113.396 74.965 112.95 74.1645 112.532C73.3822 112.095 72.6908 111.74 72.0904 111.467L73.2093 109.803C73.7005 110.021 74.2463 110.285 74.8467 110.594C75.4471 110.903 76.0475 111.231 76.6479 111.577C77.2483 111.922 77.8032 112.259 78.3126 112.586C78.8402 112.896 79.2586 113.178 79.5679 113.432L78.3399 115.233Z" fill="white"/>
<path d="M230.318 71.4086C231.064 71.5178 231.929 71.6087 232.911 71.6815C233.912 71.7361 234.94 71.7634 235.995 71.7634C237.068 71.7452 238.087 71.7088 239.051 71.6542C240.034 71.5815 240.862 71.4905 241.535 71.3813V73.5918C240.807 73.6646 239.952 73.7283 238.969 73.7829C238.005 73.8192 236.995 73.8374 235.94 73.8374C234.903 73.8374 233.893 73.8192 232.911 73.7829C231.929 73.7283 231.064 73.6646 230.318 73.5918V71.4086ZM231.383 82.5157C231.255 83.0069 231.155 83.4527 231.083 83.8529C231.01 84.2532 230.973 84.6443 230.973 85.0264C230.973 85.3357 231.037 85.645 231.164 85.9542C231.31 86.2453 231.546 86.5091 231.874 86.7457C232.22 86.964 232.693 87.1459 233.293 87.2915C233.893 87.4188 234.658 87.4825 235.585 87.4825C236.823 87.4825 237.987 87.4279 239.079 87.3187C240.17 87.1914 241.262 87.0095 242.353 86.7729L242.408 89.0653C241.553 89.2472 240.552 89.3928 239.406 89.502C238.278 89.5929 237.005 89.6384 235.585 89.6384C233.293 89.6384 231.61 89.2745 230.537 88.5468C229.482 87.8191 228.954 86.8184 228.954 85.5449C228.954 85.0901 228.99 84.6079 229.063 84.0985C229.154 83.5709 229.272 82.9796 229.418 82.3247L231.383 82.5157ZM225.106 69.3073C225.07 69.4528 225.015 69.6439 224.942 69.8804C224.888 70.0987 224.824 70.3261 224.751 70.5626C224.697 70.7809 224.651 70.972 224.615 71.1357C224.524 71.6451 224.415 72.2364 224.287 72.9096C224.16 73.5645 224.033 74.2741 223.905 75.0382C223.796 75.7841 223.687 76.5483 223.578 77.3306C223.487 78.0947 223.405 78.8406 223.332 79.5684C223.278 80.2961 223.25 80.9693 223.25 81.5878C223.25 82.261 223.268 82.8978 223.305 83.4981C223.359 84.0985 223.423 84.7353 223.496 85.4084C223.66 84.99 223.832 84.5443 224.014 84.0712C224.196 83.5982 224.378 83.1343 224.56 82.6794C224.76 82.2064 224.933 81.7879 225.079 81.4241L226.225 82.2974C225.988 82.9523 225.734 83.671 225.461 84.4533C225.188 85.2356 224.942 85.9906 224.724 86.7184C224.524 87.4279 224.378 87.9919 224.287 88.4104C224.251 88.6105 224.215 88.8288 224.178 89.0653C224.142 89.3018 224.133 89.4929 224.151 89.6384C224.169 89.784 224.178 89.9386 224.178 90.1023C224.196 90.2843 224.215 90.448 224.233 90.5936L222.268 90.73C221.995 89.7658 221.758 88.5286 221.558 87.0186C221.358 85.4903 221.258 83.8074 221.258 81.9699C221.258 80.9692 221.304 79.9504 221.395 78.9134C221.486 77.8582 221.604 76.8393 221.749 75.8569C221.895 74.8563 222.031 73.9466 222.159 73.1279C222.304 72.291 222.413 71.5906 222.486 71.0266C222.541 70.6991 222.586 70.3716 222.623 70.0441C222.659 69.6984 222.677 69.3801 222.677 69.089L225.106 69.3073Z" fill="white"/>
<path d="M215.991 71.3813C215.882 71.5087 215.755 71.6633 215.609 71.8453C215.482 72.0272 215.363 72.2 215.254 72.3638C214.909 72.9823 214.39 73.7465 213.699 74.6561C213.026 75.5476 212.243 76.4664 211.352 77.4124C210.46 78.3403 209.496 79.1681 208.459 79.8958L206.658 78.4495C207.295 78.0856 207.913 77.6489 208.514 77.1395C209.132 76.6119 209.705 76.0661 210.233 75.5021C210.779 74.9199 211.252 74.3559 211.652 73.8101C212.07 73.2461 212.398 72.7549 212.634 72.3365C212.343 72.3365 211.87 72.3365 211.215 72.3365C210.579 72.3365 209.814 72.3365 208.923 72.3365C208.05 72.3365 207.113 72.3365 206.112 72.3365C205.111 72.3365 204.12 72.3365 203.137 72.3365C202.155 72.3365 201.236 72.3365 200.381 72.3365C199.526 72.3365 198.807 72.3365 198.225 72.3365C197.643 72.3365 197.261 72.3365 197.079 72.3365C196.57 72.3365 196.06 72.3547 195.551 72.3911C195.041 72.4092 194.514 72.4456 193.968 72.5002V70.0168C194.441 70.0896 194.95 70.1533 195.496 70.2078C196.042 70.2442 196.57 70.2624 197.079 70.2624C197.261 70.2624 197.652 70.2624 198.253 70.2624C198.853 70.2624 199.581 70.2624 200.436 70.2624C201.309 70.2624 202.255 70.2624 203.274 70.2624C204.293 70.2624 205.303 70.2624 206.303 70.2624C207.322 70.2624 208.277 70.2624 209.169 70.2624C210.06 70.2624 210.815 70.2624 211.434 70.2624C212.07 70.2624 212.507 70.2624 212.744 70.2624C212.926 70.2624 213.135 70.2624 213.371 70.2624C213.626 70.2442 213.872 70.2169 214.108 70.1806C214.345 70.1442 214.527 70.1169 214.654 70.0987L215.991 71.3813ZM205.102 74.9836C205.102 76.4573 205.057 77.84 204.966 79.1317C204.875 80.4234 204.693 81.6333 204.42 82.7613C204.147 83.8893 203.729 84.9354 203.165 85.8997C202.619 86.8457 201.882 87.7372 200.954 88.5741C200.026 89.3928 198.871 90.1478 197.488 90.8392L195.469 89.2018C195.851 89.0744 196.26 88.9107 196.697 88.7105C197.134 88.4922 197.543 88.2466 197.925 87.9737C198.998 87.3369 199.854 86.6183 200.49 85.8178C201.127 85.0173 201.6 84.1531 201.909 83.2252C202.237 82.2792 202.455 81.2876 202.564 80.2506C202.692 79.1954 202.755 78.1038 202.755 76.9758C202.755 76.6301 202.746 76.3026 202.728 75.9934C202.728 75.6841 202.701 75.3475 202.646 74.9836H205.102Z" fill="white"/>
<path d="M168.152 72.0636C168.588 72.1 169.034 72.1273 169.489 72.1454C169.944 72.1636 170.398 72.1727 170.853 72.1727C171.144 72.1727 171.599 72.1727 172.218 72.1727C172.836 72.1727 173.537 72.1727 174.319 72.1727C175.12 72.1727 175.947 72.1727 176.803 72.1727C177.676 72.1727 178.504 72.1727 179.286 72.1727C180.068 72.1727 180.741 72.1727 181.305 72.1727C181.888 72.1727 182.297 72.1727 182.533 72.1727C183.025 72.1727 183.498 72.1636 183.953 72.1454C184.426 72.1273 184.853 72.1 185.235 72.0636V74.5197C184.853 74.4833 184.416 74.4651 183.925 74.4651C183.452 74.4469 182.988 74.4378 182.533 74.4378C182.315 74.4378 181.906 74.4378 181.305 74.4378C180.723 74.4378 180.023 74.4378 179.204 74.4378C178.404 74.4378 177.558 74.4378 176.666 74.4378C175.793 74.4378 174.956 74.4378 174.155 74.4378C173.355 74.4378 172.654 74.4378 172.054 74.4378C171.472 74.4378 171.072 74.4378 170.853 74.4378C170.38 74.4378 169.916 74.4469 169.462 74.4651C169.007 74.4833 168.57 74.5015 168.152 74.5197V72.0636ZM165.805 85.5722C166.278 85.5904 166.751 85.6177 167.224 85.6541C167.697 85.6904 168.179 85.7086 168.67 85.7086C168.888 85.7086 169.316 85.7086 169.953 85.7086C170.608 85.7086 171.39 85.7086 172.3 85.7086C173.228 85.7086 174.219 85.7086 175.274 85.7086C176.33 85.7086 177.376 85.7086 178.413 85.7086C179.468 85.7086 180.45 85.7086 181.36 85.7086C182.288 85.7086 183.07 85.7086 183.707 85.7086C184.362 85.7086 184.799 85.7086 185.017 85.7086C185.435 85.7086 185.854 85.6995 186.272 85.6813C186.691 85.645 187.1 85.6086 187.5 85.5722V88.192C187.1 88.1556 186.672 88.1283 186.218 88.1102C185.781 88.0738 185.381 88.0556 185.017 88.0556C184.799 88.0556 184.362 88.0556 183.707 88.0556C183.07 88.0556 182.288 88.0556 181.36 88.0556C180.45 88.0556 179.468 88.0556 178.413 88.0556C177.376 88.0556 176.33 88.0556 175.274 88.0556C174.219 88.0556 173.228 88.0556 172.3 88.0556C171.39 88.0556 170.608 88.0556 169.953 88.0556C169.316 88.0556 168.888 88.0556 168.67 88.0556C168.179 88.0556 167.688 88.0738 167.196 88.1102C166.723 88.1283 166.259 88.1556 165.805 88.192V85.5722Z" fill="white"/>
<path d="M155.544 69.471C155.78 69.7803 156.053 70.1897 156.362 70.6991C156.69 71.2085 157.008 71.727 157.317 72.2546C157.627 72.7822 157.881 73.2643 158.082 73.701L156.526 74.4105C156.308 73.9375 156.062 73.4554 155.789 72.9641C155.516 72.4547 155.234 71.9544 154.943 71.4632C154.652 70.972 154.352 70.5171 154.043 70.0987L155.544 69.471ZM159.119 68.1611C159.373 68.4704 159.655 68.8706 159.965 69.3619C160.274 69.8531 160.592 70.3625 160.92 70.8901C161.247 71.4177 161.52 71.8998 161.738 72.3365L160.183 73.046C159.946 72.5548 159.683 72.0636 159.391 71.5724C159.1 71.0811 158.8 70.599 158.491 70.126C158.2 69.653 157.9 69.2163 157.59 68.8161L159.119 68.1611ZM143.891 69.0617C144.291 69.28 144.764 69.5711 145.31 69.935C145.856 70.2806 146.42 70.6445 147.002 71.0266C147.584 71.3904 148.121 71.7452 148.612 72.0909C149.121 72.4184 149.522 72.6913 149.813 72.9096L148.53 74.7926C148.203 74.5379 147.784 74.2377 147.275 73.892C146.783 73.5463 146.256 73.1916 145.692 72.8277C145.146 72.4456 144.6 72.0909 144.054 71.7634C143.527 71.4177 143.063 71.1266 142.663 70.8901L143.891 69.0617ZM139.797 88.5741C140.798 88.3922 141.826 88.1556 142.881 87.8646C143.936 87.5735 144.982 87.2187 146.019 86.8002C147.056 86.3818 148.03 85.9179 148.939 85.4084C150.449 84.5352 151.85 83.5709 153.142 82.5157C154.434 81.4423 155.598 80.3052 156.635 79.1044C157.672 77.9037 158.555 76.6665 159.282 75.393L160.592 77.6581C159.41 79.4774 157.909 81.2422 156.089 82.9523C154.27 84.6443 152.269 86.1271 150.086 87.4006C149.176 87.9282 148.175 88.4195 147.084 88.8743C146.01 89.3109 144.946 89.693 143.891 90.0205C142.854 90.3661 141.908 90.6209 141.053 90.7846L139.797 88.5741ZM139.77 75.2019C140.17 75.4203 140.652 75.6932 141.216 76.0207C141.78 76.3481 142.353 76.6938 142.936 77.0577C143.518 77.4215 144.054 77.7672 144.546 78.0947C145.055 78.404 145.455 78.6678 145.746 78.8861L144.518 80.7964C144.173 80.5417 143.745 80.2506 143.236 79.9231C142.744 79.5956 142.217 79.25 141.653 78.8861C141.089 78.5222 140.534 78.1857 139.988 77.8764C139.442 77.5489 138.96 77.276 138.542 77.0577L139.77 75.2019Z" fill="white"/>
<path d="M114.909 69.8258C115.4 70.1533 115.964 70.5626 116.601 71.0538C117.237 71.5269 117.883 72.0363 118.538 72.5821C119.211 73.1097 119.839 73.6282 120.421 74.1376C121.003 74.647 121.485 75.0928 121.868 75.4748L120.148 77.1941C119.803 76.8484 119.357 76.4209 118.811 75.9115C118.265 75.4021 117.665 74.8745 117.01 74.3287C116.355 73.7647 115.709 73.2371 115.072 72.7458C114.435 72.2364 113.862 71.818 113.353 71.4905L114.909 69.8258ZM112.562 88.1102C114.163 87.8736 115.618 87.5462 116.928 87.1277C118.256 86.7093 119.466 86.2362 120.558 85.7086C121.649 85.181 122.623 84.6534 123.478 84.1258C124.879 83.2525 126.17 82.2519 127.353 81.1239C128.535 79.9777 129.572 78.7951 130.464 77.5762C131.355 76.3572 132.065 75.1928 132.593 74.083L133.902 76.4027C133.284 77.5307 132.52 78.6769 131.61 79.8413C130.7 81.0056 129.672 82.1245 128.526 83.1979C127.38 84.2714 126.116 85.2447 124.733 86.118C123.823 86.682 122.823 87.2369 121.731 87.7827C120.658 88.3285 119.475 88.8288 118.183 89.2836C116.91 89.7203 115.518 90.0751 114.008 90.3479L112.562 88.1102Z" fill="white"/>
<path d="M85.3806 71.5724C85.7445 71.6269 86.1448 71.6724 86.5814 71.7088C87.0362 71.727 87.4001 71.7361 87.673 71.7361H102.683C103.101 71.7361 103.51 71.7179 103.911 71.6815C104.311 71.6451 104.675 71.6087 105.002 71.5724V73.9739C104.657 73.9375 104.274 73.9102 103.856 73.892C103.456 73.8738 103.065 73.8647 102.683 73.8647H87.673C87.4183 73.8647 87.0544 73.8738 86.5814 73.892C86.1266 73.9102 85.7263 73.9375 85.3806 73.9739V71.5724ZM93.8133 87.5917V72.9369H96.1329V87.5917H93.8133ZM83.7159 86.2544C84.1162 86.309 84.5164 86.3545 84.9167 86.3909C85.3351 86.4091 85.7354 86.4182 86.1175 86.4182H104.156C104.575 86.4182 104.966 86.4 105.33 86.3636C105.712 86.3272 106.076 86.2908 106.421 86.2544V88.7378C106.057 88.7015 105.657 88.6742 105.221 88.656C104.784 88.6378 104.429 88.6287 104.156 88.6287H86.1175C85.7536 88.6287 85.3624 88.6378 84.944 88.656C84.5437 88.6742 84.1344 88.7015 83.7159 88.7378V86.2544Z" fill="white"/>
<path d="M59.5096 68.3248H77.139V75.3657H59.5096V73.5918H75.0923V70.0987H59.5096V68.3248ZM58.3088 68.3248H60.3283V74.8472C60.3283 76.0297 60.2828 77.3306 60.1919 78.7497C60.1009 80.1506 59.919 81.5969 59.6461 83.0888C59.3914 84.5625 59.0184 86.0088 58.5272 87.4279C58.0359 88.8288 57.3719 90.1205 56.535 91.3031C56.444 91.1576 56.2894 91.0029 56.0711 90.8392C55.8709 90.6754 55.6617 90.5117 55.4434 90.348C55.2251 90.2024 55.0431 90.0842 54.8976 89.9932C55.6617 88.9016 56.2712 87.7099 56.726 86.4182C57.1809 85.1083 57.5174 83.7801 57.7358 82.4338C57.9723 81.0693 58.1269 79.7412 58.1997 78.4495C58.2725 77.1577 58.3088 75.957 58.3088 74.8472V68.3248ZM59.5369 77.7126H77.6848V79.5411H59.5369V77.7126ZM63.6304 81.697H72.9636V88.7651H63.6304V87.0731H71.0533V83.389H63.6304V81.697ZM62.5388 81.697H64.4491V90.348H62.5388V81.697ZM77.0026 77.7126H79.0493C79.0493 77.7126 79.0493 77.7763 79.0493 77.9037C79.0493 78.0128 79.0493 78.1402 79.0493 78.2857C79.0493 78.4313 79.0402 78.5586 79.022 78.6678C78.9311 80.76 78.8401 82.543 78.7491 84.0167C78.6582 85.4721 78.5581 86.682 78.449 87.6462C78.3398 88.5923 78.2124 89.3291 78.0669 89.8567C77.9213 90.4025 77.7394 90.8028 77.5211 91.0575C77.2664 91.3668 76.9935 91.576 76.7024 91.6852C76.4113 91.7943 76.0565 91.8762 75.6381 91.9308C75.256 91.9672 74.7375 91.9854 74.0825 91.9854C73.4276 91.9854 72.7271 91.9581 71.9812 91.9035C71.963 91.6306 71.8993 91.3122 71.7902 90.9483C71.6992 90.5845 71.5718 90.2661 71.4081 89.9932C72.1358 90.0478 72.7999 90.0842 73.4003 90.1023C74.0189 90.1205 74.4555 90.1296 74.7102 90.1296C74.9649 90.1296 75.165 90.1023 75.3106 90.0478C75.4561 90.0114 75.5926 89.9204 75.7199 89.7749C75.9383 89.5384 76.1202 89.0198 76.2657 88.2193C76.4295 87.4188 76.5659 86.209 76.6751 84.5897C76.8024 82.9523 76.9116 80.7873 77.0026 78.0947V77.7126Z" fill="white"/>
<path d="M44.4728 66.9057H46.5469V77.6035H44.4728V66.9057ZM40.9251 88.7651H50.6677V90.6208H40.9251V88.7651ZM38.1415 70.7809H53.0692V72.6367H38.1415V70.7809ZM39.0148 76.7302H52.4415V78.6405H39.0148V76.7302ZM39.8881 81.5878H51.6774V91.9035H49.7125V83.4436H41.7984V91.9854H39.8881V81.5878ZM32.165 66.9057L33.9934 67.6153C33.666 68.2702 33.3021 68.9616 32.9018 69.6893C32.5016 70.4171 32.1104 71.1175 31.7284 71.7907C31.3463 72.4456 30.9733 73.0278 30.6095 73.5372L29.1904 72.9096C29.5361 72.382 29.8908 71.7725 30.2547 71.0811C30.6186 70.3716 30.9733 69.653 31.319 68.9252C31.6647 68.1793 31.9467 67.5061 32.165 66.9057ZM35.4671 70.0168L37.2682 70.7809C36.6315 71.818 35.9219 72.9096 35.1396 74.0558C34.3755 75.1837 33.6023 76.2844 32.82 77.3579C32.0376 78.4313 31.3008 79.3591 30.6095 80.1414L29.2995 79.4592C29.8271 78.8406 30.3729 78.1402 30.9369 77.3579C31.5009 76.5755 32.0558 75.7568 32.6016 74.9017C33.1656 74.0467 33.6932 73.2007 34.1845 72.3638C34.6757 71.5269 35.1032 70.7446 35.4671 70.0168ZM27.8805 72.664L28.8902 71.2995C29.3996 71.7179 29.9181 72.1818 30.4457 72.6912C30.9733 73.2007 31.4555 73.7101 31.8921 74.2195C32.3287 74.7107 32.6653 75.1565 32.9018 75.5567L31.8102 77.1395C31.5555 76.7029 31.2098 76.2208 30.7732 75.6932C30.3548 75.1656 29.8908 74.6379 29.3814 74.1103C28.872 73.5827 28.3717 73.1006 27.8805 72.664ZM34.5938 76.3481L36.1221 75.6932C36.5223 76.2935 36.9044 76.9303 37.2682 77.6035C37.6321 78.2766 37.9505 78.9316 38.2234 79.5684C38.5145 80.2051 38.7237 80.7782 38.8511 81.2876L37.241 82.0518C37.0954 81.5423 36.8862 80.9602 36.6133 80.3052C36.3404 79.6502 36.0311 78.9771 35.6854 78.2857C35.3397 77.5944 34.9759 76.9485 34.5938 76.3481ZM27.8259 79.1044C29.0448 79.068 30.4912 79.0226 32.165 78.968C33.857 78.8952 35.5945 78.8133 37.3774 78.7224L37.3501 80.4143C35.6581 80.5235 33.9934 80.6327 32.356 80.7418C30.7186 80.8328 29.2631 80.9056 27.9896 80.9602L27.8259 79.1044ZM35.3034 82.8978L36.8316 82.3792C37.2319 83.2161 37.6048 84.1258 37.9505 85.1082C38.3144 86.0907 38.5691 86.9367 38.7146 87.6462L37.0226 88.2193C36.8953 87.4916 36.6679 86.6365 36.3404 85.6541C36.0129 84.6534 35.6672 83.7346 35.3034 82.8978ZM29.3268 82.5157L31.0734 82.8159C30.8915 84.1076 30.6367 85.3811 30.3093 86.6365C29.9818 87.8736 29.5997 88.9289 29.1631 89.8021C29.0357 89.7112 28.872 89.6202 28.6719 89.5292C28.4899 89.4383 28.2898 89.3473 28.0715 89.2563C27.8714 89.1472 27.6894 89.0653 27.5257 89.0107C27.9987 88.1738 28.3717 87.1823 28.6446 86.0361C28.9357 84.8717 29.1631 83.6983 29.3268 82.5157ZM32.4652 79.8958H34.3209V92.0672H32.4652V79.8958Z" fill="white"/>
</svg>
