<svg width="879" height="162" viewBox="0 0 879 162" fill="none" xmlns="http://www.w3.org/2000/svg">
<path d="M50 0H858L810 162H0L50 0Z" fill="url(#paint0_linear_61_44)"/>
<path d="M856.66 1L809.253 161H1.35449L50.7373 1H856.66Z" stroke="#8F91ED" stroke-opacity="0.9" stroke-width="2"/>
<path d="M855.295 1.20217L874.862 46.015L841.442 48.0971L855.295 1.20217Z" fill="#D9D9D9"/>
<g filter="url(#filter0_i_61_44)">
<path d="M241.944 43.612C241.944 44.188 242.148 44.68 242.556 45.088C242.964 45.472 243.444 45.664 243.996 45.664C244.572 45.664 245.064 45.472 245.472 45.088C245.88 44.68 246.084 44.188 246.084 43.612C246.084 43.036 245.88 42.544 245.472 42.136C245.064 41.728 244.572 41.524 243.996 41.524C243.444 41.524 242.964 41.728 242.556 42.136C242.148 42.544 241.944 43.036 241.944 43.612ZM239.712 43.612C239.712 42.82 239.904 42.1 240.288 41.452C240.696 40.78 241.224 40.252 241.872 39.868C242.52 39.484 243.228 39.292 243.996 39.292C244.788 39.292 245.508 39.484 246.156 39.868C246.828 40.252 247.356 40.78 247.74 41.452C248.124 42.1 248.316 42.82 248.316 43.612C248.316 44.38 248.124 45.088 247.74 45.736C247.356 46.384 246.828 46.912 246.156 47.32C245.508 47.704 244.788 47.896 243.996 47.896C243.228 47.896 242.52 47.704 241.872 47.32C241.224 46.912 240.696 46.384 240.288 45.736C239.904 45.088 239.712 44.38 239.712 43.612ZM244.068 46.456C243.9 46.792 243.756 47.2 243.636 47.68C243.516 48.136 243.396 48.556 243.276 48.94C243.084 49.828 242.832 50.824 242.52 51.928C242.208 53.008 241.836 54.136 241.404 55.312C240.972 56.488 240.456 57.652 239.856 58.804C239.28 59.956 238.62 61.036 237.876 62.044C236.796 63.484 235.536 64.828 234.096 66.076C232.656 67.324 231.048 68.452 229.272 69.46C227.496 70.468 225.54 71.32 223.404 72.016L219.48 67.696C221.88 67.12 223.944 66.412 225.672 65.572C227.4 64.732 228.9 63.772 230.172 62.692C231.468 61.612 232.608 60.46 233.592 59.236C234.384 58.228 235.056 57.136 235.608 55.96C236.184 54.784 236.652 53.608 237.012 52.432C237.396 51.232 237.66 50.116 237.804 49.084C237.444 49.084 236.844 49.084 236.004 49.084C235.188 49.084 234.216 49.084 233.088 49.084C231.984 49.084 230.82 49.084 229.596 49.084C228.396 49.084 227.232 49.084 226.104 49.084C224.976 49.084 223.956 49.084 223.044 49.084C222.156 49.084 221.496 49.084 221.064 49.084C220.224 49.084 219.408 49.096 218.616 49.12C217.848 49.144 217.236 49.18 216.78 49.228V44.152C217.14 44.2 217.572 44.248 218.076 44.296C218.604 44.344 219.132 44.38 219.66 44.404C220.212 44.428 220.68 44.44 221.064 44.44C221.448 44.44 221.988 44.44 222.684 44.44C223.404 44.44 224.232 44.44 225.168 44.44C226.104 44.44 227.076 44.44 228.084 44.44C229.116 44.44 230.136 44.44 231.144 44.44C232.176 44.44 233.136 44.44 234.024 44.44C234.912 44.44 235.68 44.44 236.328 44.44C236.976 44.44 237.444 44.44 237.732 44.44C238.092 44.44 238.524 44.428 239.028 44.404C239.556 44.38 240.06 44.296 240.54 44.152L244.068 46.456ZM253.536 44.476C254.28 44.5 254.976 44.524 255.624 44.548C256.296 44.548 256.872 44.548 257.352 44.548C257.736 44.548 258.324 44.548 259.116 44.548C259.932 44.548 260.88 44.548 261.96 44.548C263.04 44.548 264.192 44.548 265.416 44.548C266.64 44.548 267.864 44.548 269.088 44.548C270.336 44.548 271.5 44.548 272.58 44.548C273.66 44.548 274.596 44.548 275.388 44.548C276.204 44.548 276.792 44.548 277.152 44.548C277.608 44.548 278.148 44.548 278.772 44.548C279.42 44.524 280.068 44.5 280.716 44.476C280.692 45.028 280.668 45.616 280.644 46.24C280.644 46.84 280.644 47.416 280.644 47.968C280.644 48.304 280.644 48.832 280.644 49.552C280.644 50.248 280.644 51.088 280.644 52.072C280.644 53.032 280.644 54.064 280.644 55.168C280.644 56.248 280.644 57.34 280.644 58.444C280.644 59.548 280.644 60.592 280.644 61.576C280.644 62.536 280.644 63.376 280.644 64.096C280.644 64.792 280.644 65.296 280.644 65.608C280.644 65.968 280.644 66.424 280.644 66.976C280.668 67.504 280.68 68.044 280.68 68.596C280.68 69.124 280.68 69.592 280.68 70C280.704 70.384 280.716 70.588 280.716 70.612H275.748C275.748 70.564 275.748 70.276 275.748 69.748C275.772 69.196 275.784 68.548 275.784 67.804C275.808 67.06 275.82 66.364 275.82 65.716C275.82 65.404 275.82 64.876 275.82 64.132C275.82 63.388 275.82 62.512 275.82 61.504C275.82 60.496 275.82 59.428 275.82 58.3C275.82 57.172 275.82 56.068 275.82 54.988C275.82 53.908 275.82 52.924 275.82 52.036C275.82 51.148 275.82 50.44 275.82 49.912C275.82 49.384 275.82 49.12 275.82 49.12H258.432C258.432 49.12 258.432 49.384 258.432 49.912C258.432 50.44 258.432 51.148 258.432 52.036C258.432 52.9 258.432 53.884 258.432 54.988C258.432 56.068 258.432 57.172 258.432 58.3C258.432 59.404 258.432 60.472 258.432 61.504C258.432 62.512 258.432 63.388 258.432 64.132C258.432 64.876 258.432 65.404 258.432 65.716C258.432 66.148 258.432 66.64 258.432 67.192C258.432 67.72 258.432 68.236 258.432 68.74C258.456 69.244 258.468 69.664 258.468 70C258.468 70.36 258.468 70.564 258.468 70.612H253.5C253.5 70.564 253.5 70.36 253.5 70C253.524 69.64 253.536 69.196 253.536 68.668C253.56 68.14 253.572 67.6 253.572 67.048C253.596 66.496 253.608 66.004 253.608 65.572C253.608 65.26 253.608 64.756 253.608 64.06C253.608 63.34 253.608 62.488 253.608 61.504C253.608 60.52 253.608 59.488 253.608 58.408C253.608 57.304 253.608 56.2 253.608 55.096C253.608 53.992 253.608 52.96 253.608 52C253.608 51.016 253.608 50.176 253.608 49.48C253.608 48.784 253.608 48.28 253.608 47.968C253.608 47.464 253.608 46.888 253.608 46.24C253.608 45.568 253.584 44.98 253.536 44.476ZM277.62 64.06V68.668H255.984V64.06H277.62ZM313.044 40.516C313.356 40.948 313.68 41.464 314.016 42.064C314.376 42.664 314.724 43.264 315.06 43.864C315.396 44.464 315.672 44.992 315.888 45.448L313.008 46.672C312.648 45.928 312.204 45.088 311.676 44.152C311.172 43.192 310.68 42.364 310.2 41.668L313.044 40.516ZM317.292 38.896C317.604 39.328 317.94 39.856 318.3 40.48C318.684 41.08 319.044 41.68 319.38 42.28C319.74 42.856 320.016 43.36 320.208 43.792L317.364 45.016C316.98 44.248 316.524 43.396 315.996 42.46C315.468 41.524 314.952 40.72 314.448 40.048L317.292 38.896ZM316.284 48.436C316.068 48.772 315.852 49.18 315.636 49.66C315.42 50.116 315.24 50.572 315.096 51.028C314.784 52.084 314.34 53.296 313.764 54.664C313.188 56.008 312.492 57.4 311.676 58.84C310.86 60.28 309.9 61.684 308.796 63.052C307.092 65.116 305.088 66.988 302.784 68.668C300.504 70.348 297.672 71.86 294.288 73.204L290.04 69.388C292.488 68.644 294.6 67.816 296.376 66.904C298.152 65.968 299.7 64.96 301.02 63.88C302.34 62.8 303.516 61.66 304.548 60.46C305.364 59.524 306.12 58.468 306.816 57.292C307.536 56.116 308.136 54.94 308.616 53.764C309.12 52.588 309.468 51.556 309.66 50.668H297.528L299.184 46.6C299.496 46.6 300.012 46.6 300.732 46.6C301.452 46.6 302.256 46.6 303.144 46.6C304.032 46.6 304.908 46.6 305.772 46.6C306.66 46.6 307.44 46.6 308.112 46.6C308.784 46.6 309.228 46.6 309.444 46.6C310.02 46.6 310.584 46.564 311.136 46.492C311.712 46.396 312.192 46.288 312.576 46.168L316.284 48.436ZM304.548 42.748C304.116 43.372 303.696 44.044 303.288 44.764C302.88 45.484 302.568 46.036 302.352 46.42C301.536 47.86 300.528 49.36 299.328 50.92C298.128 52.456 296.772 53.956 295.26 55.42C293.772 56.86 292.164 58.18 290.436 59.38L286.404 56.356C287.988 55.396 289.38 54.4 290.58 53.368C291.78 52.336 292.824 51.316 293.712 50.308C294.6 49.276 295.368 48.292 296.016 47.356C296.664 46.396 297.204 45.532 297.636 44.764C297.924 44.332 298.224 43.756 298.536 43.036C298.872 42.292 299.112 41.62 299.256 41.02L304.548 42.748ZM329.028 42.388C329.532 42.46 330.132 42.508 330.828 42.532C331.524 42.556 332.172 42.568 332.772 42.568C333.228 42.568 333.924 42.568 334.86 42.568C335.82 42.568 336.876 42.568 338.028 42.568C339.204 42.568 340.368 42.568 341.52 42.568C342.672 42.568 343.704 42.568 344.616 42.568C345.528 42.568 346.2 42.568 346.632 42.568C347.184 42.568 347.844 42.556 348.612 42.532C349.38 42.508 350.016 42.46 350.52 42.388V47.032C350.04 46.984 349.416 46.96 348.648 46.96C347.904 46.936 347.208 46.924 346.56 46.924C346.176 46.924 345.516 46.924 344.58 46.924C343.668 46.924 342.624 46.924 341.448 46.924C340.296 46.924 339.132 46.924 337.956 46.924C336.804 46.924 335.76 46.924 334.824 46.924C333.888 46.924 333.204 46.924 332.772 46.924C332.196 46.924 331.56 46.936 330.864 46.96C330.192 46.984 329.58 47.008 329.028 47.032V42.388ZM353.544 52.828C353.424 53.068 353.292 53.332 353.148 53.62C353.028 53.908 352.932 54.148 352.86 54.34C352.308 56.068 351.612 57.796 350.772 59.524C349.956 61.228 348.876 62.824 347.532 64.312C345.732 66.328 343.716 67.972 341.484 69.244C339.252 70.492 336.984 71.44 334.68 72.088L331.116 68.02C333.828 67.444 336.24 66.604 338.352 65.5C340.464 64.396 342.204 63.136 343.572 61.72C344.532 60.736 345.3 59.704 345.876 58.624C346.476 57.52 346.944 56.476 347.28 55.492C347.016 55.492 346.56 55.492 345.912 55.492C345.264 55.492 344.484 55.492 343.572 55.492C342.684 55.492 341.724 55.492 340.692 55.492C339.66 55.492 338.604 55.492 337.524 55.492C336.444 55.492 335.412 55.492 334.428 55.492C333.444 55.492 332.556 55.492 331.764 55.492C330.996 55.492 330.372 55.492 329.892 55.492C329.46 55.492 328.848 55.504 328.056 55.528C327.264 55.552 326.484 55.6 325.716 55.672V50.992C326.484 51.04 327.228 51.088 327.948 51.136C328.692 51.184 329.34 51.208 329.892 51.208C330.252 51.208 330.792 51.208 331.512 51.208C332.256 51.208 333.108 51.208 334.068 51.208C335.028 51.208 336.048 51.208 337.128 51.208C338.232 51.208 339.324 51.208 340.404 51.208C341.508 51.208 342.552 51.208 343.536 51.208C344.52 51.208 345.372 51.208 346.092 51.208C346.812 51.208 347.352 51.208 347.712 51.208C348.288 51.208 348.804 51.172 349.26 51.1C349.74 51.028 350.1 50.944 350.34 50.848L353.544 52.828ZM367.26 41.812C368.196 41.932 369.324 42.112 370.644 42.352C371.988 42.568 373.404 42.82 374.892 43.108C376.404 43.396 377.904 43.72 379.392 44.08C380.904 44.416 382.296 44.752 383.568 45.088C384.864 45.424 385.968 45.748 386.88 46.06L385.044 50.56C384.204 50.248 383.16 49.924 381.912 49.588C380.664 49.228 379.308 48.868 377.844 48.508C376.38 48.148 374.904 47.812 373.416 47.5C371.928 47.188 370.5 46.9 369.132 46.636C367.788 46.372 366.6 46.18 365.568 46.06L367.26 41.812ZM365.604 51.496C366.9 51.712 368.388 51.988 370.068 52.324C371.748 52.66 373.476 53.032 375.252 53.44C377.028 53.824 378.72 54.232 380.328 54.664C381.936 55.072 383.304 55.48 384.432 55.888L382.668 60.388C381.636 59.98 380.328 59.56 378.744 59.128C377.184 58.696 375.516 58.264 373.74 57.832C371.988 57.4 370.248 57.016 368.52 56.68C366.792 56.32 365.268 56.044 363.948 55.852L365.604 51.496ZM363.768 61.792C364.992 61.984 366.384 62.236 367.944 62.548C369.504 62.86 371.124 63.208 372.804 63.592C374.508 63.976 376.176 64.372 377.808 64.78C379.44 65.188 380.952 65.596 382.344 66.004C383.76 66.412 384.96 66.808 385.944 67.192L383.964 71.692C383.004 71.284 381.816 70.864 380.4 70.432C378.984 70.024 377.448 69.616 375.792 69.208C374.136 68.776 372.468 68.38 370.788 68.02C369.108 67.636 367.5 67.3 365.964 67.012C364.452 66.724 363.12 66.496 361.968 66.328L363.768 61.792ZM401.676 42.64C402.3 43.072 403.032 43.6 403.872 44.224C404.712 44.848 405.576 45.532 406.464 46.276C407.376 46.996 408.228 47.704 409.02 48.4C409.812 49.096 410.46 49.72 410.964 50.272L407.292 54.016C406.836 53.512 406.236 52.912 405.492 52.216C404.748 51.52 403.944 50.8 403.08 50.056C402.216 49.312 401.364 48.604 400.524 47.932C399.684 47.26 398.94 46.696 398.292 46.24L401.676 42.64ZM397.176 66.616C399.048 66.352 400.812 65.98 402.468 65.5C404.124 65.02 405.66 64.468 407.076 63.844C408.492 63.22 409.788 62.572 410.964 61.9C413.004 60.676 414.876 59.284 416.58 57.724C418.284 56.164 419.772 54.544 421.044 52.864C422.316 51.16 423.324 49.504 424.068 47.896L426.876 52.972C425.964 54.58 424.836 56.188 423.492 57.796C422.172 59.404 420.672 60.94 418.992 62.404C417.312 63.844 415.5 65.14 413.556 66.292C412.332 67.036 411.012 67.744 409.596 68.416C408.18 69.064 406.68 69.64 405.096 70.144C403.536 70.672 401.904 71.08 400.2 71.368L397.176 66.616ZM457.044 40.516C457.356 40.948 457.68 41.464 458.016 42.064C458.376 42.664 458.724 43.264 459.06 43.864C459.396 44.464 459.672 44.992 459.888 45.448L457.008 46.672C456.648 45.928 456.204 45.088 455.676 44.152C455.172 43.192 454.68 42.364 454.2 41.668L457.044 40.516ZM461.292 38.896C461.604 39.328 461.94 39.856 462.3 40.48C462.684 41.08 463.044 41.68 463.38 42.28C463.74 42.856 464.016 43.36 464.208 43.792L461.364 45.016C460.98 44.248 460.524 43.396 459.996 42.46C459.468 41.524 458.952 40.72 458.448 40.048L461.292 38.896ZM460.284 48.436C460.068 48.772 459.852 49.18 459.636 49.66C459.42 50.116 459.24 50.572 459.096 51.028C458.784 52.084 458.34 53.296 457.764 54.664C457.188 56.008 456.492 57.4 455.676 58.84C454.86 60.28 453.9 61.684 452.796 63.052C451.092 65.116 449.088 66.988 446.784 68.668C444.504 70.348 441.672 71.86 438.288 73.204L434.04 69.388C436.488 68.644 438.6 67.816 440.376 66.904C442.152 65.968 443.7 64.96 445.02 63.88C446.34 62.8 447.516 61.66 448.548 60.46C449.364 59.524 450.12 58.468 450.816 57.292C451.536 56.116 452.136 54.94 452.616 53.764C453.12 52.588 453.468 51.556 453.66 50.668H441.528L443.184 46.6C443.496 46.6 444.012 46.6 444.732 46.6C445.452 46.6 446.256 46.6 447.144 46.6C448.032 46.6 448.908 46.6 449.772 46.6C450.66 46.6 451.44 46.6 452.112 46.6C452.784 46.6 453.228 46.6 453.444 46.6C454.02 46.6 454.584 46.564 455.136 46.492C455.712 46.396 456.192 46.288 456.576 46.168L460.284 48.436ZM448.548 42.748C448.116 43.372 447.696 44.044 447.288 44.764C446.88 45.484 446.568 46.036 446.352 46.42C445.536 47.86 444.528 49.36 443.328 50.92C442.128 52.456 440.772 53.956 439.26 55.42C437.772 56.86 436.164 58.18 434.436 59.38L430.404 56.356C431.988 55.396 433.38 54.4 434.58 53.368C435.78 52.336 436.824 51.316 437.712 50.308C438.6 49.276 439.368 48.292 440.016 47.356C440.664 46.396 441.204 45.532 441.636 44.764C441.924 44.332 442.224 43.756 442.536 43.036C442.872 42.292 443.112 41.62 443.256 41.02L448.548 42.748ZM495.024 45.592C494.88 45.808 494.664 46.144 494.376 46.6C494.112 47.056 493.908 47.476 493.764 47.86C493.26 48.988 492.636 50.248 491.892 51.64C491.172 53.032 490.344 54.436 489.408 55.852C488.496 57.244 487.524 58.552 486.492 59.776C485.148 61.288 483.66 62.788 482.028 64.276C480.42 65.74 478.716 67.096 476.916 68.344C475.14 69.568 473.316 70.624 471.444 71.512L467.736 67.624C469.68 66.88 471.564 65.944 473.388 64.816C475.212 63.688 476.904 62.464 478.464 61.144C480.024 59.824 481.368 58.54 482.496 57.292C483.288 56.38 484.032 55.408 484.728 54.376C485.448 53.344 486.084 52.324 486.636 51.316C487.188 50.284 487.596 49.336 487.86 48.472C487.62 48.472 487.188 48.472 486.564 48.472C485.94 48.472 485.208 48.472 484.368 48.472C483.552 48.472 482.688 48.472 481.776 48.472C480.864 48.472 479.988 48.472 479.148 48.472C478.332 48.472 477.612 48.472 476.988 48.472C476.364 48.472 475.92 48.472 475.656 48.472C475.152 48.472 474.624 48.496 474.072 48.544C473.52 48.568 472.992 48.604 472.488 48.652C472.008 48.676 471.636 48.7 471.372 48.724V43.612C471.732 43.636 472.176 43.672 472.704 43.72C473.232 43.768 473.76 43.804 474.288 43.828C474.84 43.852 475.296 43.864 475.656 43.864C475.968 43.864 476.46 43.864 477.132 43.864C477.804 43.864 478.572 43.864 479.436 43.864C480.3 43.864 481.188 43.864 482.1 43.864C483.036 43.864 483.924 43.864 484.764 43.864C485.628 43.864 486.372 43.864 486.996 43.864C487.62 43.864 488.076 43.864 488.364 43.864C489.156 43.864 489.876 43.816 490.524 43.72C491.196 43.624 491.712 43.516 492.072 43.396L495.024 45.592ZM486.96 56.788C487.896 57.532 488.892 58.396 489.948 59.38C491.004 60.364 492.048 61.384 493.08 62.44C494.112 63.496 495.06 64.516 495.924 65.5C496.812 66.46 497.556 67.3 498.156 68.02L494.052 71.584C493.164 70.36 492.144 69.088 490.992 67.768C489.864 66.448 488.664 65.14 487.392 63.844C486.144 62.524 484.872 61.276 483.576 60.1L486.96 56.788ZM533.364 47.608C533.172 47.944 532.968 48.352 532.752 48.832C532.536 49.288 532.344 49.744 532.176 50.2C531.864 51.256 531.42 52.468 530.844 53.836C530.292 55.18 529.596 56.584 528.756 58.048C527.94 59.488 526.992 60.88 525.912 62.224C524.184 64.288 522.168 66.16 519.864 67.84C517.584 69.52 514.752 71.032 511.368 72.376L507.12 68.56C509.568 67.84 511.68 67.012 513.456 66.076C515.232 65.14 516.78 64.144 518.1 63.088C519.42 62.008 520.596 60.868 521.628 59.668C522.468 58.732 523.236 57.676 523.932 56.5C524.628 55.3 525.228 54.112 525.732 52.936C526.236 51.76 526.572 50.728 526.74 49.84H514.608L516.264 45.772C516.6 45.772 517.116 45.772 517.812 45.772C518.532 45.772 519.336 45.772 520.224 45.772C521.136 45.772 522.024 45.772 522.888 45.772C523.776 45.772 524.544 45.772 525.192 45.772C525.864 45.772 526.32 45.772 526.56 45.772C527.112 45.772 527.664 45.736 528.216 45.664C528.792 45.592 529.284 45.484 529.692 45.34L533.364 47.608ZM521.628 41.92C521.196 42.544 520.776 43.216 520.368 43.936C519.96 44.656 519.648 45.208 519.432 45.592C518.616 47.032 517.608 48.532 516.408 50.092C515.232 51.628 513.888 53.128 512.376 54.592C510.864 56.032 509.256 57.352 507.552 58.552L503.484 55.564C505.068 54.58 506.46 53.572 507.66 52.54C508.884 51.508 509.94 50.488 510.828 49.48C511.716 48.448 512.472 47.464 513.096 46.528C513.744 45.568 514.296 44.716 514.752 43.972C515.04 43.516 515.34 42.928 515.652 42.208C515.964 41.464 516.204 40.792 516.372 40.192L521.628 41.92ZM540.312 53.332C540.744 53.356 541.296 53.392 541.968 53.44C542.64 53.464 543.336 53.488 544.056 53.512C544.8 53.536 545.484 53.548 546.108 53.548C546.708 53.548 547.452 53.548 548.34 53.548C549.228 53.548 550.188 53.548 551.22 53.548C552.276 53.548 553.356 53.548 554.46 53.548C555.588 53.548 556.704 53.548 557.808 53.548C558.912 53.548 559.956 53.548 560.94 53.548C561.924 53.548 562.8 53.548 563.568 53.548C564.36 53.548 564.984 53.548 565.44 53.548C566.28 53.548 567.072 53.524 567.816 53.476C568.56 53.404 569.172 53.356 569.652 53.332V58.984C569.244 58.96 568.632 58.924 567.816 58.876C567 58.828 566.208 58.804 565.44 58.804C564.984 58.804 564.36 58.804 563.568 58.804C562.776 58.804 561.888 58.804 560.904 58.804C559.92 58.804 558.876 58.804 557.772 58.804C556.692 58.804 555.588 58.804 554.46 58.804C553.332 58.804 552.24 58.804 551.184 58.804C550.152 58.804 549.192 58.804 548.304 58.804C547.44 58.804 546.708 58.804 546.108 58.804C545.076 58.804 544.02 58.828 542.94 58.876C541.86 58.9 540.984 58.936 540.312 58.984V53.332ZM591.108 69.208C591.18 68.848 591.24 68.44 591.288 67.984C591.36 67.504 591.396 67.024 591.396 66.544C591.396 66.28 591.396 65.752 591.396 64.96C591.396 64.168 591.396 63.208 591.396 62.08C591.396 60.952 591.396 59.74 591.396 58.444C591.396 57.124 591.396 55.792 591.396 54.448C591.396 53.104 591.396 51.844 591.396 50.668C591.396 49.468 591.396 48.424 591.396 47.536C591.396 46.624 591.396 45.964 591.396 45.556C591.396 44.74 591.348 44.032 591.252 43.432C591.18 42.832 591.132 42.508 591.108 42.46H596.472C596.448 42.508 596.4 42.844 596.328 43.468C596.256 44.068 596.22 44.776 596.22 45.592C596.22 46 596.22 46.612 596.22 47.428C596.22 48.22 596.22 49.144 596.22 50.2C596.22 51.232 596.22 52.336 596.22 53.512C596.22 54.688 596.22 55.852 596.22 57.004C596.22 58.132 596.22 59.212 596.22 60.244C596.22 61.252 596.22 62.116 596.22 62.836C596.22 63.556 596.22 64.084 596.22 64.42C597.204 63.988 598.224 63.4 599.28 62.656C600.336 61.912 601.368 61.048 602.376 60.064C603.408 59.056 604.32 57.976 605.112 56.824L607.884 60.784C606.9 62.08 605.7 63.352 604.284 64.6C602.892 65.848 601.452 66.988 599.964 68.02C598.476 69.052 597.048 69.916 595.68 70.612C595.296 70.828 594.984 71.02 594.744 71.188C594.504 71.38 594.3 71.548 594.132 71.692L591.108 69.208ZM574.44 68.668C576.024 67.564 577.32 66.232 578.328 64.672C579.336 63.112 580.08 61.576 580.56 60.064C580.824 59.272 581.016 58.3 581.136 57.148C581.28 55.972 581.388 54.724 581.46 53.404C581.532 52.06 581.568 50.74 581.568 49.444C581.592 48.124 581.604 46.912 581.604 45.808C581.604 45.088 581.568 44.476 581.496 43.972C581.448 43.444 581.376 42.952 581.28 42.496H586.572C586.548 42.544 586.512 42.748 586.464 43.108C586.44 43.444 586.404 43.852 586.356 44.332C586.332 44.788 586.32 45.268 586.32 45.772C586.32 46.828 586.308 48.064 586.284 49.48C586.26 50.872 586.212 52.3 586.14 53.764C586.068 55.228 585.96 56.62 585.816 57.94C585.672 59.236 585.48 60.34 585.24 61.252C584.688 63.292 583.86 65.188 582.756 66.94C581.676 68.668 580.368 70.216 578.832 71.584L574.44 68.668ZM625.128 44.836C626.232 44.98 627.468 45.088 628.836 45.16C630.228 45.208 631.632 45.232 633.048 45.232C634.488 45.208 635.868 45.16 637.188 45.088C638.508 44.992 639.648 44.896 640.608 44.8V49.444C639.504 49.54 638.292 49.624 636.972 49.696C635.652 49.744 634.296 49.768 632.904 49.768C631.512 49.768 630.144 49.744 628.8 49.696C627.48 49.624 626.256 49.54 625.128 49.444V44.836ZM628.008 60.208C627.864 60.808 627.756 61.348 627.684 61.828C627.612 62.284 627.576 62.752 627.576 63.232C627.576 63.616 627.672 63.976 627.864 64.312C628.056 64.624 628.344 64.9 628.728 65.14C629.136 65.356 629.652 65.524 630.276 65.644C630.924 65.74 631.704 65.788 632.616 65.788C634.224 65.788 635.736 65.716 637.152 65.572C638.568 65.404 640.068 65.164 641.652 64.852L641.724 69.712C640.572 69.928 639.24 70.096 637.728 70.216C636.24 70.336 634.476 70.396 632.436 70.396C629.34 70.396 627.036 69.88 625.524 68.848C624.012 67.792 623.256 66.34 623.256 64.492C623.256 63.796 623.304 63.076 623.4 62.332C623.52 61.564 623.676 60.724 623.868 59.812L628.008 60.208ZM619.584 42.424C619.488 42.664 619.38 43 619.26 43.432C619.14 43.864 619.02 44.284 618.9 44.692C618.804 45.1 618.732 45.412 618.684 45.628C618.612 46.132 618.492 46.792 618.324 47.608C618.18 48.4 618.024 49.3 617.856 50.308C617.712 51.292 617.568 52.3 617.424 53.332C617.28 54.364 617.16 55.36 617.064 56.32C616.992 57.28 616.956 58.12 616.956 58.84C616.956 59.176 616.956 59.56 616.956 59.992C616.98 60.424 617.028 60.82 617.1 61.18C617.268 60.772 617.448 60.364 617.64 59.956C617.832 59.548 618.024 59.14 618.216 58.732C618.408 58.3 618.576 57.892 618.72 57.508L620.952 59.272C620.616 60.256 620.268 61.312 619.908 62.44C619.572 63.568 619.26 64.636 618.972 65.644C618.708 66.628 618.504 67.444 618.36 68.092C618.312 68.356 618.264 68.656 618.216 68.992C618.192 69.328 618.18 69.592 618.18 69.784C618.18 69.976 618.18 70.204 618.18 70.468C618.204 70.756 618.228 71.02 618.252 71.26L614.076 71.548C613.716 70.3 613.392 68.644 613.104 66.58C612.816 64.492 612.672 62.224 612.672 59.776C612.672 58.432 612.732 57.064 612.852 55.672C612.972 54.28 613.116 52.948 613.284 51.676C613.452 50.38 613.608 49.204 613.752 48.148C613.92 47.092 614.064 46.216 614.184 45.52C614.232 45.016 614.292 44.452 614.364 43.828C614.46 43.18 614.52 42.568 614.544 41.992L619.584 42.424ZM132.641 93.828C133.961 93.972 135.449 94.08 137.105 94.152C138.761 94.224 140.537 94.26 142.433 94.26C143.609 94.26 144.821 94.236 146.069 94.188C147.341 94.14 148.565 94.08 149.741 94.008C150.917 93.936 151.961 93.852 152.873 93.756V98.544C152.033 98.616 151.013 98.688 149.813 98.76C148.637 98.832 147.401 98.892 146.105 98.94C144.833 98.964 143.621 98.976 142.469 98.976C140.597 98.976 138.857 98.94 137.249 98.868C135.641 98.796 134.105 98.7 132.641 98.58V93.828ZM135.665 109.092C135.497 109.716 135.353 110.328 135.233 110.928C135.113 111.528 135.053 112.128 135.053 112.728C135.053 113.88 135.629 114.828 136.781 115.572C137.957 116.316 139.841 116.688 142.433 116.688C144.065 116.688 145.637 116.628 147.149 116.508C148.661 116.388 150.089 116.22 151.433 116.004C152.801 115.788 154.013 115.536 155.069 115.248L155.105 120.324C154.049 120.564 152.873 120.768 151.577 120.936C150.281 121.128 148.877 121.272 147.365 121.368C145.877 121.488 144.293 121.548 142.613 121.548C139.877 121.548 137.585 121.248 135.737 120.648C133.889 120.048 132.509 119.184 131.597 118.056C130.685 116.904 130.229 115.5 130.229 113.844C130.229 112.788 130.313 111.828 130.481 110.964C130.649 110.1 130.805 109.332 130.949 108.66L135.665 109.092ZM181.565 93.252C181.397 93.492 181.205 93.768 180.989 94.08C180.797 94.368 180.605 94.656 180.413 94.944C179.981 95.592 179.501 96.348 178.973 97.212C178.469 98.052 177.941 98.952 177.389 99.912C176.837 100.848 176.297 101.784 175.769 102.72C175.265 103.656 174.785 104.52 174.329 105.312C175.001 104.928 175.685 104.652 176.381 104.484C177.077 104.316 177.773 104.232 178.469 104.232C179.813 104.232 180.869 104.64 181.637 105.456C182.429 106.248 182.861 107.4 182.933 108.912C182.957 109.44 182.969 110.076 182.969 110.82C182.969 111.564 182.969 112.308 182.969 113.052C182.993 113.796 183.029 114.42 183.077 114.924C183.149 115.62 183.401 116.124 183.833 116.436C184.289 116.724 184.817 116.868 185.417 116.868C186.185 116.868 186.881 116.64 187.505 116.184C188.153 115.728 188.729 115.104 189.233 114.312C189.737 113.496 190.169 112.584 190.529 111.576C190.913 110.544 191.237 109.476 191.501 108.372L195.389 111.54C194.765 113.58 193.973 115.38 193.013 116.94C192.053 118.476 190.877 119.664 189.485 120.504C188.117 121.368 186.509 121.8 184.661 121.8C183.341 121.8 182.237 121.56 181.349 121.08C180.461 120.624 179.801 120.024 179.369 119.28C178.937 118.512 178.697 117.684 178.649 116.796C178.601 116.148 178.565 115.428 178.541 114.636C178.541 113.844 178.529 113.076 178.505 112.332C178.505 111.564 178.481 110.94 178.433 110.46C178.385 109.836 178.181 109.344 177.821 108.984C177.461 108.624 176.957 108.444 176.309 108.444C175.517 108.444 174.761 108.696 174.041 109.2C173.321 109.704 172.661 110.364 172.061 111.18C171.485 111.996 170.981 112.896 170.549 113.88C170.309 114.408 170.057 115.032 169.793 115.752C169.529 116.472 169.277 117.216 169.037 117.984C168.797 118.752 168.569 119.472 168.353 120.144C168.137 120.84 167.957 121.428 167.813 121.908L162.737 120.18C163.193 118.98 163.745 117.612 164.393 116.076C165.065 114.516 165.797 112.884 166.589 111.18C167.381 109.476 168.185 107.784 169.001 106.104C169.817 104.424 170.597 102.84 171.341 101.352C172.085 99.84 172.745 98.532 173.321 97.428C173.921 96.3 174.377 95.448 174.689 94.872C174.929 94.392 175.205 93.852 175.517 93.252C175.829 92.652 176.141 91.968 176.453 91.2L181.565 93.252ZM199.781 96.42C200.549 96.516 201.365 96.588 202.229 96.636C203.117 96.66 203.897 96.672 204.569 96.672C206.057 96.672 207.557 96.588 209.069 96.42C210.605 96.252 212.081 96.036 213.497 95.772C214.913 95.484 216.197 95.16 217.349 94.8L217.493 98.976C216.461 99.24 215.225 99.516 213.785 99.804C212.369 100.068 210.869 100.296 209.285 100.488C207.701 100.656 206.141 100.74 204.605 100.74C203.885 100.74 203.153 100.728 202.409 100.704C201.665 100.68 200.897 100.644 200.105 100.596L199.781 96.42ZM213.785 91.02C213.641 91.62 213.449 92.4 213.209 93.36C212.969 94.32 212.693 95.328 212.381 96.384C212.093 97.44 211.781 98.484 211.445 99.516C210.917 101.244 210.221 103.08 209.357 105.024C208.493 106.968 207.557 108.864 206.549 110.712C205.541 112.56 204.521 114.204 203.489 115.644L199.133 113.412C199.949 112.404 200.753 111.288 201.545 110.064C202.337 108.84 203.081 107.58 203.777 106.284C204.473 104.988 205.097 103.74 205.649 102.54C206.225 101.316 206.681 100.212 207.017 99.228C207.473 97.956 207.869 96.54 208.205 94.98C208.565 93.396 208.769 91.908 208.817 90.516L213.785 91.02ZM222.209 102.216C222.161 102.984 222.137 103.752 222.137 104.52C222.161 105.264 222.185 106.032 222.209 106.824C222.233 107.376 222.257 108.084 222.281 108.948C222.329 109.788 222.377 110.688 222.425 111.648C222.473 112.584 222.509 113.484 222.533 114.348C222.581 115.188 222.605 115.86 222.605 116.364C222.605 117.468 222.377 118.476 221.921 119.388C221.465 120.276 220.733 120.984 219.725 121.512C218.741 122.04 217.385 122.304 215.657 122.304C214.169 122.304 212.825 122.076 211.625 121.62C210.425 121.188 209.465 120.54 208.745 119.676C208.025 118.788 207.665 117.684 207.665 116.364C207.665 115.188 207.977 114.132 208.601 113.196C209.225 112.236 210.125 111.492 211.301 110.964C212.501 110.412 213.941 110.136 215.621 110.136C217.733 110.136 219.677 110.436 221.453 111.036C223.229 111.612 224.825 112.356 226.241 113.268C227.657 114.18 228.869 115.092 229.877 116.004L227.465 119.856C226.817 119.28 226.073 118.632 225.233 117.912C224.417 117.192 223.493 116.52 222.461 115.896C221.453 115.272 220.349 114.756 219.149 114.348C217.973 113.94 216.701 113.736 215.333 113.736C214.301 113.736 213.473 113.94 212.849 114.348C212.225 114.756 211.913 115.284 211.913 115.932C211.913 116.604 212.177 117.144 212.705 117.552C213.257 117.96 214.025 118.164 215.009 118.164C215.825 118.164 216.473 118.032 216.953 117.768C217.433 117.48 217.769 117.084 217.961 116.58C218.153 116.052 218.249 115.464 218.249 114.816C218.249 114.264 218.225 113.484 218.177 112.476C218.129 111.468 218.069 110.352 217.997 109.128C217.949 107.904 217.901 106.68 217.853 105.456C217.805 104.232 217.757 103.152 217.709 102.216H222.209ZM228.401 104.124C227.705 103.548 226.841 102.936 225.809 102.288C224.777 101.64 223.709 101.028 222.605 100.452C221.525 99.852 220.577 99.372 219.761 99.012L222.065 95.448C222.713 95.736 223.445 96.096 224.261 96.528C225.101 96.936 225.941 97.368 226.781 97.824C227.645 98.28 228.437 98.736 229.157 99.192C229.901 99.624 230.501 100.008 230.957 100.344L228.401 104.124ZM235.025 105.996C238.265 105.156 241.193 104.184 243.809 103.08C246.449 101.952 248.765 100.776 250.757 99.552C252.005 98.784 253.253 97.908 254.501 96.924C255.773 95.916 256.961 94.884 258.065 93.828C259.193 92.772 260.141 91.764 260.909 90.804L264.797 94.512C263.693 95.592 262.481 96.684 261.161 97.788C259.865 98.892 258.509 99.948 257.093 100.956C255.677 101.964 254.273 102.888 252.881 103.728C251.513 104.52 249.977 105.336 248.273 106.176C246.593 107.016 244.817 107.808 242.945 108.552C241.073 109.296 239.189 109.956 237.293 110.532L235.025 105.996ZM250.001 101.856L255.113 100.668V116.868C255.113 117.396 255.125 117.972 255.149 118.596C255.173 119.22 255.209 119.796 255.257 120.324C255.305 120.876 255.365 121.296 255.437 121.584H249.749C249.797 121.296 249.833 120.876 249.857 120.324C249.905 119.796 249.941 119.22 249.965 118.596C249.989 117.972 250.001 117.396 250.001 116.868V101.856ZM299.141 93.54C298.901 93.948 298.637 94.488 298.349 95.16C298.061 95.808 297.821 96.348 297.629 96.78C297.197 97.98 296.657 99.288 296.009 100.704C295.361 102.096 294.629 103.5 293.813 104.916C292.997 106.332 292.097 107.688 291.113 108.984C290.009 110.448 288.749 111.924 287.333 113.412C285.941 114.876 284.345 116.316 282.545 117.732C280.745 119.148 278.681 120.504 276.353 121.8L272.321 118.164C275.609 116.58 278.441 114.792 280.817 112.8C283.193 110.784 285.317 108.528 287.189 106.032C288.653 104.184 289.817 102.336 290.681 100.488C291.569 98.616 292.313 96.78 292.913 94.98C293.105 94.5 293.273 93.948 293.417 93.324C293.585 92.676 293.705 92.124 293.777 91.668L299.141 93.54ZM279.341 97.032C280.253 97.584 281.213 98.208 282.221 98.904C283.253 99.576 284.285 100.272 285.317 100.992C286.373 101.712 287.369 102.42 288.305 103.116C289.265 103.812 290.129 104.448 290.897 105.024C292.817 106.536 294.689 108.108 296.513 109.74C298.337 111.372 299.981 112.968 301.445 114.528L297.737 118.632C296.153 116.808 294.545 115.128 292.913 113.592C291.281 112.032 289.517 110.46 287.621 108.876C286.973 108.324 286.229 107.724 285.389 107.076C284.549 106.428 283.637 105.744 282.653 105.024C281.693 104.304 280.673 103.584 279.593 102.864C278.513 102.12 277.409 101.4 276.281 100.704L279.341 97.032ZM308.105 103.332C308.537 103.356 309.089 103.392 309.761 103.44C310.433 103.464 311.129 103.488 311.849 103.512C312.593 103.536 313.277 103.548 313.901 103.548C314.501 103.548 315.245 103.548 316.133 103.548C317.021 103.548 317.981 103.548 319.013 103.548C320.069 103.548 321.149 103.548 322.253 103.548C323.381 103.548 324.497 103.548 325.601 103.548C326.705 103.548 327.749 103.548 328.733 103.548C329.717 103.548 330.593 103.548 331.361 103.548C332.153 103.548 332.777 103.548 333.233 103.548C334.073 103.548 334.865 103.524 335.609 103.476C336.353 103.404 336.965 103.356 337.445 103.332V108.984C337.037 108.96 336.425 108.924 335.609 108.876C334.793 108.828 334.001 108.804 333.233 108.804C332.777 108.804 332.153 108.804 331.361 108.804C330.569 108.804 329.681 108.804 328.697 108.804C327.713 108.804 326.669 108.804 325.565 108.804C324.485 108.804 323.381 108.804 322.253 108.804C321.125 108.804 320.033 108.804 318.977 108.804C317.945 108.804 316.985 108.804 316.097 108.804C315.233 108.804 314.501 108.804 313.901 108.804C312.869 108.804 311.813 108.828 310.733 108.876C309.653 108.9 308.777 108.936 308.105 108.984V103.332ZM366.37 92.352C366.706 92.856 367.066 93.444 367.45 94.116C367.858 94.764 368.254 95.424 368.638 96.096C369.022 96.744 369.358 97.356 369.646 97.932L366.514 99.264C366.154 98.496 365.818 97.812 365.506 97.212C365.194 96.588 364.858 95.988 364.498 95.412C364.162 94.812 363.778 94.212 363.346 93.612L366.37 92.352ZM371.302 90.624C371.686 91.08 372.082 91.632 372.49 92.28C372.898 92.928 373.294 93.576 373.678 94.224C374.062 94.872 374.398 95.46 374.686 95.988L371.626 97.356C371.242 96.612 370.87 95.94 370.51 95.34C370.174 94.74 369.826 94.164 369.466 93.612C369.106 93.06 368.698 92.484 368.242 91.884L371.302 90.624ZM350.71 91.668C351.31 91.98 351.982 92.364 352.726 92.82C353.47 93.276 354.226 93.756 354.994 94.26C355.762 94.74 356.494 95.208 357.19 95.664C357.886 96.096 358.462 96.48 358.918 96.816L356.254 100.776C355.75 100.44 355.15 100.044 354.454 99.588C353.782 99.132 353.062 98.664 352.294 98.184C351.55 97.704 350.806 97.248 350.062 96.816C349.342 96.36 348.694 95.964 348.118 95.628L350.71 91.668ZM344.05 117.228C345.394 116.988 346.762 116.688 348.154 116.328C349.546 115.968 350.926 115.536 352.294 115.032C353.662 114.504 354.994 113.88 356.29 113.16C358.33 112.008 360.226 110.712 361.978 109.272C363.754 107.832 365.35 106.308 366.766 104.7C368.182 103.068 369.358 101.388 370.294 99.66L373.066 104.556C371.41 107.052 369.346 109.416 366.874 111.648C364.426 113.856 361.726 115.812 358.774 117.516C357.55 118.188 356.206 118.836 354.742 119.46C353.278 120.06 351.838 120.576 350.422 121.008C349.03 121.44 347.806 121.752 346.75 121.944L344.05 117.228ZM345.166 99.876C345.766 100.188 346.45 100.572 347.218 101.028C347.986 101.484 348.754 101.952 349.522 102.432C350.29 102.888 351.01 103.344 351.682 103.8C352.378 104.232 352.954 104.616 353.41 104.952L350.782 108.984C350.254 108.624 349.642 108.216 348.946 107.76C348.274 107.304 347.554 106.836 346.786 106.356C346.042 105.876 345.298 105.42 344.554 104.988C343.834 104.532 343.174 104.148 342.574 103.836L345.166 99.876ZM393.586 91.128C393.466 91.776 393.274 92.616 393.01 93.648C392.746 94.68 392.362 95.844 391.858 97.14C391.474 98.028 391.03 98.952 390.526 99.912C390.046 100.848 389.554 101.688 389.05 102.432C389.362 102.288 389.758 102.168 390.238 102.072C390.718 101.952 391.21 101.868 391.714 101.82C392.242 101.748 392.71 101.712 393.118 101.712C394.63 101.712 395.878 102.144 396.862 103.008C397.87 103.872 398.374 105.156 398.374 106.86C398.374 107.34 398.374 107.928 398.374 108.624C398.398 109.32 398.422 110.052 398.446 110.82C398.47 111.564 398.494 112.296 398.518 113.016C398.542 113.736 398.554 114.384 398.554 114.96H394.234C394.282 114.552 394.306 114.072 394.306 113.52C394.33 112.944 394.342 112.344 394.342 111.72C394.366 111.096 394.378 110.496 394.378 109.92C394.402 109.32 394.414 108.78 394.414 108.3C394.414 107.148 394.102 106.356 393.478 105.924C392.878 105.468 392.206 105.24 391.462 105.24C390.454 105.24 389.434 105.492 388.402 105.996C387.394 106.476 386.542 107.052 385.846 107.724C385.318 108.252 384.778 108.84 384.226 109.488C383.698 110.136 383.122 110.868 382.498 111.684L378.646 108.804C380.206 107.364 381.55 105.972 382.678 104.628C383.83 103.284 384.802 101.952 385.594 100.632C386.386 99.312 387.034 97.992 387.538 96.672C387.898 95.712 388.186 94.716 388.402 93.684C388.642 92.628 388.786 91.644 388.834 90.732L393.586 91.128ZM380.05 94.44C380.962 94.584 382.018 94.692 383.218 94.764C384.418 94.836 385.474 94.872 386.386 94.872C387.97 94.872 389.698 94.836 391.57 94.764C393.466 94.692 395.386 94.572 397.33 94.404C399.274 94.212 401.122 93.972 402.874 93.684L402.838 97.86C401.566 98.028 400.186 98.184 398.698 98.328C397.234 98.448 395.734 98.556 394.198 98.652C392.686 98.724 391.234 98.784 389.842 98.832C388.45 98.856 387.214 98.868 386.134 98.868C385.654 98.868 385.054 98.868 384.334 98.868C383.638 98.844 382.918 98.82 382.174 98.796C381.43 98.748 380.722 98.7 380.05 98.652V94.44ZM408.562 104.664C408.178 104.784 407.722 104.94 407.194 105.132C406.69 105.3 406.174 105.48 405.646 105.672C405.142 105.84 404.686 106.008 404.278 106.176C403.126 106.632 401.758 107.184 400.174 107.832C398.614 108.48 396.982 109.236 395.278 110.1C394.198 110.676 393.286 111.24 392.542 111.792C391.798 112.344 391.234 112.908 390.85 113.484C390.466 114.036 390.274 114.648 390.274 115.32C390.274 115.824 390.382 116.244 390.598 116.58C390.814 116.892 391.138 117.144 391.57 117.336C392.002 117.528 392.542 117.66 393.19 117.732C393.838 117.804 394.606 117.84 395.494 117.84C397.03 117.84 398.722 117.756 400.57 117.588C402.418 117.396 404.134 117.144 405.718 116.832L405.574 121.476C404.806 121.572 403.834 121.668 402.658 121.764C401.482 121.884 400.258 121.968 398.986 122.016C397.738 122.064 396.538 122.088 395.386 122.088C393.514 122.088 391.834 121.908 390.346 121.548C388.858 121.188 387.682 120.576 386.818 119.712C385.978 118.824 385.558 117.612 385.558 116.076C385.558 114.828 385.834 113.7 386.386 112.692C386.962 111.684 387.718 110.772 388.654 109.956C389.59 109.14 390.61 108.408 391.714 107.76C392.842 107.088 393.946 106.476 395.026 105.924C396.13 105.348 397.126 104.856 398.014 104.448C398.902 104.04 399.73 103.68 400.498 103.368C401.29 103.032 402.046 102.696 402.766 102.36C403.462 102.048 404.134 101.748 404.782 101.46C405.43 101.148 406.09 100.824 406.762 100.488L408.562 104.664ZM428.974 91.164C428.83 91.812 428.71 92.388 428.614 92.892C428.518 93.396 428.434 93.888 428.362 94.368C428.266 94.872 428.146 95.604 428.002 96.564C427.882 97.5 427.738 98.568 427.57 99.768C427.426 100.944 427.27 102.18 427.102 103.476C426.958 104.748 426.814 105.996 426.67 107.22C426.526 108.444 426.406 109.56 426.31 110.568C426.238 111.576 426.202 112.38 426.202 112.98C426.202 114.468 426.646 115.608 427.534 116.4C428.446 117.168 429.79 117.552 431.566 117.552C433.246 117.552 434.662 117.324 435.814 116.868C436.966 116.388 437.842 115.752 438.442 114.96C439.042 114.168 439.342 113.28 439.342 112.296C439.342 111.072 439.018 109.884 438.37 108.732C437.746 107.556 436.834 106.416 435.634 105.312L440.71 104.232C441.91 105.744 442.786 107.184 443.338 108.552C443.914 109.896 444.202 111.336 444.202 112.872C444.202 114.672 443.686 116.28 442.654 117.696C441.622 119.112 440.146 120.216 438.226 121.008C436.33 121.8 434.062 122.196 431.422 122.196C429.55 122.196 427.882 121.908 426.418 121.332C424.954 120.756 423.814 119.844 422.998 118.596C422.182 117.348 421.774 115.728 421.774 113.736C421.774 112.992 421.834 112.008 421.954 110.784C422.074 109.536 422.218 108.168 422.386 106.68C422.578 105.168 422.77 103.644 422.962 102.108C423.154 100.548 423.322 99.072 423.466 97.68C423.634 96.288 423.766 95.088 423.862 94.08C423.91 93.24 423.934 92.604 423.934 92.172C423.958 91.716 423.946 91.284 423.898 90.876L428.974 91.164ZM416.122 95.628C417.202 95.964 418.378 96.252 419.65 96.492C420.922 96.708 422.23 96.876 423.574 96.996C424.918 97.092 426.19 97.14 427.39 97.14C428.806 97.14 430.126 97.092 431.35 96.996C432.574 96.9 433.642 96.78 434.554 96.636L434.41 100.92C433.33 101.016 432.25 101.1 431.17 101.172C430.09 101.244 428.794 101.28 427.282 101.28C426.058 101.28 424.786 101.22 423.466 101.1C422.146 100.956 420.838 100.776 419.542 100.56C418.246 100.32 417.034 100.056 415.906 99.768L416.122 95.628ZM415.366 104.556C416.662 104.988 417.97 105.324 419.29 105.564C420.634 105.804 421.954 105.972 423.25 106.068C424.57 106.14 425.83 106.176 427.03 106.176C428.134 106.176 429.322 106.14 430.594 106.068C431.89 105.996 433.114 105.888 434.266 105.744L434.158 110.028C433.15 110.124 432.118 110.208 431.062 110.28C430.006 110.328 428.914 110.352 427.786 110.352C425.386 110.352 423.082 110.232 420.874 109.992C418.666 109.728 416.746 109.368 415.114 108.912L415.366 104.556ZM453.238 104.772C453.79 104.652 454.426 104.508 455.146 104.34C455.866 104.148 456.502 103.968 457.054 103.8C457.654 103.608 458.458 103.356 459.466 103.044C460.474 102.732 461.578 102.42 462.778 102.108C464.002 101.796 465.226 101.532 466.45 101.316C467.698 101.1 468.874 100.992 469.978 100.992C471.874 100.992 473.53 101.352 474.946 102.072C476.386 102.768 477.502 103.776 478.294 105.096C479.086 106.416 479.482 107.988 479.482 109.812C479.482 111.444 479.122 112.932 478.402 114.276C477.706 115.62 476.638 116.796 475.198 117.804C473.758 118.812 471.958 119.628 469.798 120.252C467.662 120.9 465.166 121.308 462.31 121.476L460.402 117.048C462.466 117 464.362 116.82 466.09 116.508C467.842 116.196 469.354 115.752 470.626 115.176C471.922 114.576 472.918 113.82 473.614 112.908C474.334 111.996 474.694 110.94 474.694 109.74C474.694 108.828 474.478 108.036 474.046 107.364C473.638 106.668 473.05 106.128 472.282 105.744C471.514 105.36 470.602 105.168 469.546 105.168C468.706 105.168 467.77 105.276 466.738 105.492C465.706 105.708 464.638 105.984 463.534 106.32C462.454 106.656 461.386 107.016 460.33 107.4C459.274 107.784 458.29 108.156 457.378 108.516C456.466 108.876 455.71 109.188 455.11 109.452L453.238 104.772ZM484.853 95.232C485.573 95.208 486.257 95.184 486.905 95.16C487.553 95.112 488.057 95.076 488.417 95.052C489.161 94.98 490.073 94.896 491.153 94.8C492.233 94.704 493.445 94.596 494.789 94.476C496.157 94.356 497.609 94.236 499.145 94.116C500.681 93.972 502.277 93.828 503.933 93.684C505.181 93.588 506.429 93.504 507.677 93.432C508.925 93.336 510.101 93.264 511.205 93.216C512.333 93.144 513.305 93.096 514.121 93.072L514.157 97.68C513.509 97.68 512.765 97.692 511.925 97.716C511.085 97.74 510.245 97.788 509.405 97.86C508.589 97.908 507.857 98.004 507.209 98.148C506.129 98.436 505.121 98.928 504.185 99.624C503.273 100.296 502.469 101.1 501.773 102.036C501.077 102.972 500.537 103.98 500.153 105.06C499.793 106.116 499.613 107.184 499.613 108.264C499.613 109.44 499.817 110.484 500.225 111.396C500.633 112.284 501.197 113.052 501.917 113.7C502.661 114.324 503.525 114.852 504.509 115.284C505.493 115.692 506.549 116.004 507.677 116.22C508.829 116.436 510.017 116.58 511.241 116.652L509.549 121.584C508.037 121.488 506.561 121.248 505.121 120.864C503.705 120.48 502.373 119.952 501.125 119.28C499.901 118.608 498.821 117.792 497.885 116.832C496.949 115.848 496.217 114.732 495.689 113.484C495.161 112.212 494.897 110.796 494.897 109.236C494.897 107.484 495.173 105.888 495.725 104.448C496.277 103.008 496.961 101.748 497.777 100.668C498.593 99.564 499.409 98.712 500.225 98.112C499.553 98.184 498.737 98.28 497.777 98.4C496.841 98.496 495.821 98.616 494.717 98.76C493.637 98.88 492.533 99.012 491.405 99.156C490.277 99.3 489.185 99.468 488.129 99.66C487.097 99.828 486.161 99.996 485.321 100.164L484.853 95.232ZM527.657 94.26C527.561 94.692 527.477 95.184 527.405 95.736C527.357 96.288 527.309 96.828 527.261 97.356C527.237 97.884 527.225 98.316 527.225 98.652C527.201 99.444 527.189 100.26 527.189 101.1C527.213 101.94 527.237 102.804 527.261 103.692C527.309 104.556 527.369 105.42 527.441 106.284C527.609 108.012 527.849 109.536 528.161 110.856C528.473 112.176 528.881 113.208 529.385 113.952C529.889 114.672 530.525 115.032 531.293 115.032C531.701 115.032 532.097 114.804 532.481 114.348C532.889 113.892 533.249 113.304 533.561 112.584C533.897 111.84 534.185 111.06 534.425 110.244C534.689 109.428 534.917 108.66 535.109 107.94L538.709 112.332C537.917 114.42 537.125 116.088 536.333 117.336C535.565 118.56 534.761 119.448 533.921 120C533.081 120.528 532.169 120.792 531.185 120.792C529.889 120.792 528.653 120.36 527.477 119.496C526.325 118.632 525.341 117.24 524.525 115.32C523.709 113.376 523.133 110.796 522.797 107.58C522.677 106.476 522.581 105.312 522.509 104.088C522.461 102.864 522.425 101.7 522.401 100.596C522.401 99.492 522.401 98.58 522.401 97.86C522.401 97.356 522.377 96.756 522.329 96.06C522.281 95.364 522.209 94.74 522.113 94.188L527.657 94.26ZM545.657 95.088C546.329 95.904 546.977 96.9 547.601 98.076C548.225 99.252 548.801 100.512 549.329 101.856C549.857 103.2 550.325 104.58 550.733 105.996C551.141 107.388 551.465 108.756 551.705 110.1C551.969 111.42 552.137 112.632 552.209 113.736L547.457 115.572C547.337 114.108 547.121 112.512 546.809 110.784C546.497 109.056 546.077 107.316 545.549 105.564C545.021 103.812 544.385 102.156 543.641 100.596C542.921 99.036 542.069 97.692 541.085 96.564L545.657 95.088ZM575.789 90.876C575.741 91.236 575.693 91.644 575.645 92.1C575.621 92.532 575.597 92.976 575.573 93.432C575.549 93.912 575.525 94.56 575.501 95.376C575.477 96.168 575.465 97.044 575.465 98.004C575.465 98.964 575.465 99.912 575.465 100.848C575.465 101.784 575.465 102.636 575.465 103.404C575.465 104.412 575.489 105.54 575.537 106.788C575.585 108.012 575.645 109.26 575.717 110.532C575.813 111.78 575.885 112.956 575.933 114.06C576.005 115.14 576.041 116.04 576.041 116.76C576.041 117.768 575.777 118.692 575.249 119.532C574.721 120.348 573.929 120.996 572.873 121.476C571.841 121.956 570.533 122.196 568.949 122.196C566.069 122.196 563.885 121.668 562.397 120.612C560.909 119.556 560.165 118.08 560.165 116.184C560.165 114.96 560.513 113.892 561.209 112.98C561.929 112.044 562.949 111.312 564.269 110.784C565.613 110.256 567.209 109.992 569.057 109.992C571.025 109.992 572.861 110.208 574.565 110.64C576.293 111.048 577.865 111.588 579.281 112.26C580.697 112.932 581.957 113.64 583.061 114.384C584.165 115.128 585.101 115.8 585.869 116.4L583.277 120.432C582.413 119.616 581.441 118.812 580.361 118.02C579.305 117.228 578.141 116.508 576.869 115.86C575.621 115.212 574.289 114.696 572.873 114.312C571.481 113.904 570.005 113.7 568.445 113.7C567.197 113.7 566.225 113.916 565.529 114.348C564.857 114.78 564.521 115.308 564.521 115.932C564.521 116.388 564.665 116.784 564.953 117.12C565.241 117.456 565.661 117.708 566.213 117.876C566.765 118.044 567.461 118.128 568.301 118.128C568.949 118.128 569.501 118.056 569.957 117.912C570.437 117.768 570.809 117.504 571.073 117.12C571.337 116.736 571.469 116.196 571.469 115.5C571.469 114.972 571.445 114.216 571.397 113.232C571.373 112.248 571.337 111.168 571.289 109.992C571.241 108.792 571.193 107.616 571.145 106.464C571.097 105.312 571.073 104.292 571.073 103.404C571.073 102.54 571.073 101.64 571.073 100.704C571.097 99.744 571.109 98.796 571.109 97.86C571.109 96.924 571.109 96.072 571.109 95.304C571.133 94.512 571.145 93.864 571.145 93.36C571.145 93.024 571.121 92.616 571.073 92.136C571.049 91.632 571.001 91.212 570.929 90.876H575.789ZM560.849 94.26C561.497 94.356 562.217 94.452 563.009 94.548C563.801 94.644 564.605 94.74 565.421 94.836C566.261 94.908 567.053 94.968 567.797 95.016C568.541 95.04 569.189 95.052 569.741 95.052C572.189 95.052 574.625 94.98 577.049 94.836C579.497 94.668 582.029 94.368 584.645 93.936L584.609 98.076C583.385 98.244 581.969 98.4 580.361 98.544C578.753 98.688 577.037 98.808 575.213 98.904C573.413 98.976 571.601 99.012 569.777 99.012C569.033 99.012 568.109 98.988 567.005 98.94C565.925 98.868 564.845 98.784 563.765 98.688C562.685 98.568 561.749 98.46 560.957 98.364L560.849 94.26ZM560.669 102.036C561.245 102.132 561.929 102.228 562.721 102.324C563.513 102.42 564.317 102.492 565.133 102.54C565.973 102.588 566.765 102.636 567.509 102.684C568.253 102.708 568.865 102.72 569.345 102.72C571.577 102.72 573.593 102.672 575.393 102.576C577.217 102.48 578.921 102.36 580.505 102.216C582.089 102.072 583.613 101.904 585.077 101.712L585.041 105.96C583.793 106.104 582.581 106.224 581.405 106.32C580.253 106.416 579.065 106.5 577.841 106.572C576.641 106.644 575.345 106.692 573.953 106.716C572.561 106.74 571.001 106.752 569.273 106.752C568.577 106.752 567.713 106.74 566.681 106.716C565.649 106.668 564.593 106.608 563.513 106.536C562.457 106.464 561.521 106.38 560.705 106.284L560.669 102.036ZM616.747 91.74C616.723 91.932 616.699 92.22 616.675 92.604C616.651 92.964 616.627 93.348 616.603 93.756C616.579 94.164 616.555 94.536 616.531 94.872C616.531 95.664 616.519 96.432 616.495 97.176C616.495 97.92 616.483 98.628 616.459 99.3C616.459 99.948 616.447 100.584 616.423 101.208C616.399 102.264 616.363 103.368 616.315 104.52C616.267 105.672 616.207 106.74 616.135 107.724C616.063 108.708 615.967 109.512 615.847 110.136C615.655 111.072 615.319 111.708 614.839 112.044C614.359 112.356 613.651 112.512 612.715 112.512C612.307 112.512 611.743 112.488 611.023 112.44C610.327 112.368 609.631 112.284 608.935 112.188C608.263 112.092 607.711 112.02 607.279 111.972L607.387 107.976C607.939 108.096 608.539 108.204 609.187 108.3C609.859 108.396 610.363 108.444 610.699 108.444C611.059 108.444 611.323 108.396 611.491 108.3C611.683 108.18 611.791 107.952 611.815 107.616C611.887 107.16 611.935 106.584 611.959 105.888C612.007 105.192 612.043 104.436 612.067 103.62C612.115 102.78 612.151 101.964 612.175 101.172C612.175 100.524 612.175 99.876 612.175 99.228C612.175 98.556 612.175 97.872 612.175 97.176C612.175 96.456 612.175 95.748 612.175 95.052C612.175 94.74 612.151 94.38 612.103 93.972C612.079 93.54 612.055 93.12 612.031 92.712C612.007 92.304 611.971 91.98 611.923 91.74H616.747ZM602.599 92.82C602.503 93.42 602.443 94.008 602.419 94.584C602.395 95.136 602.383 95.796 602.383 96.564C602.383 97.212 602.371 98.076 602.347 99.156C602.347 100.236 602.335 101.412 602.311 102.684C602.311 103.932 602.299 105.192 602.275 106.464C602.275 107.712 602.275 108.852 602.275 109.884C602.275 110.916 602.287 111.732 602.311 112.332C602.335 113.22 602.395 113.952 602.491 114.528C602.611 115.08 602.851 115.512 603.211 115.824C603.571 116.136 604.135 116.352 604.903 116.472C605.695 116.592 606.763 116.652 608.107 116.652C609.283 116.652 610.531 116.616 611.851 116.544C613.171 116.448 614.443 116.328 615.667 116.184C616.891 116.04 617.959 115.896 618.871 115.752L618.691 120.648C617.899 120.744 616.915 120.828 615.739 120.9C614.563 120.996 613.339 121.068 612.067 121.116C610.795 121.188 609.583 121.224 608.431 121.224C606.103 121.224 604.243 121.092 602.851 120.828C601.459 120.564 600.403 120.12 599.683 119.496C598.963 118.872 598.483 118.032 598.243 116.976C598.003 115.92 597.859 114.612 597.811 113.052C597.811 112.524 597.799 111.816 597.775 110.928C597.775 110.04 597.775 109.056 597.775 107.976C597.775 106.872 597.775 105.744 597.775 104.592C597.775 103.44 597.775 102.348 597.775 101.316C597.799 100.26 597.811 99.336 597.811 98.544C597.811 97.752 597.811 97.176 597.811 96.816C597.811 96.072 597.787 95.376 597.739 94.728C597.691 94.08 597.619 93.444 597.523 92.82H602.599ZM590.539 100.956C591.067 100.956 591.727 100.932 592.519 100.884C593.311 100.836 594.163 100.776 595.075 100.704C595.795 100.632 596.863 100.536 598.279 100.416C599.695 100.272 601.303 100.116 603.103 99.948C604.903 99.78 606.775 99.612 608.719 99.444C610.687 99.252 612.571 99.084 614.371 98.94C616.171 98.796 617.767 98.676 619.159 98.58C619.663 98.532 620.227 98.496 620.851 98.472C621.499 98.424 622.087 98.376 622.615 98.328V102.756C622.423 102.732 622.111 102.72 621.679 102.72C621.247 102.72 620.791 102.732 620.311 102.756C619.855 102.756 619.471 102.768 619.159 102.792C618.223 102.816 617.083 102.876 615.739 102.972C614.395 103.044 612.955 103.152 611.419 103.296C609.883 103.416 608.311 103.56 606.703 103.728C605.119 103.872 603.595 104.028 602.131 104.196C600.667 104.364 599.347 104.508 598.171 104.628C596.995 104.748 596.059 104.844 595.363 104.916C594.979 104.964 594.511 105.036 593.959 105.132C593.407 105.204 592.855 105.288 592.303 105.384C591.775 105.456 591.355 105.516 591.043 105.564L590.539 100.956ZM645.979 93.252C645.811 93.492 645.619 93.768 645.403 94.08C645.211 94.368 645.019 94.656 644.827 94.944C644.395 95.592 643.915 96.348 643.387 97.212C642.883 98.052 642.355 98.952 641.803 99.912C641.251 100.848 640.711 101.784 640.183 102.72C639.679 103.656 639.199 104.52 638.743 105.312C639.415 104.928 640.099 104.652 640.795 104.484C641.491 104.316 642.187 104.232 642.883 104.232C644.227 104.232 645.283 104.64 646.051 105.456C646.843 106.248 647.275 107.4 647.347 108.912C647.371 109.44 647.383 110.076 647.383 110.82C647.383 111.564 647.383 112.308 647.383 113.052C647.407 113.796 647.443 114.42 647.491 114.924C647.563 115.62 647.815 116.124 648.247 116.436C648.703 116.724 649.231 116.868 649.831 116.868C650.599 116.868 651.295 116.64 651.919 116.184C652.567 115.728 653.143 115.104 653.647 114.312C654.151 113.496 654.583 112.584 654.943 111.576C655.327 110.544 655.651 109.476 655.915 108.372L659.803 111.54C659.179 113.58 658.387 115.38 657.427 116.94C656.467 118.476 655.291 119.664 653.899 120.504C652.531 121.368 650.923 121.8 649.075 121.8C647.755 121.8 646.651 121.56 645.763 121.08C644.875 120.624 644.215 120.024 643.783 119.28C643.351 118.512 643.111 117.684 643.063 116.796C643.015 116.148 642.979 115.428 642.955 114.636C642.955 113.844 642.943 113.076 642.919 112.332C642.919 111.564 642.895 110.94 642.847 110.46C642.799 109.836 642.595 109.344 642.235 108.984C641.875 108.624 641.371 108.444 640.723 108.444C639.931 108.444 639.175 108.696 638.455 109.2C637.735 109.704 637.075 110.364 636.475 111.18C635.899 111.996 635.395 112.896 634.963 113.88C634.723 114.408 634.471 115.032 634.207 115.752C633.943 116.472 633.691 117.216 633.451 117.984C633.211 118.752 632.983 119.472 632.767 120.144C632.551 120.84 632.371 121.428 632.227 121.908L627.151 120.18C627.607 118.98 628.159 117.612 628.807 116.076C629.479 114.516 630.211 112.884 631.003 111.18C631.795 109.476 632.599 107.784 633.415 106.104C634.231 104.424 635.011 102.84 635.755 101.352C636.499 99.84 637.159 98.532 637.735 97.428C638.335 96.3 638.791 95.448 639.103 94.872C639.343 94.392 639.619 93.852 639.931 93.252C640.243 92.652 640.555 91.968 640.867 91.2L645.979 93.252ZM677.839 91.56C677.719 92.016 677.599 92.52 677.479 93.072C677.383 93.6 677.287 94.092 677.191 94.548C677.095 95.076 676.975 95.676 676.831 96.348C676.687 96.996 676.543 97.656 676.399 98.328C676.279 98.976 676.147 99.612 676.003 100.236C675.763 101.268 675.463 102.468 675.103 103.836C674.743 105.204 674.323 106.68 673.843 108.264C673.363 109.824 672.823 111.396 672.223 112.98C671.623 114.564 670.987 116.112 670.315 117.624C669.643 119.112 668.923 120.456 668.155 121.656L663.475 119.784C664.315 118.656 665.095 117.396 665.815 116.004C666.559 114.588 667.231 113.136 667.831 111.648C668.431 110.16 668.959 108.696 669.415 107.256C669.895 105.816 670.303 104.472 670.639 103.224C670.975 101.976 671.239 100.908 671.431 100.02C671.767 98.388 672.031 96.816 672.223 95.304C672.415 93.792 672.499 92.364 672.475 91.02L677.839 91.56ZM690.223 94.944C690.799 95.712 691.387 96.684 691.987 97.86C692.611 99.012 693.211 100.236 693.787 101.532C694.387 102.828 694.927 104.076 695.407 105.276C695.911 106.476 696.295 107.496 696.559 108.336L691.987 110.46C691.747 109.452 691.411 108.336 690.979 107.112C690.571 105.864 690.091 104.604 689.539 103.332C689.011 102.036 688.435 100.812 687.811 99.66C687.211 98.508 686.587 97.548 685.939 96.78L690.223 94.944ZM663.223 98.94C663.871 98.988 664.507 99.012 665.131 99.012C665.755 98.988 666.403 98.964 667.075 98.94C667.651 98.916 668.359 98.88 669.199 98.832C670.063 98.76 670.963 98.688 671.899 98.616C672.859 98.544 673.819 98.472 674.779 98.4C675.739 98.304 676.627 98.232 677.443 98.184C678.259 98.136 678.931 98.112 679.459 98.112C680.731 98.112 681.847 98.328 682.807 98.76C683.791 99.168 684.559 99.876 685.111 100.884C685.687 101.892 685.975 103.26 685.975 104.988C685.975 106.404 685.903 107.94 685.759 109.596C685.639 111.252 685.435 112.836 685.147 114.348C684.859 115.86 684.451 117.144 683.923 118.2C683.347 119.448 682.555 120.312 681.547 120.792C680.563 121.272 679.387 121.512 678.019 121.512C677.323 121.512 676.579 121.452 675.787 121.332C675.019 121.236 674.323 121.128 673.699 121.008L672.907 116.256C673.387 116.376 673.903 116.496 674.455 116.616C675.031 116.736 675.571 116.832 676.075 116.904C676.603 116.976 677.023 117.012 677.335 117.012C677.935 117.012 678.463 116.904 678.919 116.688C679.375 116.448 679.747 116.04 680.035 115.464C680.371 114.768 680.635 113.868 680.827 112.764C681.043 111.66 681.199 110.472 681.295 109.2C681.415 107.904 681.475 106.668 681.475 105.492C681.475 104.532 681.343 103.824 681.079 103.368C680.815 102.912 680.419 102.612 679.891 102.468C679.387 102.3 678.751 102.216 677.983 102.216C677.455 102.216 676.711 102.264 675.751 102.36C674.815 102.432 673.819 102.528 672.763 102.648C671.707 102.744 670.711 102.852 669.775 102.972C668.863 103.092 668.155 103.176 667.651 103.224C667.147 103.32 666.487 103.428 665.671 103.548C664.879 103.644 664.207 103.74 663.655 103.836L663.223 98.94ZM712.471 110.748C712.351 109.788 712.423 108.948 712.687 108.228C712.975 107.508 713.371 106.86 713.875 106.284C714.403 105.708 714.979 105.18 715.603 104.7C716.251 104.22 716.851 103.752 717.403 103.296C717.979 102.84 718.447 102.372 718.807 101.892C719.167 101.412 719.347 100.884 719.347 100.308C719.347 99.588 719.167 98.976 718.807 98.472C718.447 97.968 717.919 97.584 717.223 97.32C716.551 97.056 715.735 96.924 714.775 96.924C713.671 96.924 712.663 97.164 711.751 97.644C710.839 98.124 709.939 98.832 709.051 99.768L706.099 97.032C707.251 95.712 708.607 94.656 710.167 93.864C711.751 93.048 713.491 92.64 715.387 92.64C717.139 92.64 718.687 92.904 720.031 93.432C721.399 93.96 722.467 94.764 723.235 95.844C724.027 96.9 724.423 98.232 724.423 99.84C724.423 100.728 724.231 101.508 723.847 102.18C723.487 102.828 723.007 103.416 722.407 103.944C721.831 104.448 721.219 104.94 720.571 105.42C719.923 105.876 719.323 106.356 718.771 106.86C718.219 107.364 717.787 107.928 717.475 108.552C717.163 109.176 717.043 109.908 717.115 110.748H712.471ZM714.811 120.324C713.899 120.324 713.143 120.024 712.543 119.424C711.943 118.824 711.643 118.068 711.643 117.156C711.643 116.22 711.943 115.452 712.543 114.852C713.143 114.252 713.899 113.952 714.811 113.952C715.723 113.952 716.479 114.252 717.079 114.852C717.679 115.452 717.979 116.22 717.979 117.156C717.979 118.068 717.679 118.824 717.079 119.424C716.479 120.024 715.723 120.324 714.811 120.324Z" fill="white"/>
</g>
<defs>
<filter id="filter0_i_61_44" x="130.229" y="38.896" width="594.194" height="87.408" filterUnits="userSpaceOnUse" color-interpolation-filters="sRGB">
<feFlood flood-opacity="0" result="BackgroundImageFix"/>
<feBlend mode="normal" in="SourceGraphic" in2="BackgroundImageFix" result="shape"/>
<feColorMatrix in="SourceAlpha" type="matrix" values="0 0 0 0 0 0 0 0 0 0 0 0 0 0 0 0 0 0 127 0" result="hardAlpha"/>
<feOffset dy="4"/>
<feGaussianBlur stdDeviation="2"/>
<feComposite in2="hardAlpha" operator="arithmetic" k2="-1" k3="1"/>
<feColorMatrix type="matrix" values="0 0 0 0 0 0 0 0 0 0 0 0 0 0 0 0 0 0 0.25 0"/>
<feBlend mode="normal" in2="shape" result="effect1_innerShadow_61_44"/>
</filter>
<linearGradient id="paint0_linear_61_44" x1="82.6503" y1="1.20456e-07" x2="950" y2="232" gradientUnits="userSpaceOnUse">
<stop stop-color="#1A2A6C"/>
<stop offset="1" stop-color="#3352D2"/>
</linearGradient>
</defs>
</svg>
