<svg width="246" height="233" viewBox="0 0 246 233" fill="none" xmlns="http://www.w3.org/2000/svg">
<path d="M245.947 81.4394C245.947 126.417 190.89 162.879 122.974 162.879C55.0571 162.879 0 126.417 0 81.4394C0 36.4617 55.0571 0 122.974 0C190.89 0 245.947 36.4617 245.947 81.4394Z" fill="#455182"/>
<path d="M161.25 207.67C161.25 221.164 143.931 232.102 122.566 232.102C101.202 232.102 83.8826 221.164 83.8826 207.67C83.8826 194.177 101.202 183.239 122.566 183.239C143.931 183.239 161.25 194.177 161.25 207.67Z" fill="#455182"/>
<path d="M166.556 102.809C167.065 102.882 167.602 102.937 168.166 102.973C168.73 102.991 169.303 103 169.885 103C170.886 103 171.914 102.955 172.969 102.864C174.042 102.773 175.125 102.627 176.216 102.427C177.308 102.209 178.381 101.927 179.437 101.581L179.491 103.628C178.6 103.864 177.617 104.083 176.544 104.283C175.489 104.483 174.388 104.647 173.242 104.774C172.114 104.883 170.995 104.938 169.885 104.938C169.394 104.938 168.866 104.938 168.302 104.938C167.757 104.92 167.22 104.892 166.692 104.856L166.556 102.809ZM176.216 98.3609C176.107 98.7975 175.971 99.3524 175.807 100.026C175.643 100.699 175.461 101.408 175.261 102.154C175.079 102.882 174.879 103.573 174.661 104.228C174.224 105.538 173.669 106.921 172.996 108.376C172.323 109.814 171.604 111.215 170.84 112.579C170.076 113.944 169.321 115.135 168.575 116.154L166.474 115.062C167.074 114.353 167.675 113.543 168.275 112.634C168.894 111.724 169.467 110.769 169.994 109.768C170.54 108.768 171.031 107.785 171.468 106.821C171.905 105.857 172.268 104.974 172.56 104.174C172.851 103.3 173.124 102.318 173.378 101.226C173.633 100.117 173.779 99.0886 173.815 98.1426L176.216 98.3609ZM182.657 106.794C182.639 107.358 182.621 107.867 182.602 108.322C182.602 108.758 182.611 109.231 182.63 109.741C182.648 110.177 182.666 110.741 182.684 111.433C182.721 112.106 182.757 112.825 182.793 113.589C182.83 114.335 182.857 115.053 182.875 115.745C182.912 116.436 182.93 117.009 182.93 117.464C182.93 118.192 182.766 118.856 182.439 119.456C182.111 120.057 181.593 120.53 180.883 120.875C180.192 121.239 179.282 121.421 178.154 121.421C177.153 121.421 176.244 121.275 175.425 120.984C174.606 120.711 173.942 120.284 173.433 119.702C172.942 119.12 172.696 118.383 172.696 117.491C172.696 116.636 172.933 115.908 173.406 115.308C173.897 114.689 174.552 114.216 175.37 113.889C176.207 113.561 177.135 113.398 178.154 113.398C179.682 113.398 181.083 113.616 182.357 114.053C183.648 114.471 184.804 115.008 185.823 115.663C186.86 116.318 187.751 116.964 188.497 117.6L187.324 119.456C186.796 118.983 186.205 118.492 185.55 117.982C184.913 117.473 184.203 117.009 183.421 116.591C182.639 116.154 181.802 115.799 180.91 115.526C180.019 115.253 179.073 115.117 178.072 115.117C177.072 115.117 176.262 115.326 175.643 115.745C175.025 116.163 174.715 116.682 174.715 117.3C174.715 117.937 174.979 118.455 175.507 118.856C176.035 119.256 176.826 119.456 177.881 119.456C178.645 119.456 179.246 119.338 179.682 119.101C180.119 118.847 180.428 118.519 180.61 118.119C180.81 117.7 180.91 117.246 180.91 116.754C180.91 116.245 180.892 115.581 180.856 114.762C180.838 113.944 180.801 113.07 180.747 112.142C180.71 111.196 180.665 110.259 180.61 109.331C180.574 108.385 180.546 107.539 180.528 106.794H182.657ZM188.115 107.53C187.624 107.094 187.005 106.639 186.259 106.166C185.513 105.693 184.74 105.247 183.94 104.829C183.157 104.392 182.466 104.037 181.866 103.764L182.984 102.1C183.476 102.318 184.021 102.582 184.622 102.891C185.222 103.2 185.823 103.528 186.423 103.873C187.023 104.219 187.578 104.556 188.088 104.883C188.615 105.193 189.034 105.475 189.343 105.729L188.115 107.53Z" fill="white"/>
<path d="M148.572 98.7429C148.517 98.9795 148.462 99.2432 148.408 99.5343C148.353 99.8072 148.299 100.08 148.244 100.353C148.19 100.681 148.108 101.126 147.999 101.69C147.908 102.254 147.807 102.855 147.698 103.491C147.589 104.11 147.462 104.701 147.316 105.265C147.134 106.048 146.907 106.93 146.634 107.912C146.361 108.877 146.052 109.905 145.706 110.996C145.36 112.088 144.969 113.207 144.533 114.353C144.096 115.481 143.614 116.609 143.086 117.737C142.559 118.847 141.986 119.893 141.367 120.875L139.129 120.002C139.766 119.165 140.348 118.228 140.876 117.191C141.422 116.154 141.922 115.081 142.377 113.971C142.832 112.843 143.241 111.733 143.605 110.641C143.987 109.55 144.305 108.54 144.56 107.612C144.815 106.684 145.015 105.884 145.16 105.211C145.415 104.119 145.624 102.991 145.788 101.827C145.952 100.644 146.034 99.5253 146.034 98.47L148.572 98.7429ZM157.959 101.636C158.396 102.2 158.851 102.9 159.324 103.737C159.815 104.574 160.288 105.465 160.743 106.411C161.216 107.358 161.644 108.267 162.026 109.14C162.408 110.014 162.717 110.769 162.953 111.406L160.825 112.415C160.625 111.724 160.352 110.933 160.006 110.041C159.66 109.131 159.26 108.213 158.805 107.285C158.369 106.339 157.905 105.456 157.414 104.638C156.941 103.801 156.458 103.1 155.967 102.536L157.959 101.636ZM138.747 104.719C139.166 104.756 139.566 104.774 139.948 104.774C140.33 104.756 140.739 104.738 141.176 104.719C141.594 104.701 142.122 104.674 142.759 104.638C143.396 104.583 144.087 104.528 144.833 104.474C145.597 104.419 146.343 104.365 147.071 104.31C147.817 104.237 148.499 104.183 149.117 104.146C149.754 104.092 150.254 104.065 150.618 104.065C151.437 104.065 152.174 104.192 152.829 104.447C153.502 104.701 154.039 105.165 154.439 105.838C154.839 106.512 155.039 107.458 155.039 108.677C155.039 109.75 154.985 110.914 154.876 112.17C154.785 113.407 154.621 114.589 154.384 115.717C154.148 116.845 153.839 117.782 153.457 118.528C153.038 119.456 152.492 120.066 151.819 120.357C151.146 120.666 150.364 120.821 149.472 120.821C148.963 120.821 148.408 120.775 147.807 120.684C147.207 120.611 146.689 120.52 146.252 120.411L145.897 118.146C146.297 118.255 146.698 118.355 147.098 118.446C147.516 118.537 147.917 118.601 148.299 118.637C148.681 118.674 148.999 118.692 149.254 118.692C149.745 118.692 150.191 118.61 150.591 118.446C151.01 118.264 151.355 117.882 151.628 117.3C151.919 116.682 152.156 115.908 152.338 114.981C152.538 114.034 152.683 113.034 152.774 111.979C152.883 110.923 152.938 109.914 152.938 108.949C152.938 108.094 152.82 107.467 152.583 107.066C152.347 106.648 152.01 106.366 151.574 106.22C151.137 106.057 150.627 105.975 150.045 105.975C149.572 105.975 148.945 106.011 148.162 106.084C147.38 106.139 146.543 106.211 145.652 106.302C144.778 106.393 143.96 106.484 143.195 106.575C142.431 106.648 141.84 106.712 141.422 106.766C141.112 106.803 140.712 106.857 140.221 106.93C139.748 106.985 139.329 107.039 138.965 107.094L138.747 104.719Z" fill="white"/>
<path d="M115.823 99.9164C116.133 99.9528 116.46 99.9801 116.806 99.9983C117.17 100.016 117.488 100.026 117.761 100.026C118.034 100.026 118.48 100.016 119.098 99.9983C119.735 99.9801 120.445 99.9619 121.227 99.9437C122.027 99.9073 122.819 99.88 123.601 99.8618C124.402 99.8254 125.111 99.7891 125.73 99.7527C126.367 99.7163 126.83 99.689 127.122 99.6708C127.522 99.6344 127.831 99.598 128.049 99.5616C128.268 99.5253 128.45 99.4889 128.595 99.4525L129.851 101.035C129.614 101.199 129.359 101.372 129.086 101.554C128.832 101.736 128.577 101.936 128.322 102.154C127.977 102.409 127.513 102.782 126.931 103.273C126.348 103.746 125.702 104.283 124.993 104.883C124.302 105.465 123.619 106.038 122.946 106.602C122.273 107.166 121.664 107.676 121.118 108.131C121.755 107.912 122.391 107.767 123.028 107.694C123.683 107.603 124.311 107.558 124.911 107.558C126.421 107.558 127.758 107.84 128.923 108.404C130.105 108.949 131.024 109.704 131.679 110.669C132.352 111.633 132.689 112.734 132.689 113.971C132.689 115.426 132.307 116.7 131.543 117.791C130.778 118.883 129.696 119.72 128.295 120.302C126.894 120.903 125.229 121.203 123.301 121.203C122.064 121.203 120.999 121.039 120.108 120.711C119.217 120.384 118.525 119.929 118.034 119.347C117.561 118.765 117.324 118.092 117.324 117.327C117.324 116.709 117.497 116.127 117.843 115.581C118.189 115.035 118.68 114.598 119.317 114.271C119.953 113.944 120.69 113.78 121.527 113.78C122.746 113.78 123.756 114.034 124.556 114.544C125.357 115.035 125.975 115.69 126.412 116.509C126.849 117.309 127.094 118.173 127.149 119.101L125.184 119.429C125.111 118.264 124.747 117.309 124.092 116.563C123.456 115.799 122.591 115.417 121.5 115.417C120.881 115.417 120.363 115.59 119.944 115.936C119.526 116.281 119.317 116.691 119.317 117.164C119.317 117.819 119.653 118.337 120.326 118.719C120.999 119.101 121.873 119.292 122.946 119.292C124.493 119.292 125.83 119.083 126.958 118.665C128.104 118.246 128.977 117.637 129.578 116.836C130.196 116.036 130.506 115.072 130.506 113.944C130.506 113.052 130.242 112.252 129.714 111.542C129.187 110.832 128.459 110.278 127.531 109.877C126.621 109.459 125.575 109.25 124.393 109.25C123.246 109.25 122.218 109.377 121.309 109.632C120.399 109.868 119.544 110.214 118.744 110.669C117.961 111.124 117.179 111.697 116.397 112.388C115.632 113.061 114.814 113.834 113.94 114.708L112.385 113.098C112.949 112.643 113.567 112.133 114.241 111.569C114.932 110.987 115.623 110.414 116.315 109.85C117.006 109.268 117.643 108.731 118.225 108.24C118.825 107.73 119.326 107.312 119.726 106.985C120.108 106.675 120.581 106.284 121.145 105.811C121.727 105.32 122.328 104.81 122.946 104.283C123.565 103.755 124.147 103.255 124.693 102.782C125.257 102.309 125.712 101.927 126.057 101.636C125.766 101.636 125.339 101.654 124.775 101.69C124.211 101.708 123.583 101.736 122.892 101.772C122.2 101.79 121.509 101.818 120.818 101.854C120.144 101.89 119.526 101.927 118.962 101.963C118.416 101.981 117.998 102 117.706 102.018C117.415 102.036 117.115 102.054 116.806 102.072C116.497 102.091 116.196 102.127 115.905 102.181L115.823 99.9164Z" fill="white"/>
<path d="M102.806 98.7429C102.77 98.9795 102.742 99.2342 102.724 99.5071C102.724 99.7618 102.724 100.044 102.724 100.353C102.706 100.553 102.697 100.881 102.697 101.335C102.715 101.79 102.724 102.309 102.724 102.891C102.742 103.455 102.752 104.037 102.752 104.638C102.77 105.238 102.779 105.793 102.779 106.302C102.779 106.794 102.779 107.194 102.779 107.503C102.779 109.068 102.742 110.523 102.67 111.869C102.615 113.216 102.415 114.471 102.069 115.636C101.724 116.8 101.15 117.882 100.35 118.883C99.5677 119.865 98.4488 120.784 96.9933 121.639L95.0011 120.084C95.4378 119.902 95.9017 119.656 96.3929 119.347C96.9023 119.038 97.3208 118.719 97.6483 118.392C98.376 117.755 98.9491 117.073 99.3675 116.345C99.786 115.617 100.086 114.817 100.268 113.944C100.468 113.07 100.596 112.106 100.65 111.051C100.705 109.996 100.732 108.813 100.732 107.503C100.732 107.066 100.723 106.512 100.705 105.838C100.687 105.147 100.668 104.437 100.65 103.71C100.632 102.964 100.614 102.291 100.596 101.69C100.577 101.09 100.55 100.653 100.514 100.38C100.496 100.071 100.459 99.78 100.405 99.5071C100.35 99.216 100.305 98.9613 100.268 98.7429H102.806ZM92.8452 104.392C93.2455 104.447 93.6912 104.501 94.1824 104.556C94.6736 104.61 95.1831 104.647 95.7107 104.665C96.2565 104.683 96.7659 104.692 97.2389 104.692C98.3669 104.692 99.5222 104.665 100.705 104.61C101.906 104.556 103.061 104.465 104.171 104.337C105.299 104.21 106.308 104.046 107.2 103.846V106.084C106.327 106.211 105.335 106.33 104.225 106.439C103.134 106.548 101.987 106.63 100.787 106.684C99.604 106.721 98.4306 106.739 97.2662 106.739C96.8296 106.739 96.3383 106.73 95.7925 106.712C95.2649 106.693 94.7373 106.675 94.2097 106.657C93.7003 106.639 93.2455 106.612 92.8452 106.575V104.392ZM88.9973 99.1523C88.9245 99.407 88.8427 99.7072 88.7517 100.053C88.6789 100.38 88.6061 100.671 88.5334 100.926C88.315 101.909 88.1058 103 87.9057 104.201C87.7056 105.402 87.5509 106.648 87.4418 107.94C87.3326 109.231 87.2962 110.505 87.3326 111.76C87.369 113.016 87.5145 114.207 87.7692 115.335C87.9694 114.753 88.1968 114.08 88.4515 113.316C88.7244 112.552 88.9882 111.833 89.2429 111.16L90.4164 111.869C90.1981 112.488 89.9706 113.188 89.7341 113.971C89.4976 114.735 89.2793 115.472 89.0792 116.181C88.879 116.873 88.7335 117.446 88.6425 117.901C88.5879 118.101 88.5425 118.319 88.5061 118.556C88.4879 118.792 88.4879 118.983 88.5061 119.129C88.5243 119.274 88.5334 119.429 88.5334 119.593C88.5516 119.756 88.5698 119.911 88.588 120.057L86.7322 120.275C86.5503 119.729 86.3411 118.992 86.1045 118.064C85.8862 117.136 85.6952 116.118 85.5315 115.008C85.3677 113.88 85.2858 112.752 85.2858 111.624C85.2858 110.132 85.3495 108.704 85.4769 107.339C85.6224 105.975 85.7771 104.719 85.9408 103.573C86.1045 102.427 86.2319 101.481 86.3229 100.735C86.3774 100.408 86.4138 100.08 86.432 99.7527C86.4502 99.4252 86.4593 99.1432 86.4593 98.9067L88.9973 99.1523Z" fill="white"/>
<path d="M60.8339 100.981C60.7975 101.199 60.7611 101.472 60.7247 101.799C60.7065 102.127 60.6792 102.454 60.6428 102.782C60.6246 103.109 60.6156 103.391 60.6156 103.628C60.5974 104.192 60.5883 104.838 60.5883 105.565C60.6065 106.275 60.6246 107.021 60.6428 107.803C60.6792 108.567 60.7338 109.331 60.8066 110.096C60.9521 111.606 61.1977 112.934 61.5434 114.08C61.8891 115.208 62.3075 116.09 62.7988 116.727C63.3082 117.364 63.8813 117.682 64.518 117.682C64.8637 117.682 65.2003 117.528 65.5278 117.218C65.8552 116.891 66.1645 116.463 66.4556 115.936C66.7649 115.39 67.0378 114.79 67.2743 114.135C67.529 113.461 67.7383 112.788 67.902 112.115L69.6213 114.053C69.0755 115.599 68.5206 116.827 67.9566 117.737C67.4108 118.628 66.8468 119.274 66.2646 119.674C65.7006 120.075 65.1093 120.275 64.4907 120.275C63.6357 120.275 62.8079 119.966 62.0073 119.347C61.2068 118.71 60.5155 117.691 59.9333 116.29C59.3511 114.871 58.9327 112.988 58.678 110.641C58.587 109.841 58.5142 108.977 58.4596 108.049C58.4232 107.121 58.396 106.239 58.3778 105.402C58.3778 104.565 58.3778 103.883 58.3778 103.355C58.3778 103.046 58.3687 102.645 58.3505 102.154C58.3323 101.663 58.2777 101.254 58.1867 100.926L60.8339 100.981ZM75.052 101.745C75.5432 102.363 76.0072 103.091 76.4438 103.928C76.8987 104.747 77.308 105.629 77.6719 106.575C78.0539 107.503 78.3905 108.467 78.6816 109.468C78.9909 110.469 79.2365 111.469 79.4184 112.47C79.6186 113.452 79.7641 114.398 79.8551 115.308L77.6719 116.209C77.5627 114.971 77.3717 113.716 77.0988 112.443C76.8259 111.151 76.4893 109.905 76.089 108.704C75.6888 107.485 75.2249 106.339 74.6972 105.265C74.1696 104.192 73.5784 103.264 72.9234 102.482L75.052 101.745Z" fill="white"/>
<path d="M138.525 64.0057C139.053 63.9875 139.526 63.9693 139.944 63.9511C140.363 63.9147 140.699 63.8874 140.954 63.8692C141.391 63.8146 142.018 63.751 142.837 63.6782C143.674 63.5872 144.629 63.4963 145.702 63.4053C146.776 63.2961 147.931 63.187 149.168 63.0778C150.405 62.9686 151.652 62.8595 152.907 62.7503C153.908 62.6594 154.854 62.5866 155.745 62.532C156.637 62.4592 157.464 62.4046 158.229 62.3683C158.993 62.3137 159.675 62.2773 160.275 62.2591V64.4423C159.766 64.4241 159.184 64.4241 158.529 64.4423C157.874 64.4605 157.228 64.506 156.591 64.5788C155.954 64.6333 155.4 64.7334 154.926 64.879C153.962 65.1882 153.089 65.6613 152.307 66.298C151.542 66.9166 150.888 67.6352 150.342 68.4539C149.796 69.2545 149.377 70.1005 149.086 70.9919C148.813 71.8652 148.677 72.7021 148.677 73.5026C148.677 74.576 148.859 75.513 149.223 76.3135C149.587 77.0958 150.078 77.7599 150.697 78.3057C151.333 78.8515 152.052 79.2972 152.852 79.6429C153.671 79.9886 154.526 80.2433 155.418 80.407C156.309 80.5708 157.201 80.6708 158.092 80.7072L157.301 82.9723C156.3 82.9359 155.281 82.7904 154.244 82.5356C153.225 82.2991 152.252 81.9535 151.324 81.4986C150.396 81.0256 149.569 80.4343 148.841 79.7248C148.113 79.0152 147.54 78.1874 147.121 77.2414C146.703 76.2953 146.494 75.2128 146.494 73.9938C146.494 72.5748 146.739 71.2648 147.231 70.0641C147.74 68.8451 148.386 67.7808 149.168 66.8711C149.951 65.9615 150.76 65.261 151.597 64.7698C151.015 64.8426 150.296 64.9244 149.441 65.0154C148.586 65.1064 147.658 65.2064 146.658 65.3156C145.675 65.4066 144.693 65.5157 143.71 65.6431C142.728 65.7704 141.8 65.8978 140.927 66.0251C140.072 66.1343 139.353 66.2525 138.771 66.3799L138.525 64.0057Z" fill="white"/>
<path d="M115.827 63.0778C115.791 63.2961 115.754 63.569 115.718 63.8965C115.7 64.224 115.673 64.5515 115.636 64.879C115.618 65.2064 115.609 65.4884 115.609 65.7249C115.591 66.2889 115.582 66.9348 115.582 67.6625C115.6 68.3721 115.618 69.118 115.636 69.9003C115.673 70.6645 115.727 71.4286 115.8 72.1927C115.945 73.7027 116.191 75.0309 116.537 76.1771C116.882 77.3051 117.301 78.1874 117.792 78.8242C118.301 79.461 118.875 79.7794 119.511 79.7794C119.857 79.7794 120.194 79.6247 120.521 79.3154C120.849 78.9879 121.158 78.5604 121.449 78.0328C121.758 77.487 122.031 76.8866 122.268 76.2316C122.522 75.5585 122.732 74.8853 122.895 74.2122L124.615 76.1498C124.069 77.6962 123.514 78.9243 122.95 79.8339C122.404 80.7254 121.84 81.3713 121.258 81.7715C120.694 82.1718 120.103 82.3719 119.484 82.3719C118.629 82.3719 117.801 82.0626 117.001 81.444C116.2 80.8073 115.509 79.7885 114.927 78.3876C114.344 76.9685 113.926 75.0854 113.671 72.7385C113.58 71.938 113.508 71.0738 113.453 70.1459C113.417 69.2181 113.389 68.3357 113.371 67.4988C113.371 66.6619 113.371 65.9796 113.371 65.452C113.371 65.1428 113.362 64.7425 113.344 64.2513C113.326 63.7601 113.271 63.3507 113.18 63.0232L115.827 63.0778ZM130.045 63.8419C130.537 64.4605 131 65.1882 131.437 66.0251C131.892 66.8438 132.301 67.7262 132.665 68.6723C133.047 69.6001 133.384 70.5644 133.675 71.565C133.984 72.5657 134.23 73.5663 134.412 74.5669C134.612 75.5494 134.757 76.4954 134.848 77.4051L132.665 78.3057C132.556 77.0685 132.365 75.8132 132.092 74.5396C131.819 73.2479 131.483 72.0017 131.082 70.8009C130.682 69.5819 130.218 68.4358 129.691 67.3624C129.163 66.2889 128.572 65.3611 127.917 64.5788L130.045 63.8419Z" fill="white"/>
<path d="M84.4436 67.8809C84.9348 67.7899 85.426 67.6807 85.9172 67.5534C86.4267 67.4078 86.9361 67.2532 87.4455 67.0894C88.0277 66.9075 88.7736 66.671 89.6833 66.3799C90.5929 66.0706 91.5845 65.7704 92.6579 65.4793C93.7313 65.17 94.8229 64.9153 95.9327 64.7152C97.0607 64.4969 98.1159 64.3877 99.0984 64.3877C100.627 64.3877 102 64.6697 103.219 65.2337C104.438 65.7977 105.411 66.6164 106.139 67.6898C106.867 68.7632 107.231 70.0641 107.231 71.5923C107.231 72.9022 106.976 74.0757 106.467 75.1127C105.975 76.1498 105.275 77.0685 104.365 77.869C103.474 78.6514 102.41 79.3154 101.172 79.8612C99.9353 80.3888 98.5617 80.8164 97.0516 81.1439C95.5598 81.4531 93.9769 81.6533 92.3031 81.7442L91.3207 79.4792C93.1218 79.4428 94.832 79.2699 96.4512 78.9606C98.0704 78.6332 99.5077 78.1601 100.763 77.5416C102.037 76.923 103.037 76.1225 103.765 75.14C104.493 74.1394 104.857 72.9386 104.857 71.5377C104.857 70.5917 104.629 69.7366 104.174 68.9725C103.719 68.1901 103.055 67.5716 102.182 67.1167C101.327 66.6619 100.281 66.4345 99.0438 66.4345C98.1523 66.4345 97.179 66.5436 96.1237 66.762C95.0685 66.9621 94.0042 67.2259 92.9308 67.5534C91.8574 67.8627 90.8295 68.1992 89.847 68.5631C88.8828 68.927 88.0186 69.2636 87.2545 69.5728C86.4903 69.8821 85.89 70.1187 85.4533 70.2824L84.4436 67.8809Z" fill="white"/>
<path d="M149.063 25.8026C149.809 25.9117 150.673 26.0027 151.655 26.0755C152.656 26.13 153.684 26.1573 154.739 26.1573C155.813 26.1391 156.831 26.1027 157.796 26.0482C158.778 25.9754 159.606 25.8844 160.279 25.7753V27.9858C159.551 28.0585 158.696 28.1222 157.714 28.1768C156.75 28.2132 155.74 28.2314 154.685 28.2314C153.648 28.2314 152.638 28.2132 151.655 28.1768C150.673 28.1222 149.809 28.0585 149.063 27.9858V25.8026ZM150.127 36.9096C150 37.4008 149.9 37.8466 149.827 38.2468C149.754 38.6471 149.718 39.0382 149.718 39.4203C149.718 39.7296 149.781 40.0389 149.909 40.3482C150.054 40.6393 150.291 40.9031 150.618 41.1396C150.964 41.3579 151.437 41.5398 152.037 41.6854C152.638 41.8127 153.402 41.8764 154.33 41.8764C155.567 41.8764 156.731 41.8218 157.823 41.7127C158.915 41.5853 160.006 41.4034 161.098 41.1669L161.152 43.4592C160.297 43.6412 159.297 43.7867 158.15 43.8959C157.022 43.9869 155.749 44.0323 154.33 44.0323C152.037 44.0323 150.355 43.6685 149.281 42.9407C148.226 42.213 147.698 41.2124 147.698 39.9388C147.698 39.484 147.735 39.0019 147.807 38.4925C147.898 37.9648 148.017 37.3736 148.162 36.7186L150.127 36.9096ZM143.85 23.7012C143.814 23.8468 143.759 24.0378 143.687 24.2743C143.632 24.4926 143.568 24.72 143.496 24.9566C143.441 25.1749 143.396 25.3659 143.359 25.5296C143.268 26.0391 143.159 26.6304 143.032 27.3035C142.904 27.9585 142.777 28.668 142.65 29.4321C142.54 30.1781 142.431 30.9422 142.322 31.7245C142.231 32.4886 142.149 33.2346 142.077 33.9623C142.022 34.69 141.995 35.3632 141.995 35.9818C141.995 36.6549 142.013 37.2917 142.049 37.8921C142.104 38.4924 142.168 39.1292 142.24 39.8024C142.404 39.3839 142.577 38.9382 142.759 38.4652C142.941 37.9921 143.123 37.5282 143.305 37.0734C143.505 36.6003 143.678 36.1819 143.823 35.818L144.969 36.6913C144.733 37.3463 144.478 38.0649 144.205 38.8472C143.932 39.6295 143.687 40.3846 143.468 41.1123C143.268 41.8218 143.123 42.3858 143.032 42.8043C142.995 43.0044 142.959 43.2227 142.923 43.4592C142.886 43.6958 142.877 43.8868 142.895 44.0323C142.913 44.1779 142.923 44.3325 142.923 44.4963C142.941 44.6782 142.959 44.8419 142.977 44.9875L141.012 45.1239C140.739 44.1597 140.503 42.9225 140.303 41.4125C140.103 39.8842 140.003 38.2014 140.003 36.3638C140.003 35.3632 140.048 34.3444 140.139 33.3073C140.23 32.2521 140.348 31.2333 140.494 30.2508C140.639 29.2502 140.776 28.3405 140.903 27.5218C141.049 26.6849 141.158 25.9845 141.231 25.4205C141.285 25.093 141.331 24.7655 141.367 24.438C141.403 24.0924 141.422 23.774 141.422 23.4829L143.85 23.7012Z" fill="white"/>
<path d="M112.03 24.1651H133.971V25.8026H112.03V24.1651ZM113.477 27.4945H132.498V29.0228H113.477V27.4945ZM110.829 30.7693H135.145V32.4068H110.829V30.7693ZM110.829 36.8278H135.199V38.4379H110.829V36.8278ZM121.882 24.9838H123.983V31.5608H121.882V24.9838ZM127.777 21.2451L129.96 21.7909C129.614 22.3367 129.25 22.8734 128.868 23.401C128.504 23.9286 128.177 24.3744 127.886 24.7382L126.166 24.2197C126.439 23.8013 126.73 23.3101 127.04 22.7461C127.349 22.1639 127.595 21.6636 127.777 21.2451ZM110.693 40.8394C111.766 40.7666 112.985 40.6848 114.35 40.5938C115.733 40.4846 117.206 40.3755 118.771 40.2663C120.354 40.139 121.936 40.0116 123.519 39.8842L123.492 41.3579C121.982 41.5035 120.472 41.649 118.962 41.7946C117.452 41.9219 116.005 42.0493 114.623 42.1766C113.258 42.2858 112.021 42.3949 110.911 42.5041L110.693 40.8394ZM116.615 33.8804H118.607V44.3598C118.607 44.9056 118.534 45.3059 118.389 45.5606C118.243 45.8335 117.961 46.0245 117.543 46.1337C117.142 46.261 116.606 46.3338 115.933 46.352C115.278 46.3884 114.432 46.4066 113.395 46.4066C113.34 46.1701 113.249 45.8972 113.122 45.5879C112.994 45.2968 112.867 45.0239 112.74 44.7692C113.249 44.7874 113.731 44.7965 114.186 44.7965C114.641 44.8147 115.041 44.8147 115.387 44.7965C115.732 44.7965 115.969 44.7965 116.096 44.7965C116.296 44.7965 116.433 44.7601 116.506 44.6873C116.578 44.6327 116.615 44.5145 116.615 44.3325V33.8804ZM121.8 32.6524L123.055 33.935C122.073 34.1715 120.936 34.3898 119.644 34.59C118.352 34.7719 117.015 34.9265 115.632 35.0539C114.25 35.1631 112.922 35.254 111.648 35.3268C111.612 35.1267 111.539 34.8993 111.43 34.6445C111.339 34.3898 111.248 34.1624 111.157 33.9623C112.394 33.8895 113.677 33.7986 115.005 33.6894C116.351 33.562 117.616 33.4074 118.798 33.2255C119.999 33.0435 120.999 32.8525 121.8 32.6524ZM124.065 32.8161H126.057C126.13 34.5081 126.367 36.0727 126.767 37.51C127.167 38.9473 127.676 40.1935 128.295 41.2488C128.932 42.2858 129.641 43.0954 130.424 43.6776C131.206 44.2416 132.025 44.5236 132.88 44.5236C133.262 44.5054 133.526 44.3143 133.671 43.9505C133.817 43.5684 133.926 42.8862 133.999 41.9037C134.199 42.0675 134.444 42.2312 134.736 42.3949C135.045 42.5405 135.327 42.6496 135.582 42.7224C135.472 43.7049 135.309 44.4599 135.09 44.9875C134.89 45.5151 134.599 45.879 134.217 46.0791C133.853 46.2792 133.38 46.3884 132.798 46.4066C131.615 46.4066 130.515 46.0609 129.496 45.3696C128.477 44.6964 127.576 43.7503 126.794 42.5314C126.03 41.3124 125.411 39.8751 124.938 38.2196C124.465 36.5639 124.174 34.7628 124.065 32.8161ZM131.297 38.7654L133.098 39.393C132.261 40.4846 131.215 41.4671 129.96 42.3404C128.723 43.2136 127.376 43.9778 125.921 44.6327C124.484 45.3059 123.028 45.8699 121.554 46.3247C121.5 46.1974 121.409 46.0245 121.281 45.8062C121.154 45.6061 121.018 45.3968 120.872 45.1785C120.745 44.9784 120.617 44.8147 120.49 44.6873C121.909 44.3234 123.31 43.8595 124.693 43.2955C126.075 42.7315 127.34 42.0765 128.486 41.3306C129.632 40.5665 130.569 39.7114 131.297 38.7654ZM128.077 34.0169L129.223 32.7888C129.751 32.9889 130.287 33.2255 130.833 33.4984C131.397 33.7713 131.925 34.0533 132.416 34.3444C132.925 34.6354 133.335 34.9174 133.644 35.1903L132.47 36.5549C132.161 36.282 131.761 35.9909 131.27 35.6816C130.778 35.3723 130.251 35.0721 129.687 34.781C129.141 34.4899 128.604 34.2352 128.077 34.0169ZM116.151 21.9546L117.925 21.2997C118.325 21.7181 118.707 22.1912 119.071 22.7188C119.435 23.2464 119.699 23.7103 119.862 24.1106L117.979 24.8747C117.834 24.4744 117.588 24.0014 117.243 23.4556C116.897 22.8916 116.533 22.3913 116.151 21.9546Z" fill="white"/>
<path d="M93.1727 23.6466H107.909V25.2022H93.1727V23.6466ZM92.4358 30.2781H108.291V31.9155H92.4358V30.2781ZM92.4085 40.4028H108.346V42.0947H92.4085V40.4028ZM95.0011 37.0461H106.054V38.4379H95.0011V37.0461ZM93.7185 26.8942H107.364V28.4497H93.7185V26.8942ZM96.4202 21.2997H98.2759V31.015H96.4202V21.2997ZM102.642 21.2997H104.525V31.015H102.642V21.2997ZM99.4494 31.0422H101.196V41.3852H99.4494V31.0422ZM104.935 33.4711H106.818V44.3325C106.818 44.8419 106.754 45.224 106.627 45.4787C106.499 45.7516 106.254 45.9699 105.89 46.1337C105.526 46.261 105.035 46.3338 104.416 46.352C103.798 46.3884 103.024 46.4066 102.097 46.4066C102.06 46.1519 101.987 45.8699 101.878 45.5606C101.787 45.2513 101.678 44.9784 101.551 44.7419C102.224 44.7601 102.833 44.7692 103.379 44.7692C103.925 44.7874 104.289 44.7874 104.471 44.7692C104.653 44.751 104.771 44.7055 104.826 44.6327C104.898 44.5781 104.935 44.469 104.935 44.3052V33.4711ZM94.0732 33.4711H105.644V34.9993H95.8471V46.4066H94.0732V33.4711ZM84.2761 29.705H91.5353V31.3424H84.2761V29.705ZM84.4125 22.2548H91.4261V23.8922H84.4125V22.2548ZM84.2761 33.4438H91.5353V35.0539H84.2761V33.4438ZM83.0753 25.9117H92.2448V27.6037H83.0753V25.9117ZM85.2313 37.1825H91.6444V45.1239H85.2313V43.4593H89.8706V38.8745H85.2313V37.1825ZM84.2215 37.1825H85.9681V46.3793H84.2215V37.1825Z" fill="white"/>
</svg>
