<svg width="266" height="84" viewBox="0 0 266 84" fill="none" xmlns="http://www.w3.org/2000/svg">
<rect x="1" y="1" width="264" height="82" rx="41" fill="url(#paint0_linear_50_154)" stroke="white" stroke-width="2"/>
<path d="M111.676 40.44H131.964V43.16H111.676V40.44ZM112.732 33.88H130.94V36.568H112.732V33.88ZM119.932 35.16H122.972V40.12C122.972 41.1227 122.855 42.1893 122.62 43.32C122.407 44.4293 121.98 45.5493 121.34 46.68C120.7 47.7893 119.772 48.8667 118.556 49.912C117.361 50.9573 115.783 51.9173 113.82 52.792C113.692 52.5787 113.511 52.344 113.276 52.088C113.041 51.8107 112.796 51.5333 112.54 51.256C112.284 50.9787 112.039 50.7547 111.804 50.584C113.681 49.8587 115.164 49.0587 116.252 48.184C117.361 47.288 118.172 46.3707 118.684 45.432C119.217 44.472 119.559 43.544 119.708 42.648C119.857 41.7307 119.932 40.8773 119.932 40.088V35.16ZM123.58 42.296C124.22 44.3227 125.233 46.0187 126.62 47.384C128.028 48.7493 129.841 49.7307 132.06 50.328C131.825 50.5413 131.58 50.7973 131.324 51.096C131.089 51.3947 130.865 51.704 130.652 52.024C130.439 52.3227 130.257 52.6107 130.108 52.888C127.74 52.0773 125.82 50.8293 124.348 49.144C122.876 47.4587 121.767 45.3573 121.02 42.84L123.58 42.296ZM110.076 40.536V52.088H107.132V43.352H103.004V40.536H110.076ZM110.076 50.776C110.801 51.8853 111.804 52.7173 113.084 53.272C114.385 53.8053 115.921 54.104 117.692 54.168C118.609 54.2107 119.697 54.2427 120.956 54.264C122.215 54.264 123.548 54.2533 124.956 54.232C126.364 54.1893 127.729 54.1467 129.052 54.104C130.375 54.0613 131.537 53.9973 132.54 53.912C132.412 54.1467 132.284 54.456 132.156 54.84C132.028 55.2027 131.911 55.576 131.804 55.96C131.697 56.344 131.612 56.696 131.548 57.016C130.631 57.0587 129.564 57.0907 128.348 57.112C127.153 57.1333 125.905 57.144 124.604 57.144C123.324 57.1653 122.076 57.1653 120.86 57.144C119.644 57.144 118.577 57.1227 117.66 57.08C115.633 56.9947 113.895 56.664 112.444 56.088C111.015 55.5333 109.777 54.6267 108.732 53.368C108.007 54.0293 107.249 54.6907 106.46 55.352C105.692 56.0133 104.871 56.696 103.996 57.4L102.46 54.264C103.207 53.7947 104.007 53.2507 104.86 52.632C105.735 52.0133 106.556 51.3947 107.324 50.776H110.076ZM103.196 30.584L105.436 28.76C106.119 29.1867 106.812 29.688 107.516 30.264C108.241 30.84 108.903 31.4267 109.5 32.024C110.119 32.6213 110.609 33.176 110.972 33.688L108.572 35.672C108.231 35.16 107.761 34.6053 107.164 34.008C106.588 33.3893 105.948 32.7813 105.244 32.184C104.561 31.5867 103.879 31.0533 103.196 30.584ZM126.46 27.96L129.564 28.952C129.009 29.8693 128.423 30.7973 127.804 31.736C127.185 32.6747 126.609 33.464 126.076 34.104L123.612 33.24C123.932 32.7493 124.273 32.2053 124.636 31.608C124.999 30.9893 125.34 30.36 125.66 29.72C125.98 29.08 126.247 28.4933 126.46 27.96ZM113.82 29.112L116.38 28.056C116.999 28.824 117.575 29.6773 118.108 30.616C118.663 31.5547 119.047 32.376 119.26 33.08L116.54 34.296C116.348 33.5707 115.996 32.728 115.484 31.768C114.972 30.7867 114.417 29.9013 113.82 29.112ZM146.716 29.4H161.5V31.8H146.716V29.4ZM146.268 38.424H162.076V40.856H146.268V38.424ZM146.268 42.936H161.98V45.336H146.268V42.936ZM147.452 53.848H160.86V56.28H147.452V53.848ZM143.676 33.88H164.412V36.376H143.676V33.88ZM145.884 47.416H162.428V57.592H159.388V49.816H148.764V57.688H145.884V47.416ZM142.044 28.056L144.86 28.984C144.135 30.776 143.281 32.568 142.3 34.36C141.34 36.1307 140.295 37.8053 139.164 39.384C138.033 40.9413 136.86 42.3173 135.644 43.512C135.559 43.256 135.42 42.936 135.228 42.552C135.036 42.168 134.833 41.784 134.62 41.4C134.407 41.016 134.204 40.696 134.012 40.44C135.079 39.4373 136.103 38.2853 137.084 36.984C138.087 35.6613 139.015 34.2427 139.868 32.728C140.721 31.192 141.447 29.6347 142.044 28.056ZM138.812 36.568L141.692 33.72L141.724 33.752V57.592H138.812V36.568Z" fill="white"/>
<defs>
<linearGradient id="paint0_linear_50_154" x1="3.57628e-07" y1="42" x2="342" y2="118" gradientUnits="userSpaceOnUse">
<stop stop-color="#8C2232"/>
<stop offset="1" stop-color="#1A2A6C"/>
</linearGradient>
</defs>
</svg>
