<svg width="272" height="258" viewBox="0 0 272 258" fill="none" xmlns="http://www.w3.org/2000/svg">
<path d="M272.008 90.3977C272.008 140.323 211.117 180.795 136.004 180.795C60.891 180.795 0 140.323 0 90.3977C0 40.4724 60.891 0 136.004 0C211.117 0 272.008 40.4724 272.008 90.3977Z" fill="#455182"/>
<path d="M228.845 229.252C228.845 244.769 212.255 257.349 191.79 257.349C171.325 257.349 154.735 244.769 154.735 229.252C154.735 213.735 171.325 201.155 191.79 201.155C212.255 201.155 228.845 213.735 228.845 229.252Z" fill="#455182"/>
<path d="M173.95 98.8133C174.294 98.8538 174.658 98.8841 175.042 98.9043C175.446 98.9245 175.8 98.9346 176.103 98.9346C176.406 98.9346 176.901 98.9245 177.589 98.9043C178.296 98.8841 179.085 98.8639 179.954 98.8436C180.843 98.8032 181.723 98.7729 182.592 98.7527C183.481 98.7122 184.27 98.6718 184.957 98.6314C185.665 98.591 186.18 98.5606 186.504 98.5404C186.948 98.5 187.292 98.4596 187.534 98.4191C187.777 98.3787 187.979 98.3383 188.141 98.2978L189.536 100.057C189.273 100.238 188.99 100.431 188.687 100.633C188.404 100.835 188.121 101.057 187.838 101.3C187.454 101.583 186.938 101.997 186.291 102.543C185.644 103.069 184.927 103.665 184.138 104.332C183.37 104.979 182.612 105.616 181.864 106.242C181.116 106.869 180.439 107.435 179.833 107.94C180.54 107.698 181.248 107.536 181.955 107.455C182.683 107.354 183.38 107.304 184.047 107.304C185.725 107.304 187.211 107.617 188.505 108.244C189.819 108.85 190.84 109.689 191.567 110.76C192.315 111.832 192.689 113.055 192.689 114.429C192.689 116.047 192.265 117.462 191.416 118.674C190.567 119.887 189.364 120.817 187.807 121.464C186.251 122.131 184.401 122.465 182.258 122.465C180.884 122.465 179.701 122.283 178.711 121.919C177.72 121.555 176.952 121.05 176.406 120.403C175.881 119.756 175.618 119.008 175.618 118.159C175.618 117.472 175.81 116.825 176.194 116.218C176.578 115.612 177.124 115.127 177.831 114.763C178.539 114.399 179.358 114.217 180.287 114.217C181.642 114.217 182.764 114.5 183.653 115.066C184.543 115.612 185.23 116.34 185.715 117.249C186.2 118.139 186.473 119.099 186.534 120.13L184.351 120.494C184.27 119.2 183.865 118.139 183.138 117.31C182.43 116.461 181.47 116.036 180.257 116.036C179.57 116.036 178.994 116.228 178.529 116.613C178.064 116.997 177.831 117.451 177.831 117.977C177.831 118.705 178.205 119.281 178.953 119.705C179.701 120.13 180.672 120.342 181.864 120.342C183.582 120.342 185.068 120.11 186.322 119.645C187.595 119.18 188.565 118.503 189.233 117.613C189.92 116.724 190.263 115.652 190.263 114.399C190.263 113.408 189.97 112.519 189.384 111.731C188.798 110.942 187.989 110.326 186.958 109.881C185.948 109.416 184.785 109.184 183.471 109.184C182.198 109.184 181.056 109.325 180.045 109.608C179.034 109.871 178.084 110.255 177.195 110.76C176.325 111.266 175.456 111.902 174.587 112.671C173.738 113.419 172.828 114.278 171.858 115.248L170.129 113.459C170.756 112.954 171.443 112.388 172.191 111.761C172.96 111.114 173.728 110.477 174.496 109.851C175.264 109.204 175.972 108.607 176.618 108.062C177.286 107.496 177.841 107.031 178.286 106.667C178.711 106.323 179.236 105.889 179.863 105.363C180.51 104.817 181.177 104.251 181.864 103.665C182.551 103.079 183.198 102.523 183.805 101.997C184.431 101.472 184.937 101.047 185.321 100.724C184.997 100.724 184.522 100.744 183.896 100.784C183.269 100.804 182.572 100.835 181.804 100.875C181.035 100.895 180.267 100.926 179.499 100.966C178.751 101.007 178.064 101.047 177.437 101.087C176.831 101.108 176.366 101.128 176.042 101.148C175.719 101.168 175.385 101.189 175.042 101.209C174.698 101.229 174.364 101.269 174.041 101.33L173.95 98.8133Z" fill="white"/>
<path d="M149.692 97.5095C149.632 97.7722 149.571 98.0654 149.51 98.3888C149.45 98.692 149.389 98.9953 149.328 99.2985C149.268 99.6623 149.177 100.158 149.055 100.784C148.954 101.411 148.843 102.078 148.722 102.786C148.601 103.473 148.459 104.13 148.297 104.756C148.095 105.626 147.843 106.606 147.539 107.698C147.236 108.769 146.892 109.911 146.508 111.124C146.124 112.337 145.69 113.58 145.204 114.854C144.719 116.107 144.184 117.36 143.597 118.614C143.011 119.847 142.374 121.009 141.687 122.101L139.201 121.131C139.908 120.201 140.555 119.16 141.141 118.007C141.748 116.855 142.304 115.662 142.809 114.429C143.314 113.176 143.769 111.943 144.174 110.73C144.598 109.517 144.952 108.395 145.235 107.364C145.518 106.333 145.74 105.444 145.902 104.696C146.185 103.483 146.417 102.23 146.599 100.936C146.781 99.6219 146.872 98.3787 146.872 97.2062L149.692 97.5095ZM160.123 100.724C160.608 101.35 161.114 102.129 161.639 103.058C162.185 103.988 162.711 104.979 163.216 106.03C163.742 107.081 164.217 108.092 164.641 109.062C165.066 110.033 165.409 110.871 165.672 111.579L163.307 112.701C163.085 111.933 162.781 111.053 162.397 110.063C162.013 109.052 161.568 108.031 161.063 107C160.578 105.949 160.062 104.969 159.517 104.059C158.991 103.129 158.455 102.351 157.91 101.724L160.123 100.724ZM138.776 104.15C139.241 104.19 139.686 104.211 140.11 104.211C140.535 104.19 140.99 104.17 141.475 104.15C141.94 104.13 142.526 104.1 143.234 104.059C143.941 103.998 144.709 103.938 145.538 103.877C146.387 103.816 147.216 103.756 148.024 103.695C148.853 103.614 149.611 103.554 150.299 103.513C151.006 103.453 151.562 103.422 151.966 103.422C152.876 103.422 153.695 103.564 154.422 103.847C155.17 104.13 155.767 104.645 156.211 105.393C156.656 106.141 156.879 107.192 156.879 108.547C156.879 109.739 156.818 111.033 156.697 112.428C156.596 113.803 156.414 115.117 156.151 116.37C155.888 117.623 155.544 118.664 155.12 119.493C154.655 120.524 154.048 121.201 153.301 121.525C152.553 121.868 151.683 122.04 150.693 122.04C150.127 122.04 149.51 121.99 148.843 121.889C148.176 121.808 147.6 121.707 147.115 121.585L146.721 119.069C147.165 119.19 147.61 119.301 148.055 119.402C148.52 119.503 148.964 119.574 149.389 119.614C149.813 119.655 150.167 119.675 150.45 119.675C150.996 119.675 151.491 119.584 151.936 119.402C152.401 119.2 152.785 118.776 153.088 118.129C153.412 117.441 153.675 116.582 153.877 115.551C154.099 114.5 154.261 113.388 154.362 112.216C154.483 111.043 154.544 109.921 154.544 108.85C154.544 107.9 154.412 107.202 154.15 106.758C153.887 106.293 153.513 105.979 153.028 105.818C152.542 105.636 151.976 105.545 151.33 105.545C150.804 105.545 150.107 105.585 149.237 105.666C148.368 105.727 147.438 105.808 146.448 105.909C145.477 106.01 144.568 106.111 143.719 106.212C142.87 106.293 142.213 106.364 141.748 106.424C141.404 106.465 140.959 106.525 140.414 106.606C139.888 106.667 139.423 106.727 139.019 106.788L138.776 104.15Z" fill="white"/>
<path d="M119.37 97.5095C119.309 97.7722 119.249 98.0654 119.188 98.3888C119.127 98.692 119.067 98.9953 119.006 99.2985C118.945 99.6623 118.854 100.158 118.733 100.784C118.632 101.411 118.521 102.078 118.4 102.786C118.278 103.473 118.137 104.13 117.975 104.756C117.773 105.626 117.52 106.606 117.217 107.698C116.914 108.769 116.57 109.911 116.186 111.124C115.802 112.337 115.367 113.58 114.882 114.854C114.397 116.107 113.861 117.36 113.275 118.614C112.689 119.847 112.052 121.009 111.365 122.101L108.878 121.131C109.586 120.201 110.233 119.16 110.819 118.007C111.425 116.855 111.981 115.662 112.487 114.429C112.992 113.176 113.447 111.943 113.851 110.73C114.276 109.517 114.629 108.395 114.912 107.364C115.195 106.333 115.418 105.444 115.58 104.696C115.863 103.483 116.095 102.23 116.277 100.936C116.459 99.6219 116.55 98.3787 116.55 97.2062L119.37 97.5095ZM129.801 100.724C130.286 101.35 130.791 102.129 131.317 103.058C131.863 103.988 132.388 104.979 132.894 106.03C133.419 107.081 133.894 108.092 134.319 109.062C134.743 110.033 135.087 110.871 135.35 111.579L132.985 112.701C132.762 111.933 132.459 111.053 132.075 110.063C131.691 109.052 131.246 108.031 130.741 107C130.256 105.949 129.74 104.969 129.194 104.059C128.669 103.129 128.133 102.351 127.587 101.724L129.801 100.724ZM108.454 104.15C108.919 104.19 109.363 104.211 109.788 104.211C110.212 104.19 110.667 104.17 111.152 104.15C111.617 104.13 112.204 104.1 112.911 104.059C113.619 103.998 114.387 103.938 115.216 103.877C116.065 103.816 116.894 103.756 117.702 103.695C118.531 103.614 119.289 103.554 119.976 103.513C120.684 103.453 121.24 103.422 121.644 103.422C122.554 103.422 123.372 103.564 124.1 103.847C124.848 104.13 125.444 104.645 125.889 105.393C126.334 106.141 126.556 107.192 126.556 108.547C126.556 109.739 126.496 111.033 126.374 112.428C126.273 113.803 126.091 115.117 125.828 116.37C125.566 117.623 125.222 118.664 124.798 119.493C124.333 120.524 123.726 121.201 122.978 121.525C122.23 121.868 121.361 122.04 120.37 122.04C119.804 122.04 119.188 121.99 118.521 121.889C117.854 121.808 117.278 121.707 116.792 121.585L116.398 119.069C116.843 119.19 117.288 119.301 117.732 119.402C118.197 119.503 118.642 119.574 119.067 119.614C119.491 119.655 119.845 119.675 120.128 119.675C120.674 119.675 121.169 119.584 121.614 119.402C122.079 119.2 122.463 118.776 122.766 118.129C123.089 117.441 123.352 116.582 123.554 115.551C123.777 114.5 123.938 113.388 124.039 112.216C124.161 111.043 124.221 109.921 124.221 108.85C124.221 107.9 124.09 107.202 123.827 106.758C123.564 106.293 123.19 105.979 122.705 105.818C122.22 105.636 121.654 105.545 121.007 105.545C120.482 105.545 119.784 105.585 118.915 105.666C118.046 105.727 117.116 105.808 116.125 105.909C115.155 106.01 114.245 106.111 113.396 106.212C112.547 106.293 111.89 106.364 111.425 106.424C111.082 106.465 110.637 106.525 110.091 106.606C109.566 106.667 109.101 106.727 108.696 106.788L108.454 104.15Z" fill="white"/>
<path d="M88.623 97.6004C88.5826 97.8834 88.532 98.1867 88.4714 98.5101C88.4107 98.8133 88.3501 99.1165 88.2895 99.4198C88.2086 99.7634 88.1176 100.249 88.0165 100.875C87.9155 101.502 87.7942 102.169 87.6527 102.877C87.5314 103.564 87.4 104.231 87.2585 104.878C87.0361 105.727 86.7733 106.697 86.4701 107.789C86.1871 108.86 85.8434 110.012 85.4391 111.245C85.0551 112.458 84.6204 113.702 84.1353 114.975C83.6501 116.228 83.1144 117.472 82.5282 118.705C81.942 119.938 81.3052 121.11 80.6179 122.222L78.1618 121.222C78.8491 120.312 79.496 119.281 80.1024 118.129C80.7089 116.976 81.2648 115.784 81.7701 114.551C82.2755 113.297 82.7303 112.064 83.1347 110.851C83.5389 109.638 83.8826 108.516 84.1656 107.486C84.4688 106.434 84.7013 105.535 84.863 104.787C85.146 103.594 85.3785 102.341 85.5604 101.027C85.7424 99.7129 85.8333 98.4798 85.8333 97.3275L88.623 97.6004ZM99.0539 101.118C99.539 101.724 100.044 102.492 100.57 103.422C101.116 104.352 101.641 105.333 102.147 106.364C102.672 107.395 103.147 108.395 103.572 109.365C104.017 110.336 104.36 111.175 104.603 111.882L102.268 113.004C102.046 112.216 101.732 111.326 101.328 110.336C100.944 109.345 100.499 108.345 99.9939 107.334C99.5087 106.303 98.9932 105.333 98.4474 104.423C97.9218 103.493 97.3861 102.725 96.8403 102.118L99.0539 101.118ZM77.7069 104.271C78.1921 104.292 78.6469 104.302 79.0715 104.302C79.496 104.302 79.9508 104.292 80.436 104.271C80.8807 104.251 81.4568 104.221 82.1643 104.18C82.8921 104.12 83.6703 104.059 84.4992 103.998C85.328 103.918 86.1568 103.847 86.9856 103.786C87.8144 103.705 88.5725 103.645 89.2598 103.604C89.9471 103.544 90.4929 103.513 90.8972 103.513C91.8068 103.513 92.6255 103.665 93.3533 103.968C94.1012 104.251 94.6976 104.767 95.1423 105.515C95.6072 106.242 95.8397 107.293 95.8397 108.668C95.8397 109.861 95.7791 111.155 95.6578 112.549C95.5365 113.924 95.3444 115.238 95.0816 116.491C94.8391 117.724 94.5055 118.765 94.081 119.614C93.6161 120.625 93.0096 121.292 92.2617 121.616C91.5137 121.959 90.6445 122.131 89.6539 122.131C89.0677 122.131 88.4411 122.081 87.774 121.98C87.1271 121.899 86.5611 121.808 86.0759 121.707L85.6817 119.16C86.1062 119.301 86.551 119.422 87.0159 119.523C87.4809 119.604 87.9256 119.675 88.3501 119.736C88.7746 119.776 89.1183 119.796 89.3811 119.796C89.9471 119.796 90.4524 119.705 90.8972 119.523C91.3419 119.321 91.726 118.887 92.0494 118.22C92.3729 117.532 92.6357 116.673 92.8378 115.642C93.0602 114.611 93.2219 113.51 93.323 112.337C93.424 111.165 93.4746 110.033 93.4746 108.941C93.4746 108.011 93.3432 107.314 93.0804 106.849C92.8176 106.384 92.4436 106.07 91.9585 105.909C91.4733 105.747 90.9073 105.666 90.2604 105.666C89.755 105.666 89.0677 105.707 88.1985 105.787C87.3292 105.848 86.3994 105.929 85.4088 106.03C84.4183 106.111 83.4985 106.202 82.6495 106.303C81.8207 106.404 81.1738 106.475 80.7089 106.515C80.345 106.556 79.8902 106.616 79.3444 106.697C78.8188 106.758 78.3639 106.818 77.9799 106.879L77.7069 104.271ZM99.4177 96.7211C99.6805 97.0647 99.9534 97.4892 100.236 97.9946C100.54 98.4798 100.843 98.9851 101.146 99.5107C101.449 100.016 101.702 100.471 101.904 100.875L100.236 101.603C100.055 101.199 99.822 100.744 99.539 100.238C99.256 99.7331 98.9629 99.2277 98.6597 98.7224C98.3565 98.217 98.0633 97.7722 97.7803 97.3882L99.4177 96.7211ZM102.753 95.4779C103.016 95.8619 103.309 96.3067 103.633 96.812C103.956 97.3174 104.269 97.8228 104.573 98.3282C104.876 98.8133 105.118 99.2479 105.3 99.632L103.663 100.36C103.339 99.6927 102.945 98.975 102.48 98.2069C102.015 97.4185 101.571 96.7413 101.146 96.1753L102.753 95.4779Z" fill="white"/>
<path d="M187.838 59.9098H207.456V62.093H187.838V59.9098ZM187.838 66.9749H207.396V69.1277H187.838V66.9749ZM187.656 74.2219H207.456V76.3748H187.656V74.2219ZM186.534 59.9098H188.778V70.9168C188.778 72.069 188.727 73.3021 188.626 74.6161C188.525 75.9301 188.333 77.2642 188.05 78.6186C187.787 79.9528 187.373 81.2365 186.807 82.4696C186.261 83.7027 185.533 84.8246 184.624 85.8354C184.522 85.6736 184.361 85.4917 184.138 85.2896C183.916 85.1076 183.694 84.9257 183.471 84.7438C183.249 84.5618 183.047 84.4304 182.865 84.3496C183.714 83.3995 184.381 82.3685 184.866 81.2567C185.351 80.1449 185.715 79.0027 185.958 77.8303C186.2 76.6376 186.352 75.455 186.413 74.2825C186.493 73.1101 186.534 71.9882 186.534 70.9168V59.9098ZM206.547 59.9098H208.79V82.5909C208.79 83.3186 208.679 83.8745 208.457 84.2586C208.255 84.6427 207.901 84.9358 207.396 85.1379C206.89 85.3199 206.183 85.4311 205.273 85.4715C204.363 85.5119 203.191 85.522 201.756 85.5018C201.695 85.2188 201.584 84.8549 201.422 84.4102C201.281 83.9857 201.129 83.6218 200.967 83.3186C201.675 83.3388 202.352 83.3489 202.999 83.3489C203.666 83.3691 204.242 83.3691 204.727 83.3489C205.212 83.3489 205.546 83.3489 205.728 83.3489C206.031 83.3287 206.243 83.2681 206.365 83.167C206.486 83.0659 206.547 82.8739 206.547 82.5909V59.9098ZM196.055 60.7285H198.36V85.4108H196.055V60.7285Z" fill="white"/>
<path d="M156.909 62.6994H175.951V61.0014H154.847V59.4549H178.044V64.2155H156.909V62.6994ZM156.211 62.6994H158.364C158.081 63.5686 157.768 64.4682 157.424 65.3981C157.101 66.3078 156.808 67.0961 156.545 67.7632L154.422 67.6419C154.726 66.9546 155.039 66.1663 155.362 65.2768C155.686 64.3671 155.969 63.508 156.211 62.6994ZM156.06 65.8529H178.559V67.369H155.605L156.06 65.8529ZM177.801 65.8529H179.954C179.954 65.8529 179.944 65.9439 179.924 66.1258C179.924 66.3078 179.924 66.4695 179.924 66.611C179.822 67.5409 179.711 68.2585 179.59 68.7639C179.469 69.249 179.287 69.6028 179.044 69.8252C178.862 70.0071 178.64 70.1486 178.377 70.2497C178.135 70.3305 177.862 70.3811 177.558 70.4013C177.296 70.4013 176.912 70.4013 176.406 70.4013C175.921 70.3811 175.416 70.3609 174.89 70.3406C174.87 70.1183 174.819 69.8656 174.738 69.5826C174.658 69.2794 174.557 69.0267 174.435 68.8245C174.92 68.8649 175.355 68.8953 175.739 68.9155C176.123 68.9357 176.396 68.9458 176.558 68.9458C176.74 68.9458 176.881 68.9357 176.982 68.9155C177.083 68.8953 177.174 68.8346 177.255 68.7336C177.376 68.6123 177.478 68.3596 177.558 67.9755C177.659 67.5712 177.74 66.9546 177.801 66.1258V65.8529ZM162.276 57.7872H164.368V63.2452C164.368 64.256 164.247 65.2061 164.004 66.0955C163.782 66.985 163.327 67.8138 162.64 68.5819C161.973 69.3299 160.972 70.0071 159.638 70.6135C158.324 71.22 156.565 71.7355 154.362 72.16C154.301 71.978 154.21 71.7759 154.089 71.5535C153.968 71.3312 153.836 71.1189 153.695 70.9168C153.553 70.6944 153.412 70.5125 153.27 70.371C155.292 70.0071 156.899 69.5725 158.091 69.0671C159.284 68.5617 160.184 68.0058 160.79 67.3994C161.397 66.7929 161.791 66.1359 161.973 65.4284C162.175 64.7209 162.276 63.9831 162.276 63.2149V57.7872ZM169.068 57.7872H171.251V69.6432H169.068V57.7872ZM159.304 74.4645V76.3445H174.526V74.4645H159.304ZM159.304 77.7696V79.6799H174.526V77.7696H159.304ZM159.304 71.1897V73.0696H174.526V71.1897H159.304ZM157.091 69.7342H176.831V81.1657H157.091V69.7342ZM169.189 82.6818L171.009 81.4689C172.121 81.7722 173.253 82.1057 174.405 82.4696C175.557 82.8132 176.639 83.1569 177.649 83.5005C178.68 83.8644 179.56 84.1979 180.287 84.5012L177.862 85.7141C177.215 85.4108 176.426 85.0874 175.496 84.7438C174.587 84.4001 173.586 84.0463 172.495 83.6825C171.423 83.3186 170.321 82.9851 169.189 82.6818ZM162.215 81.4386L164.247 82.3786C163.438 82.8233 162.488 83.258 161.397 83.6825C160.305 84.107 159.193 84.5012 158.061 84.865C156.949 85.2289 155.878 85.5321 154.847 85.7747C154.746 85.613 154.594 85.421 154.392 85.1986C154.19 84.9964 153.978 84.7943 153.755 84.5921C153.553 84.39 153.371 84.2182 153.21 84.0767C154.261 83.8745 155.332 83.6319 156.424 83.3489C157.536 83.0861 158.597 82.793 159.608 82.4696C160.618 82.1461 161.488 81.8025 162.215 81.4386Z" fill="white"/>
<path d="M124.191 64.1246C124.757 64.2054 125.353 64.2661 125.98 64.3065C126.607 64.3267 127.244 64.3368 127.89 64.3368C129.002 64.3368 130.144 64.2863 131.317 64.1852C132.51 64.0841 133.712 63.9224 134.925 63.7C136.138 63.4575 137.331 63.1441 138.503 62.7601L138.564 65.0342C137.573 65.297 136.482 65.5396 135.289 65.762C134.117 65.9843 132.894 66.1663 131.62 66.3078C130.367 66.4291 129.124 66.4897 127.89 66.4897C127.345 66.4897 126.758 66.4897 126.132 66.4897C125.525 66.4695 124.929 66.4392 124.343 66.3987L124.191 64.1246ZM134.925 59.182C134.804 59.6672 134.652 60.2837 134.47 61.0317C134.288 61.7796 134.086 62.568 133.864 63.3968C133.662 64.2054 133.439 64.9736 133.197 65.7013C132.712 67.1568 132.095 68.6931 131.347 70.3103C130.599 71.9073 129.801 73.4638 128.952 74.98C128.103 76.4961 127.264 77.8202 126.435 78.9522L124.1 77.7393C124.767 76.9509 125.434 76.0513 126.101 75.0406C126.789 74.0299 127.425 72.9686 128.012 71.8568C128.618 70.7449 129.164 69.6533 129.649 68.5819C130.134 67.5106 130.539 66.5301 130.862 65.6407C131.185 64.6704 131.489 63.5788 131.772 62.3659C132.055 61.1328 132.216 59.9906 132.257 58.9394L134.925 59.182ZM142.081 68.5516C142.061 69.1783 142.041 69.7443 142.021 70.2497C142.021 70.7348 142.031 71.2604 142.051 71.8264C142.071 72.3116 142.091 72.9383 142.112 73.7064C142.152 74.4544 142.192 75.2529 142.233 76.1019C142.273 76.9307 142.304 77.7292 142.324 78.4974C142.364 79.2655 142.385 79.9023 142.385 80.4077C142.385 81.2163 142.203 81.9541 141.839 82.6212C141.475 83.2883 140.899 83.8139 140.11 84.198C139.342 84.6022 138.331 84.8044 137.078 84.8044C135.966 84.8044 134.956 84.6427 134.046 84.3192C133.136 84.016 132.398 83.541 131.832 82.8941C131.287 82.2472 131.014 81.4285 131.014 80.438C131.014 79.4879 131.276 78.6793 131.802 78.0122C132.348 77.3249 133.076 76.7993 133.985 76.4354C134.915 76.0716 135.946 75.8896 137.078 75.8896C138.776 75.8896 140.333 76.1322 141.748 76.6174C143.183 77.0823 144.467 77.6786 145.599 78.4064C146.751 79.1341 147.741 79.8517 148.57 80.5593L147.266 82.6212C146.68 82.0956 146.023 81.5498 145.295 80.9838C144.588 80.4178 143.8 79.9023 142.93 79.4373C142.061 78.9522 141.131 78.558 140.141 78.2548C139.15 77.9516 138.099 77.7999 136.987 77.7999C135.875 77.7999 134.976 78.0324 134.288 78.4974C133.601 78.9623 133.257 79.5384 133.257 80.2257C133.257 80.9332 133.551 81.5094 134.137 81.9541C134.723 82.3988 135.602 82.6212 136.775 82.6212C137.624 82.6212 138.291 82.4898 138.776 82.227C139.261 81.944 139.605 81.5801 139.807 81.1354C140.029 80.6705 140.141 80.1651 140.141 79.6193C140.141 79.0533 140.12 78.3154 140.08 77.4057C140.06 76.4961 140.019 75.5258 139.959 74.4948C139.918 73.4436 139.868 72.4026 139.807 71.3716C139.767 70.3204 139.736 69.3804 139.716 68.5516H142.081ZM148.146 69.3703C147.6 68.8852 146.913 68.3798 146.084 67.8542C145.255 67.3286 144.396 66.8334 143.506 66.3684C142.637 65.8833 141.869 65.4891 141.202 65.1858L142.445 63.3362C142.991 63.5788 143.597 63.8719 144.264 64.2155C144.932 64.5592 145.599 64.923 146.266 65.3071C146.933 65.6912 147.549 66.0652 148.115 66.4291C148.702 66.7727 149.167 67.086 149.51 67.369L148.146 69.3703Z" fill="white"/>
<path d="M96.3552 65.3981H102.329V67.0658H96.3552V65.3981ZM97.8107 57.8175H99.9635V62.002H97.8107V57.8175ZM95.4152 75.738H103.36V83.7128H95.4152V81.8935H101.358V77.5574H95.4152V75.738ZM92.6255 60.5465H105.149V64.9129H103.178V62.3962H94.5359V64.9129H92.6255V60.5465ZM94.3236 75.738H96.2642V85.1683H94.3236V75.738ZM101.904 65.3981H102.268L102.632 65.3071L103.966 65.9439C103.299 67.8037 102.389 69.4815 101.237 70.9774C100.105 72.4531 98.8113 73.7367 97.3558 74.8284C95.9206 75.8997 94.4247 76.769 92.8681 77.4361C92.7266 77.1935 92.5346 76.9105 92.292 76.587C92.0696 76.2434 91.8574 75.9705 91.6552 75.7683C93.0905 75.2225 94.4853 74.4645 95.8397 73.4942C97.2143 72.5238 98.4373 71.3817 99.5087 70.0677C100.58 68.7538 101.379 67.3286 101.904 65.7923V65.3981ZM97.3558 63.1542L99.2661 63.6394C98.599 65.1757 97.7298 66.611 96.6584 67.9452C95.6072 69.2591 94.4954 70.3811 93.323 71.311C93.2219 71.1897 93.0703 71.0482 92.8681 70.8864C92.6862 70.7045 92.4941 70.5327 92.292 70.371C92.1101 70.189 91.9382 70.0475 91.7765 69.9464C92.949 69.1379 94.0204 68.1372 94.9907 66.9445C95.9812 65.7519 96.7696 64.4884 97.3558 63.1542ZM94.5662 69.0974L95.8094 67.7329C96.6382 68.2787 97.4973 68.8751 98.3868 69.5219C99.2965 70.1486 100.186 70.7955 101.055 71.4626C101.945 72.1094 102.773 72.7462 103.542 73.3729C104.31 73.9995 104.967 74.5555 105.513 75.0406L104.148 76.6477C103.643 76.1423 103.006 75.5662 102.238 74.9193C101.49 74.2724 100.671 73.6155 99.7816 72.9484C98.9124 72.2611 98.0229 71.5839 97.1132 70.9168C96.2238 70.2497 95.3748 69.6432 94.5662 69.0974ZM105.513 59.2123H119.612V61.2136H105.513V59.2123ZM108.727 70.5226V73.4335H116.671V70.5226H108.727ZM108.727 75.1316V78.1032H116.671V75.1316H108.727ZM108.727 65.8833V68.7942H116.671V65.8833H108.727ZM106.665 64.0942H118.854V79.8922H106.665V64.0942ZM111.456 60.1523L113.942 60.4859C113.679 61.3551 113.406 62.2345 113.123 63.1239C112.84 64.0134 112.578 64.7815 112.335 65.4284L110.394 65.0342C110.536 64.5895 110.667 64.0841 110.789 63.5181C110.93 62.9319 111.062 62.3456 111.183 61.7594C111.304 61.1732 111.395 60.6375 111.456 60.1523ZM109.212 80.4986L111.183 81.6509C110.657 82.1562 110.041 82.6616 109.333 83.167C108.626 83.6724 107.878 84.1373 107.089 84.5618C106.321 84.9863 105.563 85.3401 104.815 85.6231C104.653 85.4007 104.421 85.138 104.118 84.8347C103.835 84.5517 103.572 84.3192 103.329 84.1373C104.077 83.8543 104.825 83.5208 105.573 83.1367C106.321 82.7324 107.019 82.2978 107.665 81.8328C108.312 81.3679 108.828 80.9231 109.212 80.4986ZM113.639 81.7115L115.337 80.6199C115.943 81.004 116.57 81.4285 117.217 81.8935C117.864 82.3382 118.48 82.793 119.067 83.258C119.673 83.7229 120.158 84.1474 120.522 84.5315L118.733 85.7444C118.389 85.3603 117.924 84.9257 117.338 84.4405C116.772 83.9756 116.166 83.5005 115.519 83.0154C114.872 82.5302 114.245 82.0956 113.639 81.7115Z" fill="white"/>
<path d="M62.5761 60.6678H88.9262V62.6691H62.5761V60.6678ZM74.4321 57.7569H76.767V61.6381H74.4321V57.7569ZM63.9406 72.5238H86.4701V74.4645H66.1541V85.6837H63.9406V72.5238ZM85.5301 72.5238H87.8043V82.9547C87.8043 83.5814 87.7133 84.0767 87.5314 84.4405C87.3697 84.8044 87.0462 85.0773 86.5611 85.2592C86.0759 85.4412 85.4088 85.5422 84.5598 85.5625C83.731 85.6029 82.6798 85.6231 81.4063 85.6231C81.3658 85.2997 81.2749 84.9358 81.1334 84.5315C80.9919 84.1272 80.8403 83.7734 80.6785 83.4702C81.6691 83.4904 82.5484 83.5005 83.3166 83.5005C84.105 83.5208 84.6204 83.5208 84.863 83.5005C85.1258 83.4803 85.2976 83.4298 85.3785 83.3489C85.4796 83.2681 85.5301 83.1266 85.5301 82.9244V72.5238ZM70.0051 76.4354H72.0063V84.4102H70.0051V76.4354ZM71.0664 76.4354H81.5579V82.8638H71.0664V81.196H79.5263V78.1032H71.0664V76.4354ZM69.7928 66.0349V68.9458H81.6792V66.0349H69.7928ZM67.6096 64.3671H83.9534V70.6439H67.6096V64.3671Z" fill="white"/>
</svg>
